<?xml version="1.0" encoding="utf-8"?>
<!-- Generator: Adobe Illustrator 24.1.2, SVG Export Plug-In . SVG Version: 6.00 Build 0)  -->
<svg width="3200" height="2400" version="1.1" xmlns="http://www.w3.org/2000/svg" xmlns:xlink="http://www.w3.org/1999/xlink" x="0px" y="0px"
	 viewBox="0 0 3200 2400" style="enable-background:new 0 0 3200 2400;" xml:space="preserve">
<style type="text/css">
	.st0{clip-path:url(#SVGID_2_);}
	.st1{fill:#E8F6FF;}
	.st2{opacity:0.8;}
	.st3{fill:#CAE2F0;}
	.st4{fill:#D9EDFA;}
	.st5{fill:#D9D49F;}
	.st6{fill:#79964D;}
	.st7{fill:#8CB351;}
	.st8{fill:#5F802B;}
	.st9{fill:#734434;}
	.st10{fill:#8F5442;}
	.st11{clip-path:url(#SVGID_2_);fill:#8CB351;}
	.st12{clip-path:url(#SVGID_2_);fill:#5F802B;}
	.st13{display:none;clip-path:url(#SVGID_2_);}
	.st14{display:inline;fill:#79964D;}
	.st15{fill:#AED472;}
	.st16{fill:#9CC75B;}
	.st17{clip-path:url(#SVGID_4_);fill:#9CBF67;}
	.st18{clip-path:url(#SVGID_4_);fill:#8AA85A;}
	.st19{clip-path:url(#SVGID_6_);fill:#6B8545;}
	.st20{clip-path:url(#SVGID_6_);fill:#61783E;}
	.st21{clip-path:url(#SVGID_8_);fill:#AED472;}
	.st22{clip-path:url(#SVGID_8_);fill:#ACB28A;}
	.st23{clip-path:url(#SVGID_10_);fill:#7D9C50;}
	.st24{clip-path:url(#SVGID_10_);fill:#87A857;}
	.st25{clip-path:url(#SVGID_12_);fill:#9CBF67;}
	.st26{clip-path:url(#SVGID_12_);fill:#8AA85A;}
	.st27{clip-path:url(#SVGID_14_);fill:#6B8545;}
	.st28{clip-path:url(#SVGID_14_);fill:#61783E;}
	.st29{clip-path:url(#SVGID_16_);fill:#AED472;}
	.st30{clip-path:url(#SVGID_16_);fill:#ACB28A;}
	.st31{clip-path:url(#SVGID_18_);fill:#7D9C50;}
	.st32{clip-path:url(#SVGID_18_);fill:#87A857;}
</style>
<g id="Landscape">
	<defs>
		<rect id="SVGID_1_" width="3200" height="2400"/>
	</defs>
	<clipPath id="SVGID_2_">
		<use xlink:href="#SVGID_1_"  style="overflow:visible;"/>
	</clipPath>
	<g class="st0">
		<rect x="-10" y="0" class="st1" width="3200" height="2400"/>
		<g class="st2">
			<g>
				<path class="st3" d="M1725.4,826.6c0,0-141.9-89.6-218.8-105.2c0,0-71-23.4-103.5-46.7c0,0-62.1-21.4-88.7-1.9
					c-26.6,19.5-76.9-81.8-165.6-93.5c0,0-198.1-148-233.6-153.9l-20.7,15.6H865c0,0-85.7,93.5-150.8,107.1c0,0-71,15.6-130.1,60.4
					c0,0-263.1,196.7-416.9,247.4c0,0-632.7,224-650.4,231.8c-17.7,7.8-100.5,33.1-100.5,33.1l-44.3,35.1
					c0,0,1049.6,225.9,1058.4,231.8c8.9,5.8,162.6-23.4,162.6-23.4l863.3-298l215.8-204.5L1725.4,826.6z"/>
			</g>
			<g>
				<path class="st4" d="M-583.7,1120.7c0,0,82.8-25.3,100.5-33.1c17.7-7.8,650.4-231.8,650.4-231.8
					C321,805.1,584.1,608.4,584.1,608.4c59.1-44.8,130.1-60.4,130.1-60.4C779.3,534.4,865,440.9,865,440.9h29.6l20.7-15.6
					c11.8,25.3-14.8,35.1-14.8,35.1l-79.8,83.8l68-19.5c35.5-5.8,47.3-3.9,47.3-3.9c-14.8,44.8-136,165.6-136,165.6
					c-109.4,37-103.5,76-103.5,76c14.8-13.6,76.9-15.6,76.9-15.6c35.5,0,73.9-21.4,73.9-21.4C800,785.7,797,902.5,797,902.5
					l180.3-101.3l103.5-79.9l-41.4,107.1c-38.4,77.9-20.7,157.8-20.7,157.8c17.7,66.2,183.3,111,183.3,111l-77.8,83.5L593,1364.1
					c0,0-153.7,29.2-162.6,23.4c-8.9-5.8-1058.4-231.8-1058.4-231.8L-583.7,1120.7z"/>
			</g>
			<g>
				<path class="st3" d="M2349.2,990.2c0,0-162.6-58.4-289.7-70.1c0,0-78.3-44.7-129.4-69.5c-3.3-1.6-6.5-3.1-9.5-4.5
					c-50.3-23.4-94.6-60.4-121.2-60.4s-71,9.7-71,9.7l-50.3,56.5l-68,1.9l-76.9,50.6l-65,9.7l-68,37c0,0-313.4,212.3-490.8,255.2
					L805.9,1294l-310.4,68.2c0,0,378.4,68.2,425.7,77.9c47.3,9.7-29.6,11.7,310.4,19.5c340,7.8,272,2,272,2l183.3-15.6
					c0,0,449.4-136.3,458.3-138.3c8.9-1.9,254.3-126.6,254.3-126.6l-11.8-181.1L2349.2,990.2z"/>
			</g>
			<g>
				<path class="st4" d="M805.9,1294l103.5-87.7c177.4-42.9,490.8-255.2,490.8-255.2l68-37l65-9.7l76.9-50.6l68-1.9l50.3-56.5
					c0,0,44.3-9.7,71-9.7c2.8,0,5.9,0.5,9.1,1.3l-1.7,3.1l-51,58.4h66.5l-59.9,71.6l26.6-4.4c0,0-37.7,38-79.8,57
					c0,0,77.6-20.4,122-51.1l95.3-16.1c0,0-140.5,98.2-256.8,151.6c-2.4,1.1-4.7,2.2-7.1,3.2c-117.5,52.6-113.1,55.5-195.1,68.7
					c0,0-200.6,46-279.4,97.9c-4.4,2.9-370.3,153.4-370.3,153.4s-38,13.8-79.1,26c-116.1-21.1-243.1-44-243.1-44L805.9,1294z"/>
			</g>
			<g>
				<path class="st3" d="M1649.2,958l-117.5-14.6l-44.3,19c0,0-13.3,65.7-73.2,100.8c0,0,79.8-20.4,117.5-57
					C1531.7,1006.2,1607.1,974.1,1649.2,958z"/>
			</g>
			<g>
				<path class="st3" d="M3029.2,916.2l-82.8-35.1l-44.3-21.4l-32.5-25.3l-44.4-9.7l-26.6-11.7l-44.3-11.7l-35.5,5.8l-53.2,23.4
					l-20.7-5.8l-23.7-7.8l-41.4,23.4l-65,29.2l-168.5,95.4L2183.6,1070c0,0-76.1,33.6-91.7,42.9c-59.1,35.1-41.4,21.4-50.3,33.1
					c-8.9,11.7-301.6,111-331.1,132.4c-29.6,21.4-139,3.9-139,3.9l-79.8,163.6l-44.3,154.8v111l887-35.1l341.5-43.8
					c0,0,195.1-17.5,252.8-17.5c57.7,0,168.5-29.2,168.5-29.2l186.3-128.6l57.7-40.9l26.6-131.5c0,0,26.6-108.1-53.2-195.7
					c-79.8-87.6-79.8-87.6-79.8-87.6L3029.2,916.2z"/>
			</g>
			<g>
				<path class="st4" d="M2712.9,842.1c0,0-94.6,68.2-121.2,113c0,0-35.5,48.7-186.3,95.4c0,0-272,105.2-334.1,157.8l-221.7,134.4
					c0,0-47.3,1.9-82.8,9.7c-35.5,7.8-144.9,13.6-156.7,15.6c-11.8,1.9-56.2,5.8-68,9.7c-2.3,0.8-8.2-0.2-16-2.1l45.5-93.3
					c0,0,109.4,17.5,139-3.9c29.6-21.4,322.3-120.8,331.1-132.4c8.9-11.7-8.9,1.9,50.3-33.1c15.5-9.2,91.7-42.9,91.7-42.9
					l162.6-105.2l168.5-95.4l65-29.2l41.4-23.4l23.7,7.8l20.7,5.8l53.2-23.4l35.5-5.8C2754.2,801.2,2757.2,812.9,2712.9,842.1z"/>
			</g>
		</g>
	</g>
	<g class="st0">
		<rect y="1368" class="st5" width="3200" height="1032"/>
		<g>
			<g>
				<path class="st6" d="M1285.7,1398.4c0-96.6,83.1-175,185.5-175c12.9,0,25.6,1.3,37.8,3.7c-0.1-1.2-0.2-2.4-0.2-3.7
					c0-56.8,48.9-102.9,109.1-102.9c3.1,0,6.2,0.2,9.3,0.5c16.9-36.2,55.2-61.4,99.8-61.4c52.6,0,96.4,35.1,106.8,81.7
					c11.7-5.9,24.5-10,38-12.2c5.9-73.2,70.6-131,149.8-131c83.1,0,150.4,63.5,150.4,141.8c0,10.4-1.3,20.5-3.5,30.2
					c12.7-4.9,26.6-7.7,41.2-7.7c21.8,0,42,6.1,59.1,16.5c15.4-57.5,70.5-100.2,136.4-100.2c68.1,0,125,45.7,138,106.3
					c12-4.3,25.1-6.8,38.7-6.8c0-72.6,62.4-131.5,139.5-131.5c73.7,0,133.9,53.9,139,122.2c7.5-2.4,15.4-4.1,23.4-5.2v274.8
					c-0.5,10.2-1.1,20.4-1.6,30.7H1285.7v-58.8h0.7C1286,1406.5,1285.7,1402.5,1285.7,1398.4z"/>
			</g>
			<path class="st7" d="M1781.8,1532c0-86.1,74-155.9,165.3-155.9c11.5,0,22.8,1.1,33.7,3.3c0-1.1-0.2-2.2-0.2-3.3
				c0-50.7,43.5-91.7,97.3-91.7c2.8,0,5.5,0.2,8.3,0.4c15.1-32.2,49.2-54.8,89-54.8c46.9,0,85.9,31.2,95.2,72.8
				c10.4-5.2,21.9-8.9,33.9-10.9c5.3-65.3,63-116.7,133.5-116.7c74,0,134,56.6,134,126.4c0,9.3-1.2,18.2-3.1,26.9
				c11.4-4.4,23.7-6.8,36.7-6.8c19.4,0,37.5,5.4,52.6,14.7c13.8-51.3,62.9-89.3,121.5-89.3c60.7,0,111.4,40.7,123,94.8
				c10.7-3.8,22.3-6,34.5-6c0-64.7,55.6-117.2,124.3-117.2c65.7,0,119.3,48.1,123.9,108.9c6.7-2.1,13.7-3.6,20.9-4.6v245
				c-0.5,9.1-1,18.2-1.4,27.3H1781.8v-52.4h0.6C1782.1,1539.2,1781.8,1535.7,1781.8,1532z"/>
			<path class="st6" d="M1418.2,1455.4c0-86.1-74-155.9-165.3-155.9c-11.5,0-22.8,1.1-33.7,3.3c0-1.1,0.2-2.2,0.2-3.3
				c0-50.7-43.5-91.7-97.3-91.7c-2.8,0-5.5,0.2-8.3,0.4c-15.1-32.2-49.2-54.8-89-54.8c-46.9,0-85.9,31.2-95.2,72.8
				c-10.4-5.2-21.9-8.9-33.9-10.9c-5.3-65.3-63-116.7-133.5-116.7c-74,0-134,56.6-134,126.4c0,9.3,1.2,18.2,3.1,26.9
				c-11.4-4.4-23.7-6.8-36.7-6.8c-19.4,0-37.5,5.4-52.6,14.7c-13.8-51.3-62.9-89.3-121.5-89.3c-60.7,0-111.4,40.7-123,94.8
				c-10.7-3.8-22.3-6-34.5-6c0-64.7-55.6-117.2-124.3-117.2c-65.7,0-119.3,48.1-123.9,108.9c-6.7-2.1-13.7-3.6-20.9-4.6v245
				c0.5,9.1,1,112.2,1.4,121.3h1422.8v-146.4h-0.6C1417.9,1462.7,1418.2,1459.1,1418.2,1455.4z"/>
		</g>
	</g>
	<g class="st0">
		<path class="st8" d="M-61.9,700.4c0,0,238.5,8.9,234-116.3c-4.5-125.2-52.5-118-52.5-118s99-9.6,141-88.9c42-79.3,0-139.3,0-139.3
			s180,24,72-96.1c0,0,99-7.2,102-69.7c0,0,102,97,165,26.9c63-70.1,36-99,36-99s204,127.2,303,0h-1120v700.6L-61.9,700.4z"/>
		<g>
			<polygon class="st9" points="79.9,0.5 91,59.5 211.8,2878.6 -156.5,2878.6 -181.5,0.5 			"/>
			<path class="st10" d="M44.6,6.9c0,0,5.8,605.7,21.6,546.3C82,493.7,88,367.6,90.6,427c2.6,59.5,20.6,650.5-6.4,636
				c-27-14.4-31.9-87.8-39.6,0.3c-7.7,88,48.7,706.4,54.2,655.8c5.6-50.6,31.1-207.4,33-108.3c1.8,99.1,46.8,875.7,26.6,866.7
				c-20.2-9-57.5-53.8-54.6,33.4c2.9,87.3-19.6,367.6-19.6,367.6h127.6L90.6,57.5l-10.7-57h-36L44.6,6.9z"/>
			<path class="st10" d="M59.5,52.3c0,0-60.7,28.2-60.7,72.7c0,44.4,58.4,82.5,82.5,74.1c24.1-8.4-6-128.7-6-128.7L59.5,52.3z"/>
			<path class="st9" d="M52.7,47.7c0,0-109.1,105.4,22.5,149.6c0,0,7.9,9.9,48.4-18c40.5-27.9,168.7-73.9,191.2-74.8V0.5h-31.5
				c0,0,15.8,32.8-29.2,51.7c-45,18.9-110.2,35.1-153,23.4C58.3,64,87.6,37.8,52.7,47.7z"/>
			<path class="st9" d="M107.5,760.4c0,0,32.2,33.6,93.7,13.2c61.5-20.4,91.5-44.4,105-37.2c13.5,7.2,15,75.1,15.8,90.1
				c0.7,15-76.5,26.4-129,61.9c-52.5,35.4-78.7,111.1-78.7,123.7C114.2,1024.6,107.5,760.4,107.5,760.4z"/>
			<path class="st10" d="M-86,0.5c0,0,21,239.1,30,186.3c9-52.9,0-186.3,0-186.3H-86z"/>
			<path class="st10" d="M103.7,1009.6c0,0-17.3-77.5,56.2-122.5c73.5-45,162-60.7,162-60.7s7.5,13.2-69,34.8
				c-76.5,21.6-133.5,102.7-129.7,148.3c3.8,45.6-5.3,24.6-5.3,24.6L103.7,1009.6z"/>
		</g>
	</g>
	<g class="st0">
		<path class="st6" d="M2600.9,511c319.7,0,594.8-79.5,597.7-80.3l-4.1-11.4c-3.1,0.9-310.6,89.7-652.3,78.8
			c-314.2-10-722.5-108.9-883.6-523.3l-12.6,3.9c72.2,185.9,199,325.3,376.9,414.5c142.1,71.2,316.7,110.5,519.1,116.9
			C2561.8,510.7,2581.5,511,2600.9,511z"/>
	</g>
	<path class="st11" d="M1071-26.7l-11,6.8c175.5,230.7,397.3,388.9,659.3,470.2c51.2,15.9,103.9,28.8,158,38.9
		c2.3-4.2,5.2-8.2,8.8-11.8C1602.3,425.3,1307.4,284.1,1071-26.7z"/>
	<path class="st12" d="M3191.6,246.5c-3.5,1.8-351.6,180.6-789.9,235.7c-132.3,16.6-282,22.8-437.5,5.5c-8.2-0.9-62.8-8.1-82-11.3
		c-5.3,3.1-9.6,6.9-12.8,11.1c14.7,2.5,72.8,11.1,84.1,12.4c7,0.8,14.3,1.1,21.3,1.8c57,5.8,115.4,8.6,175.2,8.6
		c82.3,0,167-5.5,254-16.4c230.4-29,434.1-91.9,564.4-139.6c141.2-51.7,229.2-97.1,230.1-97.6L3191.6,246.5z"/>
	<g class="st13">
		<path class="st14" d="M2638.9,603.8c313.4,0,556.5-55.1,559.4-55.8l-3.3-11.6c-3.4,0.8-348.1,78.9-745.5,48.3
			c-365.9-28.2-852.7-156.9-1094.3-610.6l-12.1,5.2c107.9,202.7,272.7,358.7,489.9,463.7c173.5,83.9,380.7,135.6,615.6,153.7
			C2513.9,601.7,2577.8,603.8,2638.9,603.8z"/>
	</g>
	<g class="st0">
		<path class="st8" d="M2395.7,0.1c0,0-13.5,46.3,60.7,55.3c0,0-47.2,86.5,20.2,93.7c67.5,7.2,108-16.2,108-16.2
			s13.5,43.2,47.2,43.2c33.7,0,38.2-18,38.2-18s-2.2,37.8,36,36c0,0-47.3,68.5,27,122.5c74.3,54.1,155.2,0,155.2,0l96.7-164
			L2973.9,0.1H2395.7z"/>
		<path class="st8" d="M2915.9,218.3c0,0-58.7,7.5-41,66c0,0-117.8-2.3-100.7,50.4c17.2,52.8,59.6,73.9,59.6,73.9
			s-44.9,26.3-32.1,51.4c12.8,25,35.3,21.6,35.3,21.6s-44.6,12.6-28.1,40.3c0,0-97-9.2-131.4,66.3c-34.4,75.5,58.7,115.1,58.7,115.1
			l226.1,9.8l172.2-66L2915.9,218.3z"/>
		<g>
			<path class="st10" d="M3382.9,698c-22.5,27.2-9,118.4-27,124.9c-18,6.5-75,27.2-75-56.5c0-83.7,49.5-44.5,64.5-64.1
				c15-19.6-3-84.7-3-84.7s12,78.2-9,78.2c-21,0-70.5,7.6-66,56.5c4.5,48.9,9,102.1,39,101c30-1.1,48-5.4,43.5,21.7
				c-4.5,27.2-10.5,70.6-66,61.9c-55.5-8.7-55.5-8.7-55.5-8.7L3219.2,0h-346l-10.8,2977.8h364.5l-16.5-1957.1c0,0,27-46.7,87-48.9
				c60-2.2,93-61.9,82.5-124.9c-10.5-63-7.5-113,13.5-130.4c21-17.4,10.5-194.5,10.5-194.5S3405.3,670.8,3382.9,698z"/>
			<path class="st9" d="M2995.1,512.2c-11.2-52.1-53.2,289-53.2,315.1c0,26.1-15-157-3-398.2c9.4-188,11-285.9,11.6-429.1h-77.3
				l-10.8,2977.8h45c0,0-9-1671.9,0-1636c9,35.9,24.7,1636,24.7,1636h63c0,0-29.3-1469.8-36-1549.7c-6.8-79.9,29.2-132,22.5-211.9
				c-6.7-79.8-13.5-335.7-13.5-396C2968.1,759.9,3006.4,564.4,2995.1,512.2z"/>
			<path class="st10" d="M2680.9,275.4c24-17.4,39-50,55.6-113.7c16.6-63.7-25.6-108-55.6-125.5c-9.3-5.4-15.9-19.4-20.8-36.3h-19.8
				c0.9,13.4,3.1,26.1,7.5,36.3c18,41.2,69,21.8,69,82.7c0,60.8-15,106.5-42,104.3c-27-2.2-3-86.9-69-152.1
				c-19.6-19.4-32.3-44.9-40.5-71.1H2542c2.1,12.1,5.3,24.3,9.9,36.3c30,78.1,75,43.6,75,178.3c0,134.7,27,286.8,120,282.5
				c93-4.3,187.6,78.2,187.6,78.2l37.4-74.2c0,0-192-45.2-249-67C2665.9,412.3,2656.9,292.8,2680.9,275.4z"/>
			<path class="st9" d="M3043.9,2977.8c0,0,12-1492.1,0-1650.7c-12-158.6-39-141.2-30-247.7c9-106.5,16.8-195.6,16.8-195.6
				s-22.2,186.9,0,258.6c22.2,71.7,58.2,239,49.2,304.2c-9,65.2-15,1531.2-15,1531.2H3043.9z"/>
			<path class="st9" d="M3178.9,2977.8c0,0-30-1546.4-15-1639.8c15-93.4,15-126,15-186.9c0-60.8,31.5-130.4,31.5-130.4l16.5,1957.1
				H3178.9z"/>
			<path class="st9" d="M3213,0c-0.8,14.7-1.6,26.6-2.5,34.7c-8.3,78.3-24.1,193.9-17.9,308c6.2,114.1,7.3,475.9,0.7,541
				c-6.6,65.2,35.1,44.5,35.1,44.5L3219.2,0H3213z"/>
			<g>
				<g>
					<path class="st9" d="M3116.5,0h-22.4c4,94.3-15.9,188.4-17.9,282.6c-0.1,0.5-0.2,0.9-0.2,1.5v13c0,0.9,0.2,1.7,0.5,2.5
						c2.4,46,12.5,91.6,13,137.7c0.1,10.5,22.6,10.5,22.5,0c-0.5-49.9-12.3-99.2-13.4-149C3099.8,192.1,3117.4,96.3,3116.5,0z"/>
				</g>
				<g>
					<path class="st9" d="M3070.6,529.1c-13.9-16.1-20.5-32.7-22.3-51.6c-4.7-51.5,2.6-103.8,1.3-155.4
						c-2.6-104.1-32.6-206.3-50-309.3c-0.7-4.2-1.4-8.5-2.1-12.7H2986c2.1,12.9,4.5,25.7,6.9,38.5c19.6,104.9,45.9,208.7,45.8,314.9
						c0,46.9-9.4,96.8,1.4,143.1c7.7,33.1,44.4,58.8,61.8,89.1c21.3,36.9,23.4,78.9,23.5,118.3c0.1,41.9-2.7,83.9-3.4,125.8
						c-1.4,85.2-10.5,170.3-18.4,255.3c-12-79.8-15-160.2-15.1-240.4c-0.1-43.6-25-84.6-27.8-128c-2.9-45,5.4-90.4,14.1-134.9
						c1-5.1-9.8-7.3-10.8-2.2c-8.2,41.8-15.1,83.8-14.9,126.1c0.2,45.6,24.7,87.8,28,133c3.6,49.5,1.2,99.4,4.7,149
						c3.2,47,9,93.9,18,140.6v0c0.1,0.4,0.1,0.7,0.2,1.1c0.9,4.8,10.7,3.2,11-1.1c8.7-103.5,21.2-206.9,22.4-310.6
						c0.9-79.6,20.4-168.8-26.4-243.7C3097.2,558.1,3083.2,543.8,3070.6,529.1z"/>
				</g>
			</g>
		</g>
	</g>
	<g class="st0">
		<path class="st10" d="M3050.2,2005.4l-1324.7,4.1l9.8,321.1c0.4,0,0.8-0.1,1.3-0.1h1313.7V2005.4z"/>
		<path class="st10" d="M3050.2,2159.2l-1324.7,2.2l9.8,169.2c0.4,0,0.8,0,1.3,0h1313.7V2159.2z"/>
		<path class="st9" d="M1736.5,2330.5h2.9l56.2-69l-11.7-203.3l-58.4-48.8l-42.8,66.3l10,197.4l39.5,57.6
			C1733.6,2330.6,1735,2330.5,1736.5,2330.5z"/>
		<polygon class="st10" points="1726.2,2293.2 1725,2291.9 1777.9,2218.3 1767.1,2079.1 1725.9,2057.6 1703.2,2106.6 1711.7,2239.6 
			1756.6,2205.5 1734.4,2100.7 1721.2,2115.8 1734.2,2189.3 1732.7,2189.8 1719.4,2115.2 1735.2,2097 1758.5,2206.5 1710.3,2243 
			1710.2,2241.4 1701.6,2106.1 1701.7,2105.8 1725.3,2055.1 1768.6,2077.7 1768.7,2078.3 1779.5,2219 		"/>
		<path class="st9" d="M3050.2,2312.2c-14.2-1.4-29.1-3.8-44.7-7.1c-93.6-19.7-201.7-70.1-297.1-114.6
			c-65.3-30.4-126.9-59.2-177.1-75.1c-176.6-56.2-368.1,59.6-494.9,136.3c-16.2,9.8-31.5,19.1-45.7,27.3
			c-125.2,72.9-209.7,3.4-210.5,2.7l-1.3,2.3c0.9,0.7,86.4,71.1,212.8-2.5c14.2-8.3,29.5-17.5,45.7-27.3
			c126.4-76.5,317.5-192.1,493.3-136.1c50,15.9,111.6,44.7,176.9,75.1c95.5,44.5,203.6,94.9,297.5,114.7c15.8,3.3,30.8,5.7,45.1,7.1
			V2312.2z"/>
		<path class="st9" d="M2000.6,2330.5c92.8-19.5,174.5-66.8,247.5-109c78.1-45.2,145.6-84.3,211.7-84.3
			c103.8,0,337.7,131,443.1,193.3h5.3c-103.3-61.2-342.7-196.1-448.4-196.1c-66.6,0-134.3,39.2-212.6,84.5
			c-76.6,44.4-163,94.3-261.5,111.6H2000.6z"/>
		<path class="st9" d="M2175.5,2330.5c14.3-8.5,35.8-24.2,61.1-42.7c69.2-50.5,163.9-119.7,219.6-123.5
			c74.2-5.1,316.3,134.7,369.9,166.2h5.3c-43.1-25.5-298.4-174.5-375.4-169.1c-56.2,3.9-151.2,73.3-220.6,123.9
			c-28.2,20.6-51.6,37.7-65.4,45.2H2175.5z"/>
		<path class="st9" d="M3050.2,2252.6c-36-2.3-77-10.1-122.3-23.4c-93.5-27.5-198.4-76.8-295.4-138.7
			c-78.5-50.1-168.2-65.7-266.4-46.1c-85.6,17-177.3,61.5-265.1,128.6c-85,64.9-164.9,69.5-217,61.8c-56.5-8.3-93.3-32.2-93.7-32.4
			l-1.1,2.5c0.4,0.3,37.5,24.4,94.4,32.7c52.5,7.7,133,3.1,218.6-62.2c190.5-145.5,383.4-175.6,529.3-82.4
			c97.2,62,202.3,111.4,296,139c45.4,13.4,86.6,21.2,122.8,23.5V2252.6z"/>
		<path class="st9" d="M3050.2,2218.5c-67.1,5.3-147-19.5-231.9-73.2c-162.6-102.8-283.1-137.4-284.3-137.7l-0.5,2.8
			c1.2,0.3,121.4,34.8,283.8,137.4c77.8,49.2,151.3,74.3,214.9,74.3c6.1,0,12.1-0.3,18-0.8V2218.5z"/>
		<path class="st9" d="M3050.2,2149.7c-9.5,0.9-19.5,1-29.9,0.3c-80.2-5.5-167.2-48.8-243.9-87c-60.9-30.3-113.6-56.5-149.3-56.8
			l0,2.8c35.3,0.3,87.7,26.4,148.4,56.6c76.9,38.3,164.1,81.6,244.6,87.2c4.5,0.3,8.9,0.5,13.3,0.5c5.7,0,11.3-0.3,16.7-0.8V2149.7z
			"/>
		<path class="st9" d="M1948.1,2174.5c-24.1,0-46.8-3.8-66-8.7c-53.2-13.6-92.5-38.4-92.9-38.7l1.1-2.5c1.5,1,156.5,98.1,272.6,10
			c124-94.1,226-136.1,311.9-128.4l-0.2,2.8c-85.4-7.7-187,34.2-310.5,128C2026.7,2165.3,1985.6,2174.5,1948.1,2174.5z"/>
		<path class="st9" d="M1944.4,2094.6c-11.7,0-22.8-0.5-33.2-1.5c-75.1-6.6-127.3-33.2-127.8-33.5l0.9-2.6
			c0.5,0.3,52.4,26.7,127.2,33.3c69,6.1,172.1-4.1,271.6-86.7l1.3,2.4C2099.2,2076.7,2011.4,2094.6,1944.4,2094.6z"/>
		<path class="st9" d="M2240.9,2330.5c35.3-22.6,158.9-99.6,223.4-108.4c62.8-8.6,207.6,78.6,255,108.4h5
			c-42.7-27.1-195-120.2-260.3-111.2c-67.6,9.3-199.2,92.5-228.2,111.2H2240.9z"/>
		<path class="st9" d="M2311.3,2330.5c26.6-12.8,91.5-40.7,151.4-39.9c59.5,0.8,129.3,27.4,158.8,39.9h7
			c-24.7-10.8-101.3-41.8-165.8-42.7c-0.9,0-1.8,0-2.7,0c-64.1,0-133.1,31.8-155,42.8H2311.3z"/>
	</g>
	<g class="st0">
		<g>
			<g>
				<path class="st15" d="M-213.9,1496.9c7,32.9,18.9,58.4,26.6,57c7.7-1.4,8.3-29.1,1.3-62c-7-32.9-18.9-58.4-26.6-57
					C-220.3,1436.3-220.9,1464.1-213.9,1496.9z"/>
			</g>
			<g>
				<g>
					<g>
						<path class="st16" d="M106.3,2063.3c39.9-77.2,55.3-157.4,49.2-235.8c-6-78.5-33-153.6-69.4-224.6c-0.9-1.7,2.9-2.6,3.8-1
							c36.6,71.3,63,146.5,69.5,225.3c6.4,78.5-9.5,159.3-49.4,236.6C109.1,2065.6,105.4,2065.1,106.3,2063.3z"/>
					</g>
					<g>
						<path class="st16" d="M41.9,1570.4c5.6,0.4,30.4,15.2,42,25.1c-3.7-13.3-5.1-38.2-2.4-42.1c6.4-9.2,15,8.3,16,12.4
							c2.1,8.4,2,17.6-1.1,26.3c-1.2,3.3-2.8,6.6-4.9,9.7c-0.7,1.1-1.5,1.7-2.2,1.9c-0.6,0.4-1.6,0.5-3.2,0.4
							c-4.4-0.4-8.7-1.1-12.7-2.2c-10.8-2.8-20.2-7.9-27.7-14C42,1585,28.8,1569.5,41.9,1570.4z"/>
					</g>
					<g>
						<path class="st16" d="M25.2,1613.8c2.8-10.8,72,10.2,75.9,18.7c0,0,2.2,4.8,2.2,4.8C68.1,1640.5,22,1626.1,25.2,1613.8z"/>
					</g>
					<g>
						<path class="st16" d="M34.2,1658c-0.2-10.7,75.2-1.4,81.5,6.1l3.5,4.2C84.7,1676.9,34.5,1670.3,34.2,1658z"/>
					</g>
					<g>
						<path class="st16" d="M44.4,1701.3c-2.6-10.3,75.4-10.4,83.4-3.9c0,0,4.5,3.6,4.5,3.6C99.5,1713.4,47.4,1713.1,44.4,1701.3z"
							/>
					</g>
					<g>
						<path class="st16" d="M58.2,1740.2c-1.5-10.5,75.6-6.3,82.8,0.6c0,0,4,3.9,4,3.9C111.4,1755.4,60,1752.3,58.2,1740.2z"/>
					</g>
					<g>
						<path class="st16" d="M150.2,1576.8c-9.6-7.2-50.7,45.8-48,54.7c0,0,1.5,4.9,1.5,4.9C134.2,1620.7,161.3,1585.1,150.2,1576.8z
							"/>
					</g>
					<g>
						<path class="st16" d="M179.1,1615.5c-7.1-8.7-61.2,38.2-61.1,47.5c0,0,0.1,5.2,0.1,5.2
							C151.5,1657.1,187.3,1625.5,179.1,1615.5z"/>
					</g>
					<g>
						<path class="st16" d="M199.1,1657.3c-5-9.6-67.5,31.1-69.5,40.5c0,0-1.1,5.2-1.1,5.2C163.3,1695.9,204.8,1668.4,199.1,1657.3z
							"/>
					</g>
					<g>
						<path class="st16" d="M210.9,1696.7c-6-9.2-64.8,34.4-65.9,43.8c0,0-0.6,5.2-0.6,5.2C178.7,1736.7,217.8,1707.3,210.9,1696.7z
							"/>
					</g>
					<g>
						<g>
							<path class="st16" d="M67.8,1782.3c-0.9-10.6,75.4-3.9,82.2,3.3c0,0,3.8,4,3.8,4C119.7,1799.3,68.8,1794.5,67.8,1782.3z"/>
						</g>
						<g>
							<path class="st16" d="M218.7,1738.9c7.5,10.3-29.9,40.8-63.8,50.9c0,0,0.3-5.2,0.3-5.2
								C155.6,1775.2,212.1,1729.9,218.7,1738.9z"/>
						</g>
					</g>
					<g>
						<g>
							<path class="st16" d="M67.8,1782.3c-0.9-10.6,75.5-3.9,82.2,3.3c0,0,3.8,4,3.8,4C119.7,1799.3,68.8,1794.5,67.8,1782.3z"/>
						</g>
						<g>
							<path class="st16" d="M218.6,1738.9c7.5,10.3-29.9,40.8-63.8,50.9l0.3-5.2C155.5,1775.2,212.1,1729.9,218.6,1738.9z"/>
						</g>
					</g>
					<g>
						<g>
							<path class="st16" d="M75,1815.1c1.4-10.8,73.9,4.8,78.9,12.9c0,0,2.8,4.5,2.8,4.5C121.7,1838.3,73.4,1827.5,75,1815.1z"/>
						</g>
						<g>
							<path class="st16" d="M230.3,1788.9c5.1,11.3-37.6,37.6-72.6,43.8c0,0,1.3-5.2,1.3-5.2
								C161.5,1818.2,225.8,1779.1,230.3,1788.9z"/>
						</g>
					</g>
					<g>
						<g>
							<path class="st16" d="M76.3,1860.5c1.2-10.8,74.1,4.3,79.2,12.3c0,0,2.9,4.5,2.9,4.5C123.4,1883.3,74.9,1872.9,76.3,1860.5z"
								/>
						</g>
						<g>
							<path class="st16" d="M231.4,1833.2c5.3,11.2-37.1,37.9-72.1,44.3c0,0,1.3-5.2,1.3-5.2C163,1862.9,226.8,1823.4,231.4,1833.2
								z"/>
						</g>
					</g>
					<g>
						<g>
							<path class="st16" d="M75.8,1899.7c2.3-10.8,72.8,8.3,77.1,16.7c0,0,2.4,4.7,2.4,4.7C120.1,1925.2,73.2,1912.1,75.8,1899.7z"
								/>
						</g>
						<g>
							<path class="st16" d="M231.8,1880.7c4.1,11.6-40.4,36.1-75.6,40.7c0,0,1.8-5.2,1.8-5.2
								C161.2,1906.9,228.2,1870.6,231.8,1880.7z"/>
						</g>
					</g>
					<g>
						<g>
							<path class="st16" d="M70,1938.1c3.4-10.8,71,12.4,74.4,21.1c0,0,1.9,4.8,1.9,4.8C111.1,1966.3,66.1,1950.4,70,1938.1z"/>
						</g>
						<g>
							<path class="st16" d="M226,1927.7c2.9,11.9-43.6,34.1-78.8,36.7c0,0,2.3-5.1,2.3-5.1C153.6,1950.1,223.5,1917.3,226,1927.7z"
								/>
						</g>
					</g>
				</g>
			</g>
			<g>
				<g>
					<g>
						<path class="st16" d="M31.4,2357.4c-82.7-16-159.8-50-228.1-97.3c-68.3-47.4-126.5-106.9-177.8-170.3c-1.2-1.5-3.3,0.5-2.2,2
							c51.5,63.8,110,123,178.5,170.8c68.2,47.6,146,81.6,228.8,97.6C32.5,2360.6,33.3,2357.8,31.4,2357.4z"/>
					</g>
					<g>
						<path class="st16" d="M-388.6,2042.2c-1.5,3.9,3.4,28.7,8.3,41.9c-10.7-9.8-32.5-24.5-36.9-24.8c-10.4-0.8,2.3,14.5,5.7,17.5
							c6.9,6.1,15,11,24,13.8c3.4,1,6.8,1.8,10.4,2.1c1.3,0.1,2.1,0,2.5-0.4c0.5-0.2,1-0.8,1.4-1.9c1.2-3.2,1.9-6.4,2.4-9.7
							c1.1-8.8-0.2-17.8-3.2-26.2C-375.6,2050.4-385,2033-388.6,2042.2z"/>
					</g>
					<g>
						<path class="st16" d="M-344.1,2055.1c-10.6-4.1-15.3,53.7-9,61c0,0,3.5,4.1,3.5,4.1C-334.6,2098.5-331.9,2059.8-344.1,2055.1z
							"/>
					</g>
					<g>
						<path class="st16" d="M-307.4,2085.5c-9.5-6.1-26.7,49.4-22.1,57.8c0,0,2.6,4.6,2.6,4.6
							C-307.6,2129.7-296.5,2092.5-307.4,2085.5z"/>
					</g>
					<g>
						<path class="st16" d="M-272.1,2116.2c-8.4-7.4-34.9,44.6-31.8,53.5l1.7,5C-279.9,2159.7-262.5,2124.8-272.1,2116.2z"/>
					</g>
					<g>
						<path class="st16" d="M-241.9,2146.9c-8.9-6.9-31.3,46.9-27.5,55.6c0,0,2.1,4.8,2.1,4.8
							C-246.3,2190.9-231.7,2154.8-241.9,2146.9z"/>
					</g>
					<g>
						<path class="st16" d="M-419.5,2118.1c-3.2-10.4,58.2-8.6,65.3-1.9l3.9,3.7C-374.8,2131.7-415.9,2130.1-419.5,2118.1z"/>
					</g>
					<g>
						<path class="st16" d="M-394.6,2158.7c-5.4-9.6,55-19.7,63.2-14.5c0,0,4.6,2.9,4.6,2.9C-348,2163.3-388.4,2169.7-394.6,2158.7z
							"/>
					</g>
					<g>
						<path class="st16" d="M-363.9,2195.2c-6.9-8.7,50.7-27.9,59.8-24l5.1,2.2C-317.2,2192.6-355.9,2205.1-363.9,2195.2z"/>
					</g>
					<g>
						<path class="st16" d="M-332.6,2224.8c-6.3-9.1,52.8-24.3,61.5-19.8c0,0,4.9,2.5,4.9,2.5
							C-285.8,2225.5-325.4,2235.3-332.6,2224.8z"/>
					</g>
					<g>
						<g>
							<path class="st16" d="M-207.5,2176.6c-9.2-6.5-29.1,48.2-24.9,56.7l2.3,4.8C-209.8,2220.7-196.9,2184-207.5,2176.6z"/>
						</g>
						<g>
							<path class="st16" d="M-297.4,2253.3c6.7,10.7,46.7,2.6,67.2-14.5c0,0-4.8-2.7-4.8-2.7
								C-243.5,2231.3-303.2,2244-297.4,2253.3z"/>
						</g>
					</g>
					<g>
						<g>
							<path class="st16" d="M-207.4,2176.5c-9.2-6.5-29.1,48.2-24.9,56.7c0,0,2.3,4.8,2.3,4.8
								C-209.7,2220.6-196.9,2184-207.4,2176.5z"/>
						</g>
						<g>
							<path class="st16" d="M-297.4,2253.3c6.7,10.7,46.7,2.6,67.2-14.5c0,0-4.8-2.7-4.8-2.7
								C-243.5,2231.2-303.2,2244-297.4,2253.3z"/>
						</g>
					</g>
					<g>
						<g>
							<path class="st16" d="M-180.5,2199.5c-10.2-5.1-20.7,52-15.2,59.8l3.1,4.4C-175.5,2243.5-168.8,2205.3-180.5,2199.5z"/>
						</g>
						<g>
							<path class="st16" d="M-256.5,2288.7c8.4,9.6,46.5-4.3,63.9-24.3l-5.1-2C-207,2258.9-263.8,2280.3-256.5,2288.7z"/>
						</g>
					</g>
					<g>
						<g>
							<path class="st16" d="M-140.2,2225.4c-10.1-5.2-21.3,51.8-15.8,59.6c0,0,3,4.4,3,4.4
								C-135.7,2269.5-128.6,2231.4-140.2,2225.4z"/>
						</g>
						<g>
							<path class="st16" d="M-217.2,2313.9c8.3,9.7,46.5-3.9,64.1-23.6c0,0-5.1-2-5.1-2C-167.4,2284.6-224.4,2305.5-217.2,2313.9z"
								/>
						</g>
					</g>
					<g>
						<g>
							<path class="st16" d="M-104.9,2246.8c-10.5-4.5-17.2,53.2-11.1,60.6c0,0,3.4,4.2,3.4,4.2
								C-97,2290.4-92.9,2251.9-104.9,2246.8z"/>
						</g>
						<g>
							<path class="st16" d="M-174.8,2340.4c9,9.1,46-7.1,62.1-28c0,0-5.3-1.7-5.3-1.7C-127.4,2307.7-182.6,2332.4-174.8,2340.4z"/>
						</g>
					</g>
					<g>
						<g>
							<path class="st16" d="M-68.5,2264.1c-10.8-3.7-12.9,54.3-6.3,61.3l3.7,3.9C-57.2,2307.1-56.1,2268.3-68.5,2264.1z"/>
						</g>
						<g>
							<path class="st16" d="M-130.7,2362.5c9.7,8.5,45.3-10.3,59.6-32.3c0,0-5.4-1.3-5.4-1.3C-86,2326.5-139.1,2355.1-130.7,2362.5
								z"/>
						</g>
					</g>
				</g>
			</g>
			<g>
				<defs>
					<path id="SVGID_3_" d="M24.3,2293.5c-23.3-27.3-43.2-86.1-47.3-98.1c-34.4-100.1-43.4-206.5-48.5-310.6
						c-2.4-49.7,4.9-357.4,100.1-340.4c57.5,10.3,31.2,169.2,31.4,204.5c0.8,140.9,1.6,285.7,18.5,425.9
						c3.9,32.1,6.1,99.3-16.8,124.9C49.4,2313.4,36.4,2307.7,24.3,2293.5z"/>
				</defs>
				<clipPath id="SVGID_4_">
					<use xlink:href="#SVGID_3_"  style="overflow:visible;"/>
				</clipPath>
				<path class="st17" d="M24.3,2293.5c-23.3-27.3-43.2-86.1-47.3-98.1c-34.4-100.1-43.4-206.5-48.5-310.6
					c-2.4-49.7,4.9-357.4,100.1-340.4c57.5,10.3,31.2,169.2,31.4,204.5c0.8,140.9,1.6,285.7,18.5,425.9
					c3.9,32.1,6.1,99.3-16.8,124.9C49.4,2313.4,36.4,2307.7,24.3,2293.5z"/>
				<path class="st18" d="M99.2,1598.6c-28.3,12.7-57.8,22.8-85.9,36c1.4-11.4,3-22.7,4.7-34.1c0.9-0.8,1.3-2,0.8-3.4
					c-0.1-0.2-0.1-0.4-0.2-0.6c0.1-0.6,0.2-1.1,0.2-1.7c9.2-16.2,31.8-24.7,46.7-35.1c4.1-2.8,0.1-9.4-4.1-6.5
					c-12.6,8.7-28.6,16-40.2,26.7c4.9-29.6,10.8-59.1,17.7-88.4c1.1-4.7-6.6-6.8-7.7-2.1c-7.3,31-13.4,62.3-18.5,93.7
					c-7.9-15-19.5-28.8-29.3-42.2c-2.9-4-9.8-0.3-6.9,3.7c11.5,15.8,26.2,32.5,33.2,50.8c-0.1,0.2-0.2,0.5-0.3,0.7
					c-0.6,1.4-0.2,2.6,0.6,3.4c-1.3,8.7-2.5,17.5-3.7,26.2c-13.6-21.2-36.4-35.5-51.7-55.8c-3-3.9-9.9-0.3-6.9,3.7
					c17.1,22.7,45.3,38.2,56.6,64.7c0.1,0.2,0.2,0.3,0.3,0.5c0,0.1,0,0.3,0,0.4c-0.7,0.9-0.7,2-0.4,3c-1.5,12.4-2.8,24.8-4,37.2
					c-12.4-20.9-31.4-38.2-47.5-56.7c-3.3-3.8-8.9,1.6-5.6,5.3c18.2,20.9,40.9,40.5,51.8,65.9c-1.8,20.6-3.2,41.2-4.1,61.9
					c-24.8-24.4-46.5-51.4-70-76.9c-3.4-3.7-9,1.6-5.6,5.3c25.2,27.3,48.2,56.2,75.2,81.9c-0.8,19.8-1.2,39.6-1.3,59.4
					c-28.6-24.2-51-54.3-79.2-78.9c-3.8-3.3-9.4,2-5.6,5.3c30.1,26.2,53.5,58.6,84.9,83.5c0,17.2,0.3,34.4,0.9,51.6
					c-8.2-10.5-20.6-19.6-29-26.5c-19.7-16.1-41.2-30-61.8-45c-4-3-9.7,2.3-5.6,5.3c18,13.2,36.7,25.5,54.3,39.2
					c9.6,7.4,18.8,15.1,27.3,23.5c6.3,6.2,15.3,15,15.3,24.1c0,0.5,0.1,0.9,0.2,1.2c0.8,18.6,1.9,37.1,3.3,55.7
					c-4.3-4.4-10.1-11.7-11.8-13.2c-6.7-6.2-14.1-11.9-21.5-17.3c-15.6-11.4-31.8-21.8-47.6-32.9c-4.2-2.9-8.1,3.6-4,6.5
					c18,12.6,36.5,24.4,53.9,37.7c8.1,6.2,15.6,12.9,22.6,20.1c2,2.1,4.2,5.3,6.9,7.6c0.4,0.7,1.1,1.3,2.2,1.6
					c1.2,15.4,2.7,30.7,4.3,46.1c-34.4-19.4-64.8-45.1-93.5-71.4c-3.7-3.4-9.3,1.9-5.6,5.3c30.5,28,63,55.4,100.1,75.4
					c1.8,16.1,3.7,32.2,5.9,48.3c-23.8-21.6-54.9-34.6-81.9-52.2c-4.3-2.8-8.2,3.7-4,6.5c29.3,19.1,63.6,32.6,87.6,58.2
					c2.5,17.5,5.1,35,8,52.4c-28.6-13.6-55.9-29.5-83.5-44.9c-4.5-2.5-8.4,4-4,6.5c29.3,16.4,58.3,33.4,89,47.5c0,0,0,0,0,0
					c2.8,16.4,5.8,32.9,9,49.2c-28.7-7.7-53.9-25.5-79.8-39c-4.5-2.4-8.5,4.1-4,6.5c27.1,14.2,53.4,32.7,83.6,40.3
					c0.6,0.2,1.2,0.2,1.7,0.1c3,15.4,6.2,30.7,9.6,46c-0.6-0.4-1.2-0.7-2.1-0.8c-27.6-3.3-52.5-16.3-77.9-26.4
					c-4.8-1.9-6.8,5.4-2.1,7.2c26.2,10.4,51.4,23.2,79.9,26.6c1.6,0.2,2.7-0.4,3.3-1.3c6.7,30.1,13.9,60.1,21.7,89.9
					c0.4,1.4,0.7,2.8,1.1,4.2c1.2,4.7,8.9,2.9,7.7-1.9c-8.1-30.6-15.5-61.3-22.3-92.3c0.7-0.1,1.4-0.4,2-0.9
					c16.3-13.6,35.8-22.5,54-33.4c4.3-2.6,0.3-9.1-4.1-6.5c-18.1,10.8-37.3,19.9-53.6,33.1c-3-13.9-6-27.8-8.7-41.8
					c24-7.6,43.6-25,65.4-36.5c4.5-2.4,0.4-8.9-4.1-6.5c-20.9,11.1-39.9,28-62.9,35.6c-3.3-17.1-6.5-34.3-9.4-51.6
					c22.6-19.4,51.3-30.1,78.3-43c4.6-2.2,0.5-8.7-4.1-6.5c-26,12.5-53.2,23-75.7,40.7c-2.7-16.4-5.3-32.9-7.7-49.4
					c22.1-8.3,42.7-19.3,63.6-29.8c4.5-2.3,0.5-8.8-4.1-6.6c-20,10-39.7,20.6-60.6,28.6c-2.4-17.4-4.6-34.8-6.6-52.2
					c27.9-16.6,57.9-29.3,87.6-42.7c4.6-2.1,0.5-8.6-4.1-6.6c-28.5,12.9-57.4,25.2-84.4,40.9c-1.6-14.9-3-29.8-4.3-44.7
					c25.8-15.2,54.7-24.7,82.8-35.3c4.7-1.8,2.7-9.1-2.1-7.3c-27.6,10.4-55.9,19.6-81.5,34.1c-1.6-19.7-2.8-39.5-3.8-59.3
					c31-14.1,62.2-28,93.3-42c4.6-2.1,0.6-8.6-4.1-6.5c-29.9,13.4-59.8,26.7-89.7,40.3c-0.9-20.9-1.4-41.9-1.5-62.8
					c40.2-11.1,74-35.4,113-49.3c4.7-1.7,2.7-9-2.1-7.3c-37.8,13.4-71,36.7-109.6,48.2c-0.2-0.5-0.6-1-1.1-1.4
					c-0.1-0.1-0.2-0.1-0.3-0.2c0-20.2,0.3-40.3,1.1-60.5c0.4-0.1,0.9-0.2,1.3-0.4c34-18.2,70.5-31.4,106.1-46.4c4.7-2,0.6-8.5-4-6.6
					c-34.6,14.6-70,27.5-103.1,44.9c0.8-19.7,2-39.3,3.6-58.9c2-0.2,3.8-1.6,3.6-3.7c27.7-15.5,58.6-24.6,88.2-36.6
					c4.7-1.9,0.6-8.4-4.1-6.5c-29,11.7-59.3,20.8-86.7,35.7c0-0.1-0.1-0.1-0.1-0.2c1.4-16.4,3.1-32.8,5.1-49.1
					c29.6-14.4,61-24.9,91.1-38.4C107.8,1603.1,103.7,1596.6,99.2,1598.6z"/>
			</g>
			<g>
				<defs>
					<path id="SVGID_5_" d="M167.5,1966.6c3.6-51.9,10.8-142.9-30.6-186.6c-31.2-32.8-75.8-9.6-92.4,22.6
						c-62.9,122.7-35.5,257.7-22.7,388.6c2.7,27,5.9,54.1,10.2,80.9c3.5,21.7,3.8,62.9,17.5,81.2c44.4,59.3,80-84.1,84.6-104.5
						C155.3,2157,161,2060.5,167.5,1966.6z"/>
				</defs>
				<clipPath id="SVGID_6_">
					<use xlink:href="#SVGID_5_"  style="overflow:visible;"/>
				</clipPath>
				<path class="st19" d="M167.5,1966.6c3.6-51.9,10.8-142.9-30.6-186.6c-31.2-32.8-75.8-9.6-92.4,22.6
					c-62.9,122.7-35.5,257.7-22.7,388.6c2.7,27,5.9,54.1,10.2,80.9c3.5,21.7,3.8,62.9,17.5,81.2c44.4,59.3,80-84.1,84.6-104.5
					C155.3,2157,161,2060.5,167.5,1966.6z"/>
				<path class="st20" d="M-20.9,2062.8c29.6,36.9,70.3,64.3,99.3,101.6c0.7-16.9,1.4-33.8,2-50.7c-0.5-0.2-1-0.7-1.3-1.3
					c-20.3-35.8-56.8-59.8-84.3-90.2c-2.5-2.8,2.2-6.2,4.7-3.5c26.3,29,60.2,52.2,81.2,85.1c0.5-16,1-31.9,1.4-47.9
					c-0.5-0.3-0.9-0.7-1.2-1.2c-8.9-17-24.8-30.8-36.8-45.8c-13.6-17-26-34.9-39.5-52c-2.3-2.9,2.3-6.4,4.7-3.5
					c13.5,17.1,26,34.8,39.5,51.9c10.6,13.5,24.2,25.8,33.6,40.2c0.4-17.1,0.8-34.2,1.2-51.2c-0.5-0.3-1-0.7-1.3-1.2
					c-17.3-31.1-45.1-55.3-65.9-84.2c-2.2-3,2.5-6.5,4.7-3.5c19.5,27.2,45.1,50.3,62.7,78.7c0.3-15.4,0.6-30.9,0.9-46.4
					c-0.6-0.2-1.2-0.7-1.5-1.5c-12.8-28.7-37.6-51.5-55.7-77.3c-2.1-3,2.5-6.5,4.7-3.5c16.6,23.6,38.6,44.8,52.3,70.2
					c0.2-0.2,0.3-0.5,0.5-0.7c0.2-10.9,0.4-21.7,0.5-32.6c-14.5-30.5-38.4-56-59.1-82.9c-2.3-3,2.4-6.4,4.7-3.5
					c18.7,24.2,39.8,47.3,54.6,73.9c0.1-6.6,0.2-13.2,0.3-19.9c-0.1-0.4-0.1-0.8,0-1.3c0.1-3.7,0.1-7.5,0.2-11.2
					c-9.8-21.3-26.2-39-38.7-58.9c-2-3.2,3.5-5.3,5.5-2.2c10.5,16.7,23.7,31.7,33.5,48.8c0.4-20.1,0.8-40.2,1.2-60.3
					c0.1-2.5,0.1-5,0.2-7.5c0.1-3.6,6-2.9,5.9,0.7c-0.6,25.2-1.1,50.5-1.5,75.8c12.3-26.1,30.1-49.6,46-73.8c2-3.1,6.8,0.4,4.8,3.5
					c-18.4,27.9-39.4,55-51.1,86.3c-0.2,10.4-0.4,20.9-0.5,31.3c0.1,0.2,0.2,0.3,0.2,0.5c0.5,1.1,0.3,2-0.3,2.7
					c-0.1,7.1-0.3,14.3-0.4,21.4c25.3-38,50.7-76.1,80.3-111.3c2.4-2.8,7.2,0.6,4.8,3.5c-31.6,37.5-58.3,78.3-85.3,118.8
					c-0.3,17.3-0.6,34.6-0.9,51.9c30.4-50.9,67.4-98,104.1-144.9c2.3-2.9,7.1,0.5,4.8,3.4c-38.5,49.2-77.4,98.4-108.5,152.3
					c-0.2,0.3-0.4,0.6-0.7,0.8c-0.4,19.6-0.8,39.2-1.3,58.8c2-1.7,4.1-3.3,5.5-4.6c10.8-9.8,21.1-20.2,31.4-30.4
					c22.3-22.1,44.1-44.6,66.2-66.8c2.6-2.6,7.4,0.8,4.8,3.5c-19.5,19.6-38.7,39.3-58.3,58.9c-9.7,9.7-19.6,19.4-29.5,29
					c-3.6,3.5-7.3,7-11,10.4c-1.5,1.4-3,2.7-4.5,4.1c-2.6,2.4-2.2,3.8-4.9,2.2l0,0c2,1.2,1.4,3.3-0.1,4.3
					c-0.4,15.1-0.8,30.3-1.3,45.4c35.6-31.1,71.9-61.4,107.5-92.5c2.8-2.5,6.5,2,3.7,4.5c-36.9,32.3-74.6,63.7-111.5,96
					c-0.6,17.7-1.3,35.3-2,53c2.7-2.6,5.4-5.4,8-7.8c10.6-9.3,21.1-18.7,31.4-28.3c21.3-19.6,41.6-40.2,60.2-62.1
					c2.4-2.8,7.2,0.6,4.8,3.4c-17.4,20.6-36.4,39.8-56.2,58.3c-10.2,9.6-20.7,19-31.2,28.3c-5.8,5.1-11.3,11.3-17.5,16.2
					c-0.7,15.9-1.5,31.8-2.4,47.7c3.7-4.1,7-9,10.2-12.5c9.6-10.3,19.7-20.2,29.8-30c20.2-19.5,40.8-38.7,59.2-59.7
					c2.4-2.8,7.2,0.7,4.8,3.4c-18.5,21-39,40.2-59.2,59.7c-10.2,9.8-20.2,19.8-29.8,30.1c-4.9,5.2-9.6,13-15.5,17.6
					c-1.2,19.6-2.4,39.1-3.9,58.6c6.6-5.5,12-11.9,17.6-18.3c8.4-9.6,17.6-18.7,26.7-27.7c18-17.8,37.1-34.7,56.3-51.3
					c2.8-2.5,6.5,2,3.7,4.5c-19.7,17.1-39.2,34.5-57.8,52.8c-9,8.9-17.8,18-26.1,27.5c-6.5,7.4-12.8,14.7-21,20.4
					c-1.1,14.2-2.3,28.3-3.6,42.4c5.6-3,11-8.7,15.1-12.3c7.1-6.1,13.8-12.6,20.6-19.1c12.7-12.2,25.5-24.2,40.1-34.3
					c3.1-2.1,6.8,2.3,3.7,4.5c-16.2,11.2-30.1,24.8-44.2,38.3c-6.9,6.6-13.9,13.1-21.3,19.2c-4.3,3.6-9.2,7.9-14.6,10.1
					c-5.2,55.8-12.1,111.4-21.2,166.9c-0.4,2.4-0.8,4.9-1.2,7.3c-0.6,3.6-6.6,2.9-5.9-0.7c9.7-57.9,16.9-116,22.3-174.3
					c-0.1-0.4-0.2-0.9-0.1-1.3c-0.5,0-1.1-0.2-1.6-0.7c-22.1-18.9-45.1-37-66.7-56.4c-2.8-2.5,0.8-7,3.6-4.5
					c21.2,19.1,43.8,36.9,65.5,55.4c1.1-12,2.1-23.9,3.1-35.9c-23.3-29.1-54.5-50.7-81.6-76.4c-2.7-2.6,2-6,4.7-3.5
					c25.5,24.3,54.8,44.8,77.5,71.5c1.5-19,2.7-37.9,3.9-56.9c-0.1-0.1-0.2-0.3-0.3-0.5c-19.9-32-52.9-54.1-78.3-81.9
					c-2.5-2.8,2.1-6.2,4.7-3.5c23.9,26.2,54.1,47.3,74.5,76.3c1-17.2,1.9-34.4,2.7-51.6c0,0-0.1-0.1-0.1-0.1c0,0-0.1-0.1-0.1-0.1
					c-0.7-0.9-0.7-1.9-0.4-2.8c-29.2-39.7-72.1-67.8-102.9-106.3C-27.9,2063.3-23.2,2059.9-20.9,2062.8z"/>
			</g>
			<g>
				<defs>
					<path id="SVGID_7_" d="M-175.7,2029.7c-23.6-43.4-64.1-120-119.2-136.2c-41.3-12.2-64.9,26.7-61.5,60.2
						c12.7,127.3,103,223.5,179.8,323.1c15.9,20.6,32.2,40.8,49.2,60.5c13.8,15.9,35,48.9,55.2,57.4c65.3,27.5,20.4-104,13.8-122.6
						C-88.4,2188.6-133,2108.2-175.7,2029.7z"/>
				</defs>
				<clipPath id="SVGID_8_">
					<use xlink:href="#SVGID_7_"  style="overflow:visible;"/>
				</clipPath>
				<path class="st21" d="M-175.7,2029.7c-23.6-43.4-64.1-120-119.2-136.2c-41.3-12.2-64.9,26.7-61.5,60.2
					c12.7,127.3,103,223.5,179.8,323.1c15.9,20.6,32.2,40.8,49.2,60.5c13.8,15.9,35,48.9,55.2,57.4c65.3,27.5,20.4-104,13.8-122.6
					C-88.4,2188.6-133,2108.2-175.7,2029.7z"/>
				<path class="st22" d="M-275.7,2192.7c42.2,16.3,88.3,19.8,130.2,36.7c-8-13.9-16.1-27.8-24.2-41.7c-0.5,0-1.1-0.1-1.7-0.4
					c-34.3-19.6-75.3-22.4-112.6-34.3c-3.4-1.1-1.5-6,1.9-4.9c35.5,11.4,74.2,14.7,107.6,31.6c-7.7-13.1-15.4-26.1-23.2-39.2
					c-0.5,0-1-0.1-1.6-0.4c-15.6-9.6-35.3-13.5-52.5-20.2c-19.4-7.5-38.3-16.3-57.7-23.9c-3.3-1.3-1.4-6.2,1.9-4.9
					c19.4,7.6,38.3,16.2,57.7,23.9c15.3,6,32.3,9.8,47,17.1c-8.3-13.9-16.7-27.8-25.1-41.7c-0.5,0-1.1-0.1-1.6-0.4
					c-29.5-17.2-63.8-24-95-37.8c-3.3-1.4-1.3-6.4,1.9-4.9c29.3,13,61.2,20,89.6,34.8c-7.6-12.6-15.3-25.1-22.9-37.7
					c-0.6,0.1-1.3,0-2-0.5c-24.7-17.3-56-24.4-83.3-36.9c-3.2-1.5-1.3-6.4,1.9-4.9c25.1,11.5,53.3,18.6,77,32.7c0-0.3,0-0.5,0-0.8
					c-5.4-8.8-10.8-17.7-16.2-26.5c-27-18-58.8-27.7-88.9-39.9c-3.3-1.4-1.4-6.3,1.9-4.9c27.1,11,55.6,20,80.8,34.7
					c-3.3-5.4-6.6-10.8-9.8-16.1c-0.3-0.3-0.5-0.6-0.6-1c-1.8-3-3.7-6.1-5.6-9.1c-18.6-12.7-40.6-19.5-60.6-29.8
					c-3.2-1.6,0.1-5.9,3.2-4.3c16.8,8.6,34.9,14.8,51.3,24c-9.9-16.4-19.9-32.7-29.7-49.1c-1.2-2-2.4-4.1-3.7-6.1
					c-1.8-3,3.3-5.1,5.1-2.1c12.4,20.6,24.8,41.1,37.3,61.7c-3.6-26.6-1.4-53.6-1.2-80.2c0-3.4,5.6-2.8,5.6,0.6
					c-0.3,30.8-3.2,62.1,3.5,92.6c5.2,8.5,10.3,17,15.5,25.5c0.1,0.1,0.3,0.2,0.4,0.3c0.9,0.6,1.2,1.5,1.1,2.3
					c3.5,5.8,7.1,11.6,10.6,17.4c0.7-42.1,1.4-84.3,6.9-126.1c0.4-3.4,6-2.8,5.6,0.6c-5.9,44.5-6.3,89.5-7,134.4
					c8.6,14.1,17.1,28.1,25.7,42.2c-1.9-54.8,3.4-109.4,8.6-163.9c0.3-3.4,5.9-2.8,5.6,0.6c-5.4,57.1-11.1,114.4-8.3,171.8
					c0,0.3,0,0.7-0.1,0.9c9.7,16,19.3,31.9,28.9,47.9c0.7-2.3,1.5-4.5,2-6.1c3.6-12.8,6.4-25.8,9.4-38.8
					c6.4-27.9,12.2-55.9,18.4-83.9c0.7-3.3,6.3-2.7,5.5,0.6c-5.4,24.6-10.6,49.3-16.1,73.8c-2.8,12.3-5.6,24.5-8.6,36.7
					c-1.1,4.5-2.2,8.9-3.4,13.4c-0.5,1.8-1,3.5-1.5,5.3c-0.8,3.1,0.2,4-2.7,4l0,0c2.2,0,2.8,2,2.1,3.5c7.4,12.4,14.7,24.7,22.1,37.1
					c12.4-41.2,25.7-82.1,37.9-123.3c1-3.3,6.2-1.3,5.2,1.9c-12.7,42.7-26.6,85.2-39.3,127.9c8.5,14.5,17,29,25.3,43.6
					c0.8-3.3,1.5-6.8,2.4-9.9c3.6-12.3,7.1-24.7,10.5-37.1c6.9-25.5,12.5-51.2,16.1-77.3c0.5-3.4,6-2.8,5.5,0.6
					c-3.3,24.5-8.6,48.6-14.8,72.5c-3.2,12.4-6.7,24.7-10.3,37c-2,6.8-3.2,14.2-5.6,21c7.5,13.1,15,26.3,22.4,39.5
					c0.8-5,1-10.4,1.7-14.7c2.3-12.7,5.3-25.2,8.3-37.7c6-24.9,12.6-49.6,16.5-74.9c0.5-3.3,6.1-2.8,5.6,0.6
					c-3.9,25.3-10.4,50.1-16.5,74.9c-3.1,12.5-5.9,25.1-8.3,37.7c-1.2,6.4-1,14.8-3.3,21.2c9,16.3,18,32.6,26.8,49
					c2.4-7.4,3.4-15,4.6-22.8c1.8-11.5,4.4-23,7-34.4c5.2-22.5,11.7-44.7,18.4-66.9c1-3.3,6.2-1.3,5.2,1.9
					c-6.9,22.8-13.5,45.6-18.8,68.7c-2.6,11.2-4.9,22.6-6.7,34c-1.4,8.9-2.7,17.6-6.3,25.9c6.3,11.9,12.6,23.8,18.8,35.8
					c2.9-5,4.2-12,5.7-16.7c2.5-8.1,4.5-16.4,6.6-24.7c3.8-15.6,7.8-31,14.2-45.8c1.4-3.1,6.6-1.2,5.2,1.9
					c-7.1,16.4-11.2,33.6-15.5,50.9c-2.1,8.5-4.3,16.9-7.1,25.2c-1.6,4.8-3.2,10.5-6.4,14.8c24.2,47.3,47.2,95.2,68.2,143.9
					c0.9,2.1,1.8,4.3,2.8,6.5c1.3,3.1-3.7,5.3-5.1,2.1c-21.8-51-45.7-101-71-150.4c-0.3-0.3-0.6-0.6-0.8-1c-0.4,0.2-1,0.3-1.6,0.2
					c-27.1-5.2-54.4-9.3-81.4-15.1c-3.5-0.7-3-6,0.6-5.2c26.5,5.7,53.4,9.8,80,14.8c-5.2-10.1-10.5-20.2-15.8-30.3
					c-33.2-12.8-68.9-16-103.4-24.4c-3.5-0.9-1.5-5.8,1.9-4.9c32.5,8,66.1,11.2,97.7,22.3c-8.5-15.9-17.1-31.8-25.9-47.6
					c-0.2-0.1-0.3-0.1-0.5-0.2c-32-16.8-69.3-19.6-103.5-30.4c-3.4-1.1-1.5-6,1.9-4.9c32.2,10.2,66.9,13.5,97.7,27.6
					c-8-14.3-16-28.5-24.1-42.7c-0.1,0-0.1,0-0.1,0c0,0-0.1,0-0.1-0.1c-1-0.4-1.5-1.1-1.7-2c-43.3-18.7-91.5-21.8-135.4-38.8
					C-281,2196.3-279,2191.4-275.7,2192.7z"/>
			</g>
			<g>
				<defs>
					<path id="SVGID_9_" d="M38.2,2306.8c0.9-109.1-10.2-221.5-29.5-329.4C-4.2,1905.6-18,1805.6-74.5,1750
						c-21.3-20.9-56.2-29.8-84.9-16.5c-57.3,26.6-35.5,122.8-26.3,168.3c21.6,106.5,38,187.9,59.7,281.2
						c15.6,67,28.7,147.7,68.5,206.8c8.2,12.1,29.6,38,48.9,32.7C28.2,2412.6,37.7,2361.2,38.2,2306.8z"/>
				</defs>
				<clipPath id="SVGID_10_">
					<use xlink:href="#SVGID_9_"  style="overflow:visible;"/>
				</clipPath>
				<path class="st23" d="M38.2,2306.8c0.9-109.1-10.2-221.5-29.5-329.4C-4.2,1905.6-18,1805.6-74.5,1750
					c-21.3-20.9-56.2-29.8-84.9-16.5c-57.3,26.6-35.5,122.8-26.3,168.3c21.6,106.5,38,187.9,59.7,281.2
					c15.6,67,28.7,147.7,68.5,206.8c8.2,12.1,29.6,38,48.9,32.7C28.2,2412.6,37.7,2361.2,38.2,2306.8z"/>
				<path class="st24" d="M-203.2,2067.2c44.5,36.9,99.8,59.8,143.8,97.2c-3.6-20.2-7.2-40.4-11-60.6c-0.7-0.2-1.3-0.6-1.9-1.2
					c-33.3-37.7-82.6-57.7-123-87.2c-3.7-2.7,0.9-7.9,4.6-5.2c38.6,28.2,84.7,47.9,118.1,81.9c-3.6-19-7.2-38.1-10.9-57.1
					c-0.6-0.2-1.2-0.6-1.7-1.2c-14.9-18-37.4-30.8-55.5-45.7c-20.5-17-39.8-35.3-60.2-52.4c-3.5-2.9,1.1-8.1,4.6-5.2
					c20.4,17.1,39.8,35.2,60.2,52.3c16.1,13.5,35.3,24.9,50.2,39.9c-4-20.3-8-40.7-12.1-61c-0.7-0.2-1.3-0.6-1.8-1.2
					c-28.6-32.8-67.7-55-99.8-84.4c-3.4-3.1,1.2-8.3,4.6-5.2c30.2,27.7,66.3,49.1,94.5,78.6c-3.7-18.4-7.4-36.8-11.2-55.2
					c-0.8-0.1-1.6-0.6-2.2-1.4c-22.6-31-57.9-52.3-85.9-78.6c-3.3-3.1,1.3-8.3,4.6-5.2c25.7,24.1,57.2,44.1,80.1,71
					c0.1-0.3,0.2-0.6,0.4-0.9c-2.6-12.9-5.3-25.9-7.9-38.8c-25.1-32.8-59.9-57.4-91.4-84.5c-3.5-3,1.1-8.2,4.6-5.2
					c28.4,24.4,59.3,46.8,83.8,74.8c-1.6-7.9-3.2-15.8-4.8-23.6c-0.2-0.4-0.3-1-0.3-1.5c-0.9-4.4-1.8-8.9-2.7-13.3
					c-17.2-23-41.1-40.1-61.1-60.8c-3.2-3.3,2.7-7.1,5.9-3.9c16.8,17.3,36.3,32.1,52.3,50c-4.8-23.9-9.6-47.9-14.4-71.8
					c-0.6-3-1.2-5.9-1.8-8.9c-0.9-4.3,6.4-4.8,7.2-0.5c5.9,30.1,12,60.2,18.1,90.2c7.6-33.8,22.5-65.9,34.8-98.3
					c1.6-4.1,8.1-1.1,6.6,3c-14.3,37.4-32,74.4-37.5,114.3c2.5,12.4,5.1,24.9,7.6,37.3c0.1,0.2,0.3,0.3,0.4,0.5
					c0.9,1.1,0.8,2.3,0.4,3.3c1.7,8.5,3.4,17,5.2,25.5c19.9-51.1,39.8-102.2,65.5-150.9c2.1-3.9,8.6-1,6.6,3
					c-27.4,51.9-48.2,106.5-69.4,160.9c4.2,20.6,8.4,41.2,12.5,61.8c22.5-67.6,53.7-132,84.7-196.2c1.9-4,8.5-1,6.6,3
					c-32.5,67.4-65.4,134.9-87.9,206.1c-0.1,0.4-0.4,0.8-0.6,1.1c4.7,23.3,9.3,46.7,13.9,70c1.9-2.5,3.9-4.8,5.2-6.7
					c10.2-14.1,19.6-28.9,29.1-43.5c20.5-31.4,40.3-63.2,60.5-94.8c2.4-3.7,9-0.8,6.6,3c-17.8,27.8-35.3,55.7-53.2,83.5
					c-8.9,13.8-18,27.6-27.2,41.3c-3.4,5-6.7,10-10.2,14.9c-1.4,2-2.8,3.9-4.2,5.9c-2.5,3.5-1.6,5-5.2,3.8l0,0
					c2.6,0.9,2.5,3.6,1,5.1c3.5,18,7,36.1,10.4,54.2c33.8-45.2,68.7-89.7,102.4-134.9c2.7-3.6,8.2,0.9,5.6,4.4
					c-35,47-71.2,93-106.2,140c3.9,21.1,7.8,42.2,11.5,63.3c2.5-3.7,4.9-7.6,7.4-11.1c10-13.6,19.9-27.2,29.6-40.9
					c19.9-28.3,38.5-57.4,54.7-87.7c2.1-3.9,8.6-1,6.6,3c-15.2,28.5-32.5,55.7-50.9,82.4c-9.5,13.8-19.4,27.4-29.4,40.9
					c-5.5,7.5-10.4,16-16.3,23.3c3.3,19,6.6,38.1,9.7,57.1c3.2-5.7,5.9-12.3,8.8-17.2c8.6-14.5,17.9-28.6,27.3-42.6
					c18.7-27.9,37.9-55.4,54.2-84.7c2.1-3.9,8.7-0.9,6.6,3c-16.2,29.3-35.4,56.8-54.1,84.7c-9.4,14-18.6,28.2-27.3,42.6
					c-4.4,7.3-7.9,17.6-13.7,24.6c3.8,23.5,7.4,47,10.8,70.5c6.3-8,11-17,15.9-25.9c7.4-13.3,15.8-26.3,24.2-39.1
					c16.6-25.3,34.6-49.8,52.9-74.1c2.7-3.6,8.2,0.9,5.6,4.4c-18.8,24.9-37.2,50.1-54.2,76.2c-8.3,12.6-16.2,25.5-23.6,38.7
					c-5.8,10.3-11.2,20.4-19.4,29.1c2.4,17,4.8,34.1,6.9,51.2c5.8-4.9,10.6-12.9,14.6-18.1c6.8-8.9,13-18.2,19.2-27.5
					c11.7-17.4,23.7-34.7,38.3-50.1c3.1-3.3,8.7,1.2,5.6,4.4c-16.2,17.1-29,36.5-42.1,55.7c-6.4,9.5-13,18.8-20.1,27.8
					c-4.1,5.2-8.7,11.5-14.6,15.4c8.5,67.4,15,135,18.9,202.9c0.2,3,0.3,6,0.5,9c0.2,4.4-7,5-7.2,0.5
					c-3.8-70.9-10.6-141.5-19.4-211.9c-0.3-0.5-0.4-1-0.5-1.5c-0.6,0.1-1.4,0-2.1-0.4c-31.1-17.2-62.8-33.3-93.4-51.3
					c-3.9-2.3-0.9-8.5,3-6.2c30.1,17.7,61.3,33.5,91.8,50.4c-1.9-14.5-3.8-28.9-5.8-43.3c-35.1-29-77.6-47.3-116.2-71.5
					c-3.9-2.5,0.7-7.6,4.6-5.2c36.4,22.8,76.3,40.3,110.2,66.6c-3.3-22.8-6.7-45.6-10.3-68.4c-0.2-0.1-0.4-0.3-0.5-0.5
					c-31.8-33.3-76.5-51.8-113.7-78.8c-3.7-2.7,0.9-7.9,4.6-5.2c35.1,25.4,76.2,43.5,107.8,73c-3.3-20.6-6.8-41.2-10.4-61.8
					c-0.1,0-0.1-0.1-0.2-0.1c0,0-0.1-0.1-0.1-0.1c-1.1-0.9-1.4-2-1.2-3.2c-44.8-40.3-102.8-63.5-149.2-101.9
					C-211.3,2069.4-206.7,2064.2-203.2,2067.2z"/>
			</g>
			<path class="st6" d="M201.8,1770.6c225.4,275.2,35.1,537.8,35.1,537.8l-41.9,6.5C23.9,1897.1,201.8,1770.6,201.8,1770.6z"/>
			<path class="st7" d="M278.9,2353.3c0,0,79.7-268.2-157.5-482.4C121.4,1870.9,53,2150,278.9,2353.3z"/>
		</g>
		<g>
			<g>
				<g>
					<path class="st15" d="M3290.4,1408.8c-10,28.8-23.6,50.4-30.3,48.3c-6.8-2.1-4.2-27.1,5.8-55.9c10-28.8,23.6-50.4,30.4-48.3
						C3303,1355.1,3300.4,1380.1,3290.4,1408.8z"/>
				</g>
				<g>
					<g>
						<g>
							<path class="st16" d="M2938.8,1882.3c-27.2-73.9-32-147.8-17.8-217.7c14.2-69.9,46.9-134.5,87.6-194.2c1-1.4-2.4-2.7-3.3-1.3
								c-40.9,60-73.2,124.7-87.8,194.9c-14.6,69.9-9.4,144.4,17.9,218.4C2936,1884,2939.4,1884,2938.8,1882.3z"/>
						</g>
						<g>
							<path class="st16" d="M3052.1,1446.2c-5-0.3-29,10.3-40.6,17.9c4.8-11.5,8.9-33.8,6.8-37.6c-4.7-9-14.4,5.7-15.7,9.3
								c-2.8,7.4-3.8,15.6-2,23.8c0.7,3.1,1.8,6.2,3.3,9.3c0.5,1.1,1.1,1.7,1.7,2c0.5,0.4,1.4,0.6,2.8,0.7c4,0.2,7.9,0,11.7-0.5
								c10-1.3,19.1-4.8,26.5-9.5C3050.3,1459.3,3064,1446.8,3052.1,1446.2z"/>
						</g>
						<g>
							<path class="st16" d="M3062.2,1487.1c-1.3-10-65.9,1.1-70.4,8.3c0,0-2.5,4-2.5,4C3020.7,1506.3,3063.7,1498.6,3062.2,1487.1z
								"/>
						</g>
						<g>
							<path class="st16" d="M3049.2,1525.9c1.4-9.6-67.5-9.7-74-3.7l-3.6,3.4C3001.6,1537.2,3047.5,1536.9,3049.2,1525.9z"/>
						</g>
						<g>
							<path class="st16" d="M3035.1,1563.6c3.5-9-66.7-17.8-74.6-12.9c0,0-4.4,2.8-4.4,2.8
								C2984.2,1568.4,3031.1,1574,3035.1,1563.6z"/>
						</g>
						<g>
							<path class="st16" d="M3018.3,1597.1c2.6-9.3-67.3-14.2-74.5-8.7c0,0-4.1,3-4.1,3C2968.8,1604.8,3015.3,1607.7,3018.3,1597.1
								z"/>
						</g>
						<g>
							<path class="st16" d="M2953.9,1439.8c9.5-5.4,40.5,46.9,37,54.6c0,0-1.9,4.3-1.9,4.3C2963.4,1481,2943.1,1446,2953.9,1439.8z
								"/>
						</g>
						<g>
							<path class="st16" d="M2923.6,1471.4c7.4-7,50.7,41.2,49.6,49.6c0,0-0.6,4.7-0.6,4.7
								C2943.7,1511.8,2915.1,1479.4,2923.6,1471.4z"/>
						</g>
						<g>
							<path class="st16" d="M2900.9,1506.7c5.6-8.1,57.2,35.5,57.9,44.2c0,0,0.4,4.8,0.4,4.8
								C2928.8,1545.4,2894.5,1516,2900.9,1506.7z"/>
						</g>
						<g>
							<path class="st16" d="M2885.9,1540.8c6.4-7.6,54.5,38.3,54.3,46.8c0,0-0.1,4.8-0.1,4.8
								C2910.3,1580.4,2878.5,1549.6,2885.9,1540.8z"/>
						</g>
						<g>
							<g>
								<path class="st16" d="M3005,1633.8c2-9.5-67.4-12-74.3-6.2c0,0-3.9,3.2-3.9,3.2C2956.3,1643.3,3002.6,1644.7,3005,1633.8z"
									/>
							</g>
							<g>
								<path class="st16" d="M2874.1,1577.9c-7.9,8.4,22.3,40.1,51.7,52.9c0,0,0.4-4.7,0.3-4.7
									C2926.8,1617.7,2881,1570.5,2874.1,1577.9z"/>
							</g>
						</g>
						<g>
							<g>
								<path class="st16" d="M3005,1633.9c2-9.5-67.4-12-74.3-6.2c0,0-3.9,3.2-3.9,3.2C2956.4,1643.4,3002.7,1644.7,3005,1633.9z"
									/>
							</g>
							<g>
								<path class="st16" d="M2874.2,1577.9c-7.9,8.4,22.3,40.1,51.7,52.9l0.4-4.7C2926.8,1617.7,2881.1,1570.6,2874.2,1577.9z"/>
							</g>
						</g>
						<g>
							<g>
								<path class="st16" d="M2994.8,1662.5c0-9.9-67-4-72.4,2.7c0,0-3,3.7-3,3.7C2950.2,1678.2,2994.8,1673.9,2994.8,1662.5z"/>
							</g>
							<g>
								<path class="st16" d="M2858.1,1621.6c-5.9,9.6,29.6,38.1,60.4,47.6c0,0-0.6-4.8-0.6-4.8
									C2916.7,1655.6,2863.2,1613.3,2858.1,1621.6z"/>
							</g>
						</g>
						<g>
							<g>
								<path class="st16" d="M2988.5,1703.2c0.1-9.9-67.1-4.5-72.6,2.1c0,0-3.1,3.7-3.1,3.7
									C2943.6,1718.5,2988.4,1714.6,2988.5,1703.2z"/>
							</g>
							<g>
								<path class="st16" d="M2852,1661.3c-6,9.5,29.1,38.2,59.8,48c0,0-0.6-4.8-0.6-4.8C2910.3,1695.7,2857.3,1653,2852,1661.3z"
									/>
							</g>
						</g>
						<g>
							<g>
								<path class="st16" d="M2984.6,1738.6c-0.8-10-66.4-0.7-71.2,6.3c0,0-2.7,3.9-2.7,3.9
									C2941.9,1756.6,2985.5,1750,2984.6,1738.6z"/>
							</g>
							<g>
								<path class="st16" d="M2846.4,1703.9c-5,9.9,32.3,37,63.4,45.1c0,0-1-4.9-1-4.9C2907,1735.4,2850.7,1695.3,2846.4,1703.9z"
									/>
							</g>
						</g>
						<g>
							<g>
								<path class="st16" d="M2985.5,1773.8c-1.8-10.1-65.3,3.2-69.3,10.6c0,0-2.3,4.1-2.3,4.1
									C2945.4,1794.5,2987.6,1785.3,2985.5,1773.8z"/>
							</g>
							<g>
								<path class="st16" d="M2846.3,1746.9c-3.9,10.4,35.4,35.5,66.8,41.9c0,0-1.5-4.9-1.5-4.9
									C2909,1775.2,2849.7,1737.9,2846.3,1746.9z"/>
							</g>
						</g>
					</g>
				</g>
				<g>
					<g>
						<g>
							<path class="st16" d="M2973.1,2155.3c76.2-5.1,149.4-27.1,216.1-61.9c66.8-34.9,125.8-81.9,179.1-133.2c1.2-1.2,3,0.8,1.7,2
								c-53.5,51.6-112.8,98.3-179.7,133.6c-66.7,35.2-140.5,57-216.8,62.1C2971.7,2158,2971.3,2155.4,2973.1,2155.3z"/>
						</g>
						<g>
							<path class="st16" d="M3386.3,1919c1,3.7-6.3,25.4-12.2,36.7c10.7-7.6,32-18.4,36-18.2c9.5,0.4-3.7,12.8-7.1,15.1
								c-6.9,4.7-14.8,8.2-23.1,9.7c-3.1,0.6-6.3,0.8-9.6,0.7c-1.2,0-1.8-0.3-2.2-0.6c-0.4-0.2-0.8-0.8-1.1-1.9c-0.7-3-1-6-1-9
								c0-8,2.2-16,5.8-23.2C3373.7,1924.9,3384.1,1910.3,3386.3,1919z"/>
						</g>
						<g>
							<path class="st16" d="M3344.8,1925.5c10-2.5,7.7,50,1.2,55.9c0,0-3.6,3.3-3.6,3.3C3331.4,1963.5,3333.3,1928.4,3344.8,1925.5
								z"/>
						</g>
						<g>
							<path class="st16" d="M3308.4,1948.8c9.2-4.4,18.5,47.5,13.4,54.4c0,0-2.8,3.9-2.8,3.9
								C3303.6,1988.6,3297.8,1953.9,3308.4,1948.8z"/>
						</g>
						<g>
							<path class="st16" d="M3273.2,1972.5c8.4-5.8,26.4,44,22.6,51.7l-2.1,4.3C3275.3,2012.4,3263.6,1979.1,3273.2,1972.5z"/>
						</g>
						<g>
							<path class="st16" d="M3242.6,1996.7c8.8-5.2,22.9,45.7,18.5,53.1c0,0-2.5,4.1-2.5,4.1
								C3241.6,2036.7,3232.5,2002.6,3242.6,1996.7z"/>
						</g>
						<g>
							<path class="st16" d="M3405.6,1990.7c4-9-51.4-14.2-58.5-9l-3.9,2.9C3363.8,1997.9,3400.9,2001,3405.6,1990.7z"/>
						</g>
						<g>
							<path class="st16" d="M3378.6,2024.5c5.9-8-47.2-23.9-55.3-20.2c0,0-4.5,2.1-4.5,2.1
								C3336.2,2023.4,3371.8,2033.7,3378.6,2024.5z"/>
						</g>
						<g>
							<path class="st16" d="M3346.9,2053.8c7.2-7-42.5-30.8-51.1-28.3l-4.8,1.4C3305.2,2046.2,3338.6,2061.8,3346.9,2053.8z"/>
						</g>
						<g>
							<path class="st16" d="M3315.4,2076.9c6.7-7.5-44.8-27.8-53.1-24.7c0,0-4.7,1.7-4.7,1.7
								C3273.3,2072.3,3307.8,2085.5,3315.4,2076.9z"/>
						</g>
						<g>
							<g>
								<path class="st16" d="M3208.3,2019.5c9-4.8,20.7,46.6,16,53.8l-2.6,4C3205.4,2059.4,3197.9,2025,3208.3,2019.5z"/>
							</g>
							<g>
								<path class="st16" d="M3280.5,2098.6c-7.2,8.9-42.3-2.9-58.8-20.6c0,0,4.6-1.9,4.6-1.9
									C3234.5,2072.7,3286.8,2090.9,3280.5,2098.6z"/>
							</g>
						</g>
						<g>
							<g>
								<path class="st16" d="M3208.2,2019.4c9-4.8,20.7,46.6,16,53.8c0,0-2.6,4-2.6,4C3205.3,2059.4,3197.9,2024.9,3208.2,2019.4z"
									/>
							</g>
							<g>
								<path class="st16" d="M3280.5,2098.6c-7.2,8.9-42.3-2.9-58.8-20.6c0,0,4.6-1.9,4.6-1.9
									C3234.5,2072.7,3286.8,2090.9,3280.5,2098.6z"/>
							</g>
						</g>
						<g>
							<g>
								<path class="st16" d="M3181.4,2037c9.7-3.4,12.8,49.1,6.9,55.5l-3.3,3.6C3172,2076,3170.3,2041,3181.4,2037z"/>
							</g>
							<g>
								<path class="st16" d="M3239.8,2125.8c-8.6,7.7-41.3-9.1-54.7-29l4.8-1.2C3198.6,2093.5,3247.3,2119.1,3239.8,2125.8z"/>
							</g>
						</g>
						<g>
							<g>
								<path class="st16" d="M3142.3,2055.9c9.7-3.5,13.3,49,7.5,55.4c0,0-3.2,3.6-3.2,3.6
									C3133.3,2095,3131.2,2059.9,3142.3,2055.9z"/>
							</g>
							<g>
								<path class="st16" d="M3201.6,2144.1c-8.5,7.8-41.4-8.7-55-28.5c0,0,4.8-1.3,4.8-1.3
									C3160.1,2112.2,3209,2137.3,3201.6,2144.1z"/>
							</g>
						</g>
						<g>
							<g>
								<path class="st16" d="M3108.1,2071.1c9.9-2.8,9.5,49.7,3.2,55.8c0,0-3.5,3.4-3.5,3.4
									C3096.1,2109.4,3096.7,2074.3,3108.1,2071.1z"/>
							</g>
							<g>
								<path class="st16" d="M3160.4,2163.1c-9.1,7.2-40.6-11.5-52.7-32.2c0,0,4.9-0.9,4.9-0.9
									C3121.5,2128.4,3168.4,2156.9,3160.4,2163.1z"/>
							</g>
						</g>
						<g>
							<g>
								<path class="st16" d="M3073.4,2082.5c10.1-2.1,5.5,50.3-1.2,55.9l-3.8,3.1C3058.4,2120,3061.8,2085,3073.4,2082.5z"/>
							</g>
							<g>
								<path class="st16" d="M3118.3,2178.1c-9.7,6.5-39.6-14.4-50-35.8c0,0,5-0.6,5-0.6
									C3082.2,2140.7,3126.7,2172.4,3118.3,2178.1z"/>
							</g>
						</g>
					</g>
				</g>
				<g>
					<defs>
						<path id="SVGID_11_" d="M2986.7,2098.6c24-21.9,48.5-72.6,53.6-83c42.2-86.2,62.2-180.9,78.5-273.9
							c7.8-44.5,35.8-322.1-51.8-317.4c-52.8,2.8-47.1,148.7-51.2,180.4c-16.5,126.7-33.5,256.8-64.5,381
							c-7.1,28.4-16.7,88.7,1.1,114.3C2961.9,2113.7,2974.2,2110,2986.7,2098.6z"/>
					</defs>
					<clipPath id="SVGID_12_">
						<use xlink:href="#SVGID_11_"  style="overflow:visible;"/>
					</clipPath>
					<path class="st25" d="M2986.7,2098.6c24-21.9,48.5-72.6,53.6-83c42.2-86.2,62.2-180.9,78.5-273.9
						c7.8-44.5,35.8-322.1-51.8-317.4c-52.8,2.8-47.1,148.7-51.2,180.4c-16.5,126.7-33.5,256.8-64.5,381
						c-7.1,28.4-16.7,88.7,1.1,114.3C2961.9,2113.7,2974.2,2110,2986.7,2098.6z"/>
					<path class="st26" d="M2997.4,1465.1c24,14.6,49.4,27,73.2,42c0-10.4-0.2-20.8-0.4-31.2c-0.7-0.8-1-1.9-0.3-3.2
						c0.1-0.2,0.2-0.4,0.3-0.5c0-0.5,0-1,0-1.6c-6.4-15.6-25.8-25.8-38-36.8c-3.3-3,1-8.5,4.4-5.4c10.3,9.3,24,17.6,33.1,28.6
						c-1.1-27.2-3-54.4-6-81.5c-0.5-4.4,6.7-5.4,7.2-1c3.1,28.7,5.1,57.5,6.1,86.3c8.8-12.6,20.8-23.7,31.1-34.7
						c3.1-3.3,8.9,0.8,5.8,4.1c-12.1,12.9-27.2,26.3-35.6,42c0.1,0.2,0.2,0.4,0.2,0.7c0.4,1.3-0.1,2.4-0.9,3c0.2,8,0.3,16,0.4,24
						c14.6-17.6,36.7-27.8,52.8-44.4c3.1-3.2,8.9,0.9,5.8,4.1c-18,18.5-45,29.3-58.2,51.8c-0.1,0.1-0.2,0.3-0.3,0.4
						c0,0.1,0,0.2,0,0.4c0.5,0.9,0.4,1.9,0,2.8c0,11.3-0.3,22.6-0.6,33.9c13.5-17.4,32.6-30.9,49.1-45.6c3.4-3,7.8,2.4,4.5,5.4
						c-18.7,16.8-41.3,31.8-54,53.4c-0.7,18.7-1.8,37.5-3.3,56.2c25-19.2,47.6-41,71.6-61.3c3.5-2.9,7.9,2.5,4.4,5.4
						c-25.7,21.7-49.7,45.2-76.8,65.3c-1.5,17.9-3.3,35.7-5.5,53.5c28.4-18.6,52-43.1,80.1-62.1c3.8-2.5,8.3,2.8,4.4,5.4
						c-30,20.2-54.7,46.7-85.7,65.6c-2,15.4-4.1,30.9-6.6,46.3c8.6-8.5,20.7-15.3,29-20.5c19.5-12.3,40.4-22.3,60.6-33.6
						c4-2.2,8.5,3.1,4.4,5.4c-17.7,9.8-35.9,18.9-53.3,29.1c-9.4,5.5-18.6,11.5-27.2,18.1c-6.4,4.9-15.4,11.7-16.5,20
						c0,0.4-0.2,0.8-0.3,1.1c-2.8,16.6-5.9,33.2-9.3,49.7c4.4-3.5,10.4-9.3,12.1-10.6c6.7-4.8,14-9.1,21.3-13.1
						c15.3-8.5,31-16.1,46.5-24.2c4.1-2.2,6.9,4.1,2.9,6.3c-17.6,9.3-35.6,17.8-52.7,27.9c-8,4.7-15.5,9.9-22.6,15.6
						c-2.1,1.6-4.4,4.3-7,6c-0.5,0.6-1.2,1-2.1,1.2c-2.8,13.7-5.8,27.3-9,40.9c33.1-13.6,63.4-33.2,92.1-53.7
						c3.7-2.7,8.2,2.7,4.4,5.4c-30.6,21.8-62.9,42.7-98.5,56.5c-3.4,14.3-6.9,28.5-10.7,42.8c23.8-16.7,53.2-24.9,79.5-37.7
						c4.2-2,7,4.3,2.8,6.3c-28.5,13.9-60.8,22.2-85.3,42.5c-4.2,15.5-8.5,30.9-13.1,46.2c27.3-9,53.6-20.2,80.1-31
						c4.3-1.7,7.1,4.5,2.9,6.3c-28.2,11.4-56.2,23.5-85.4,32.7c0,0,0,0,0,0c-4.4,14.5-8.9,28.9-13.6,43.3
						c26.7-3.7,51.3-16.8,76.2-26.1c4.3-1.6,7.2,4.7,2.9,6.3c-26,9.7-51.7,23.4-79.7,26.8c-0.6,0.1-1.1,0-1.6-0.1
						c-4.5,13.5-9,26.9-13.8,40.3c0.6-0.3,1.2-0.5,2-0.5c25.2,0.1,49-8.7,73-15c4.5-1.2,5.5,5.6,1.1,6.8
						c-24.7,6.4-48.9,15.1-74.9,15c-1.5,0-2.4-0.7-2.8-1.6c-9.4,26.4-19.3,52.5-29.6,78.4c-0.5,1.2-1,2.4-1.5,3.6
						c-1.7,4.1-8.4,1.6-6.7-2.5c10.7-26.6,20.8-53.4,30.4-80.5c-0.6-0.2-1.2-0.5-1.7-1c-13.1-14.1-29.6-24.3-44.8-36.1
						c-3.6-2.8,0.8-8.2,4.4-5.4c15.1,11.8,31.3,22.1,44.5,35.8c4.3-12.2,8.5-24.4,12.5-36.6c-20.7-9.6-36.4-27.3-54.7-40.2
						c-3.7-2.6,0.6-8.1,4.4-5.4c17.6,12.3,32.8,29.7,52.5,39.1c4.9-15,9.7-30.1,14.3-45.3c-18.2-20-42.8-32.8-65.6-47.5
						c-3.9-2.5,0.5-7.9,4.4-5.4c21.9,14.1,45.3,26.7,63.5,45.1c4.3-14.5,8.5-29,12.5-43.6c-18.9-10-36.2-22.2-53.9-33.9
						c-3.8-2.5,0.6-8,4.4-5.4c16.8,11.2,33.4,23,51.3,32.5c4.1-15.4,8.1-30.8,11.8-46.2c-23.2-18-48.8-32.8-74-48.3
						c-3.9-2.4,0.5-7.8,4.4-5.4c24.2,14.9,48.8,29.1,71.3,46.3c3.1-13.2,6.1-26.5,8.9-39.7c-21.5-16.6-46.4-28.3-70.5-41
						c-4-2.1-1.4-8.5,2.7-6.3c23.7,12.4,48.1,23.9,69.5,39.8c3.6-17.6,7-35.2,10.1-52.9c-26.3-16.2-52.8-32.2-79.2-48.2
						c-3.9-2.4,0.5-7.8,4.4-5.4c25.4,15.4,50.8,30.8,76.1,46.3c3.1-18.7,6-37.5,8.4-56.3c-34.9-14.5-62.6-40.2-96.1-57
						c-4.1-2-1.4-8.4,2.7-6.3c32.5,16.3,59.7,41,93.1,55.7c0.2-0.4,0.6-0.8,1.2-1.1c0.1,0,0.2-0.1,0.3-0.2
						c2.3-18.1,4.2-36.3,5.8-54.5c-0.4-0.1-0.8-0.3-1.2-0.5c-28.5-20.2-59.9-36.2-90.3-53.7c-4-2.3,0.4-7.7,4.4-5.4
						c29.5,17,59.8,32.6,87.7,51.9c1.5-17.8,2.6-35.6,3.4-53.4c-1.8-0.4-3.2-1.8-2.8-3.7c-23.2-17-50-28.7-75.2-42.8
						c-4-2.2,0.4-7.6,4.4-5.4c24.8,13.8,51,25.3,74,41.9c0-0.1,0.1-0.1,0.1-0.2c0.5-14.9,0.9-29.8,0.9-44.7
						c-25-16.2-52.1-29.3-77.6-44.8C2989.1,1468.2,2993.5,1462.8,2997.4,1465.1z"/>
				</g>
				<g>
					<defs>
						<path id="SVGID_13_" d="M2894.6,1788.4c2.6-47.1,6.3-129.8,48.5-164.4c31.7-26,69.3-0.2,80.6,30.8
							c42.8,117.4,3,235.8-23.3,352.1c-5.4,24-11.4,48-18.3,71.7c-5.6,19.2-10.5,56.1-24.9,71.1c-46.6,48.3-62.5-84.7-64.4-103.5
							C2884.2,1961.1,2889.8,1873.6,2894.6,1788.4z"/>
					</defs>
					<clipPath id="SVGID_14_">
						<use xlink:href="#SVGID_13_"  style="overflow:visible;"/>
					</clipPath>
					<path class="st27" d="M2894.6,1788.4c2.6-47.1,6.3-129.8,48.5-164.4c31.7-26,69.3-0.2,80.6,30.8c42.8,117.4,3,235.8-23.3,352.1
						c-5.4,24-11.4,48-18.3,71.7c-5.6,19.2-10.5,56.1-24.9,71.1c-46.6,48.3-62.5-84.7-64.4-103.5
						C2884.2,1961.1,2889.8,1873.6,2894.6,1788.4z"/>
					<path class="st28" d="M3053.2,1896.2c-30.7,29.9-70.5,50-100.8,80.2c1.2-15.3,2.5-30.6,3.9-45.8c0.5-0.2,1-0.5,1.3-1
						c22.3-29.9,57.8-47.4,86-71.7c2.6-2.2-1.2-5.9-3.8-3.6c-26.9,23.1-60,40.2-82.6,67.4c1.3-14.4,2.7-28.8,4.1-43.2
						c0.5-0.2,0.9-0.5,1.2-1c9.9-14.3,25.8-24.9,38.3-37.1c14.2-13.8,27.3-28.4,41.4-42.3c2.4-2.4-1.4-6-3.8-3.6
						c-14.1,13.8-27.3,28.4-41.4,42.3c-11.1,11-24.7,20.5-34.7,32.4c1.5-15.4,3.1-30.8,4.7-46.2c0.5-0.2,0.9-0.5,1.3-1
						c19.1-26,46.8-44.7,68.7-68.3c2.3-2.5-1.5-6.1-3.8-3.6c-20.6,22.3-46.2,40.2-65.2,63.7c1.5-13.9,2.9-27.9,4.4-41.8
						c0.6-0.1,1.2-0.5,1.6-1.2c14.7-24.4,39.6-42.1,58.8-63.3c2.3-2.5-1.5-6.2-3.8-3.6c-17.5,19.4-39.7,36-54.9,57.3
						c-0.1-0.2-0.2-0.5-0.3-0.7c1.1-9.8,2.1-19.6,3.2-29.4c16.5-25.8,40.8-46.1,62.5-67.9c2.4-2.4-1.4-6.1-3.8-3.6
						c-19.5,19.7-41.1,38.1-57.4,60.3c0.6-6,1.3-11.9,1.9-17.9c0.1-0.3,0.2-0.7,0.1-1.1c0.4-3.4,0.7-6.7,1.1-10.1
						c11.2-18.1,27.9-32.2,41.5-48.6c2.1-2.6-2.6-5.2-4.7-2.6c-11.3,13.8-24.9,25.9-35.6,40.1c1.9-18.1,3.8-36.3,5.7-54.4
						c0.2-2.2,0.5-4.5,0.7-6.7c0.3-3.3-5.1-3.3-5.4,0c-2.3,22.8-4.7,45.5-7.1,68.3c-8.1-24.8-21.5-48-33.1-71.5
						c-1.5-3-6.2-0.4-4.7,2.6c13.4,27.2,29.2,53.9,36.2,83.3c-1,9.4-2,18.8-3,28.2c-0.1,0.1-0.2,0.3-0.3,0.4c-0.6,0.9-0.5,1.8,0,2.5
						c-0.7,6.4-1.4,12.9-2.1,19.3c-18.5-37.1-37.1-74.2-59.8-109.2c-1.8-2.8-6.5-0.3-4.7,2.6c24.2,37.3,43.7,77,63.4,116.5
						c-1.7,15.6-3.4,31.2-5,46.8c-21.6-49.2-49.6-95.7-77.4-142c-1.7-2.9-6.4-0.3-4.7,2.6c29.1,48.6,58.5,97.2,80.5,149.2
						c0.1,0.3,0.3,0.6,0.5,0.8c-1.8,17.7-3.7,35.3-5.4,53c-1.6-1.8-3.3-3.4-4.4-4.7c-8.6-10-16.7-20.5-24.9-30.9
						c-17.6-22.4-34.7-45.1-52.1-67.6c-2-2.6-6.8-0.1-4.7,2.6c15.3,19.8,30.4,39.7,45.8,59.5c7.7,9.9,15.4,19.7,23.3,29.4
						c2.9,3.5,5.7,7.1,8.7,10.6c1.2,1.4,2.4,2.8,3.6,4.1c2.1,2.5,1.5,3.6,4.2,2.6v0c-1.9,0.8-1.6,2.8-0.4,3.9
						c-1.3,13.7-2.6,27.3-3.9,41c-28.5-32-57.8-63.3-86.3-95.3c-2.3-2.5-6.1,1.1-3.9,3.6c29.5,33.2,60,65.7,89.5,98.9
						c-1.4,16-2.8,31.9-4.1,47.9c-2.1-2.7-4.2-5.4-6.4-7.9c-8.5-9.6-16.9-19.2-25.1-29c-16.9-20-32.9-40.8-47.2-62.6
						c-1.8-2.8-6.6-0.3-4.7,2.6c13.4,20.5,28.3,39.9,44,58.8c8.1,9.8,16.5,19.4,24.9,29c4.6,5.3,8.9,11.4,13.9,16.5
						c-1.1,14.4-2.2,28.8-3.2,43.2c-2.8-4.1-5.3-8.9-7.8-12.4c-7.4-10.4-15.4-20.4-23.5-30.4c-16-19.8-32.3-39.4-46.6-60.4
						c-1.9-2.8-6.6-0.2-4.7,2.6c14.2,21,30.6,40.6,46.6,60.4c8.1,10,15.9,20,23.5,30.4c3.8,5.2,7.2,12.7,12,17.6
						c-1.2,17.7-2.2,35.5-3.1,53.2c-5.3-5.6-9.4-12.1-13.8-18.5c-6.5-9.6-13.7-18.8-20.9-27.9c-14.2-18-29.5-35.3-44.9-52.5
						c-2.3-2.5-6.1,1.1-3.9,3.6c15.8,17.6,31.4,35.5,46,54c7.1,9,14,18.2,20.4,27.6c5,7.4,9.9,14.6,16.6,20.7
						c-0.6,12.9-1.1,25.7-1.6,38.6c-4.7-3.4-8.9-9-12.2-12.7c-5.7-6.3-11-12.9-16.4-19.5c-10-12.4-20.2-24.6-32.2-35.4
						c-2.5-2.3-6.4,1.3-3.9,3.6c13.3,11.9,24.3,25.7,35.5,39.4c5.5,6.7,11,13.3,17,19.7c3.4,3.7,7.3,8.2,12,10.7
						c-1.6,50.8-1.7,101.6,0.3,152.5c0.1,2.2,0.2,4.5,0.3,6.7c0.1,3.3,5.6,3.3,5.4,0c-2.2-53.2-2.2-106.2-0.5-159.3
						c0.2-0.4,0.2-0.8,0.2-1.2c0.5,0,1-0.1,1.6-0.4c22-14.5,44.7-28.2,66.3-43.3c2.8-1.9,0.1-6.4-2.7-4.4
						c-21.3,14.8-43.5,28.3-65.2,42.5c0.4-10.9,0.8-21.8,1.3-32.7c24.2-23.5,54.8-39.5,82-59.6c2.8-2-1.1-5.7-3.8-3.6
						c-25.7,19-54.3,34.2-77.8,55.6c0.8-17.2,1.8-34.4,2.9-51.6c0.1-0.1,0.2-0.2,0.4-0.4c21.5-26.6,53.6-42.8,79.6-64.9
						c2.6-2.2-1.2-5.8-3.8-3.6c-24.5,20.8-54,36.5-75.6,60.2c1-15.6,2.2-31.1,3.4-46.7c0,0,0.1-0.1,0.1-0.1c0,0,0.1-0.1,0.1-0.1
						c0.7-0.8,0.9-1.6,0.7-2.4c30.7-32.4,72.5-52.9,104.5-84C3059.5,1897.4,3055.6,1893.8,3053.2,1896.2z"/>
				</g>
				<g>
					<defs>
						<path id="SVGID_15_" d="M3196.1,1883.8c26.1-36.4,71.2-100.7,122.5-109.2c38.6-6.4,55.4,31.3,48.6,61
							c-25.7,113.1-117.8,189.5-198,270.4c-16.6,16.7-33.5,33.1-51.1,48.9c-14.2,12.8-37,40-56.1,45.4
							c-61.8,17.4-6.7-95.9,1.4-111.8C3099.8,2016.9,3149,1949.6,3196.1,1883.8z"/>
					</defs>
					<clipPath id="SVGID_16_">
						<use xlink:href="#SVGID_15_"  style="overflow:visible;"/>
					</clipPath>
					<path class="st29" d="M3196.1,1883.8c26.1-36.4,71.2-100.7,122.5-109.2c38.6-6.4,55.4,31.3,48.6,61
						c-25.7,113.1-117.8,189.5-198,270.4c-16.6,16.7-33.5,33.1-51.1,48.9c-14.2,12.8-37,40-56.1,45.4c-61.8,17.4-6.7-95.9,1.4-111.8
						C3099.8,2016.9,3149,1949.6,3196.1,1883.8z"/>
					<path class="st30" d="M3267.8,2041.6c-39.7,9.9-81.7,7.9-121.3,18.3c8.8-11.6,17.6-23.2,26.5-34.8c0.5,0.1,1,0.1,1.6-0.2
						c33-13.8,70.3-11.7,105.1-18.2c3.2-0.6,2-5.2-1.2-4.6c-33.2,6.3-68.4,4.9-100.3,16.3c8.4-10.9,16.8-21.8,25.3-32.6
						c0.5,0.1,0.9,0,1.5-0.2c15.1-6.9,33.3-8.2,49.4-12.3c18.3-4.6,36.3-10.3,54.6-15c3.2-0.8,2-5.4-1.2-4.6
						c-18.3,4.7-36.3,10.3-54.6,15c-14.4,3.7-30.1,5.2-44.2,10.1c9.1-11.6,18.2-23.2,27.3-34.7c0.5,0.1,1,0,1.5-0.2
						c28.5-12.1,60.1-14.4,89.7-23.4c3.1-0.9,1.9-5.6-1.2-4.6c-27.8,8.4-57.3,11.1-84.5,21.3c8.3-10.5,16.6-20.9,24.8-31.3
						c0.5,0.2,1.2,0.1,1.8-0.2c24.2-12.8,53.1-15.7,79.1-23.8c3.1-1,1.9-5.6-1.2-4.6c-23.9,7.5-50,10.7-73,20.8c0-0.2,0-0.5,0.1-0.7
						c5.8-7.3,11.7-14.7,17.5-22c26.3-13.1,56-18.3,84.5-25.9c3.1-0.8,1.9-5.5-1.2-4.6c-25.6,6.9-52.2,11.8-76.6,22.1
						c3.6-4.5,7.1-8.9,10.7-13.4c0.3-0.2,0.5-0.5,0.7-0.9c2-2.5,4-5.1,6-7.6c18.2-9.4,38.7-13,57.9-20c3-1.1,0.6-5.3-2.4-4.2
						c-16.1,5.9-33,9.4-48.8,15.9c10.8-13.6,21.5-27.2,32.3-40.8c1.3-1.7,2.7-3.4,4-5.1c1.9-2.5-2.4-4.9-4.3-2.5
						c-13.4,17.1-27,34.2-40.5,51.3c6.2-23.5,7.3-48.1,10.1-72c0.3-3.1-4.7-3.1-5.1-0.1c-3.2,27.8-4.1,56.2-13.6,82.9
						c-5.6,7.1-11.2,14.1-16.8,21.2c-0.1,0.1-0.3,0.1-0.4,0.2c-0.9,0.5-1.3,1.2-1.3,1.9c-3.8,4.8-7.7,9.7-11.5,14.5
						c4.1-38,8.2-76,8-114.2c0-3.1-5.1-3.2-5.1-0.1c0.3,40.7-4.4,81.2-8.8,121.7c-9.3,11.7-18.6,23.4-27.8,35.1
						c7.8-49.1,9.2-98.8,10.7-148.4c0.1-3.1-5-3.2-5.1-0.1c-1.5,51.9-2.8,104.1-11.8,155.5c-0.1,0.3,0,0.6,0,0.9
						c-10.5,13.3-20.9,26.5-31.4,39.9c-0.4-2.1-0.9-4.2-1.1-5.8c-1.8-11.9-2.9-24-4.1-35.9c-2.6-25.8-4.7-51.7-7.1-77.5
						c-0.3-3-5.3-3.2-5.1-0.1c2.1,22.7,4,45.5,6.2,68.2c1.1,11.3,2.3,22.7,3.6,34c0.5,4.1,1,8.3,1.5,12.4c0.2,1.6,0.5,3.3,0.7,4.9
						c0.4,2.9-0.6,3.6,2,3.9l0,0c-1.9-0.2-2.7,1.5-2.3,2.9c-8,10.3-16,20.6-24,30.9c-6.5-38.4-13.9-76.7-20.3-115.2
						c-0.5-3-5.4-1.9-4.9,1.1c6.6,39.9,14.4,79.6,21,119.5c-9.3,12.1-18.5,24.2-27.7,36.3c-0.4-3.1-0.6-6.3-1.1-9.2
						c-1.9-11.5-3.7-23-5.3-34.5c-3.3-23.7-5.5-47.5-5.8-71.3c0-3.1-5.1-3.2-5.1-0.1c0.2,22.4,2.2,44.6,5.1,66.9
						c1.5,11.5,3.3,23,5.1,34.4c1,6.3,1.3,13.2,2.7,19.5c-8.2,11-16.4,22-24.5,33c-0.2-4.6,0.3-9.5,0.1-13.4
						c-0.6-11.6-1.9-23.3-3.2-34.9c-2.6-23.1-5.7-46.1-6.4-69.3c-0.1-3.1-5.1-3.2-5.1-0.1c0.7,23.2,3.7,46.2,6.4,69.3
						c1.3,11.6,2.5,23.2,3.2,34.9c0.4,5.9-0.7,13.4,0.6,19.5c-10,13.6-19.8,27.3-29.6,41c-1.3-6.9-1.4-13.9-1.6-21
						c-0.3-10.6-1.3-21.2-2.4-31.7c-2.1-20.8-5.5-41.6-9-62.2c-0.5-3-5.4-1.9-4.9,1.1c3.7,21.2,7,42.5,9.2,64
						c1.1,10.4,1.9,20.9,2.2,31.3c0.3,8.2,0.4,16.1,2.7,24c-7,10-14,20-20.9,30.1c-2-4.8-2.5-11.3-3.3-15.7
						c-1.4-7.6-2.2-15.3-3.1-22.9c-1.7-14.4-3.5-28.8-7.7-42.8c-0.9-3-5.8-1.8-4.9,1.1c4.6,15.5,6.3,31.5,8.2,47.5
						c0.9,7.8,2,15.7,3.5,23.4c0.9,4.5,1.7,9.8,4.1,14c-27.1,39.8-53.1,80.3-77.5,121.8c-1.1,1.8-2.1,3.7-3.2,5.5
						c-1.6,2.7,2.8,5.2,4.3,2.5c25.3-43.4,52.4-85.7,80.8-127.3c0.3-0.2,0.6-0.5,0.8-0.8c0.4,0.2,0.8,0.4,1.5,0.4
						c25-1.6,50-2.2,74.9-4.4c3.2-0.3,3.3-5.1,0.1-4.8c-24.5,2.2-49.1,2.8-73.7,4.4c5.8-8.5,11.7-17,17.7-25.5
						c31.3-7.8,63.8-6.6,95.7-10.3c3.2-0.4,2-5-1.2-4.6c-30.1,3.5-60.7,2.6-90.4,9.1c9.4-13.4,19-26.6,28.6-39.9
						c0.2,0,0.3-0.1,0.5-0.1c30.7-11.5,64.6-9.8,96.6-15.7c3.2-0.6,2-5.2-1.2-4.6c-30.1,5.5-61.7,4.7-91,13.8
						c8.8-11.9,17.6-23.9,26.5-35.7c0,0,0.1,0,0.1,0c0,0,0.1,0,0.1,0c1-0.3,1.5-0.9,1.8-1.6c41-12,84.8-9.3,126.2-19.7
						C3272.1,2045.5,3271,2040.9,3267.8,2041.6z"/>
				</g>
				<g>
					<defs>
						<path id="SVGID_17_" d="M2972.7,2109c11.5-98.2,34.1-198.1,63.6-292.9c19.6-63.2,43.3-151.6,100.4-195.2
							c21.5-16.4,53.9-20.5,78.3-5.3c48.6,30.3,18.1,114.4,4.7,154.4c-31.4,93.3-55.3,164.7-85.3,246.2
							c-21.6,58.5-42.4,129.7-84.8,178.4c-8.7,10-30.9,30.8-47.7,23.9C2969.7,2205.3,2967,2158,2972.7,2109z"/>
					</defs>
					<clipPath id="SVGID_18_">
						<use xlink:href="#SVGID_17_"  style="overflow:visible;"/>
					</clipPath>
					<path class="st31" d="M2972.7,2109c11.5-98.2,34.1-198.1,63.6-292.9c19.6-63.2,43.3-151.6,100.4-195.2
						c21.5-16.4,53.9-20.5,78.3-5.3c48.6,30.3,18.1,114.4,4.7,154.4c-31.4,93.3-55.3,164.7-85.3,246.2
						c-21.6,58.5-42.4,129.7-84.8,178.4c-8.7,10-30.9,30.8-47.7,23.9C2969.7,2205.3,2967,2158,2972.7,2109z"/>
					<path class="st32" d="M3216.7,1920.6c-44.2,28.2-96.5,42.6-140.2,71.3c5.5-17.8,11.1-35.5,16.7-53.3c0.6-0.1,1.3-0.3,1.8-0.9
						c34.2-30.2,80.8-42.6,120.5-64.6c3.7-2,0.1-7.2-3.6-5.2c-37.9,21-81.5,33.5-115.5,60.4c5.4-16.7,10.8-33.5,16.2-50.2
						c0.6-0.1,1.2-0.4,1.7-0.9c15.4-14.5,37.1-23.5,55-34.9c20.4-13,39.8-27.2,60.1-40.3c3.5-2.2-0.1-7.4-3.6-5.2
						c-20.3,13.1-39.8,27.2-60.1,40.3c-16,10.4-34.6,18.5-49.6,30.2c5.9-17.8,11.8-35.7,17.7-53.5c0.6-0.1,1.2-0.4,1.8-0.8
						c29.4-26.3,67.1-41.9,99.3-64.7c3.4-2.4-0.2-7.6-3.6-5.2c-30.2,21.5-65.2,36.7-93.9,60.1c5.4-16.1,10.8-32.3,16.2-48.4
						c0.7,0,1.5-0.3,2.1-1c23.8-25.4,57.9-40.5,86.1-61.1c3.3-2.4-0.2-7.6-3.6-5.2c-25.8,18.8-56.5,33.3-80,54.9
						c-0.1-0.3-0.1-0.6-0.2-0.9c3.8-11.3,7.7-22.7,11.5-34c26.3-26.7,60.3-44.9,91.7-65.7c3.5-2.3-0.1-7.5-3.6-5.2
						c-28.3,18.7-58.6,35.4-83.8,57.9c2.3-6.9,4.7-13.8,7-20.7c0.2-0.4,0.4-0.8,0.4-1.3c1.3-3.9,2.6-7.8,3.9-11.7
						c18-18.8,41.5-31.5,61.8-47.8c3.2-2.6-1.7-6.7-4.8-4.2c-17,13.7-36.2,24.8-52.6,39.1c7-21,14.1-42,21-63
						c0.9-2.6,1.7-5.2,2.6-7.8c1.3-3.8-5.2-5.1-6.4-1.3c-8.7,26.4-17.5,52.8-26.4,79.1c-3.1-31.3-12.8-61.8-20.3-92.3
						c-1-3.9-7.2-1.9-6.2,1.9c8.7,35.3,20.4,70.5,20.9,107c-3.7,10.9-7.3,21.8-11,32.7c-0.1,0.1-0.3,0.3-0.4,0.4
						c-0.9,0.9-1,2-0.7,2.9c-2.5,7.5-5,14.9-7.5,22.4c-12.1-48.2-24.3-96.4-41.9-143.1c-1.4-3.7-7.7-1.8-6.2,1.9
						c18.8,49.8,31.4,101.3,44.3,152.6c-6.1,18-12.2,36.1-18.2,54.2c-12.6-63.3-33.5-124.7-54.1-186c-1.3-3.8-7.5-1.9-6.2,1.9
						c21.6,64.2,43.6,128.7,55.9,195.2c0.1,0.4,0.2,0.7,0.4,1.1c-6.8,20.5-13.6,40.9-20.4,61.4c-1.4-2.5-3-4.8-4-6.6
						c-7.6-13.9-14.4-28.2-21.3-42.4c-14.9-30.6-29.2-61.4-43.8-92.1c-1.7-3.6-8-1.7-6.2,1.9c12.9,27,25.5,54.1,38.5,81.1
						c6.5,13.5,13.1,26.9,19.8,40.2c2.5,4.9,4.9,9.8,7.5,14.6c1,1.9,2.1,3.8,3.1,5.7c1.8,3.4,0.8,4.6,4.2,4l0,0
						c-2.5,0.5-2.7,2.9-1.5,4.5c-5.2,15.8-10.3,31.7-15.4,47.6c-25.3-44.4-51.7-88.4-77-132.9c-2-3.5-7.5-0.1-5.5,3.4
						c26.2,46.2,53.6,91.7,79.8,137.9c-5.9,18.5-11.7,37.1-17.5,55.7c-1.8-3.6-3.5-7.4-5.5-10.8c-7.5-13.3-14.9-26.7-22.1-40.1
						c-14.8-27.7-28.2-55.9-39.3-85.1c-1.4-3.8-7.7-1.8-6.2,1.9c10.4,27.3,23,53.8,36.5,79.8c7,13.5,14.4,26.8,21.8,40.1
						c4.1,7.3,7.5,15.6,12.1,22.8c-5.1,16.7-10.2,33.5-15.1,50.3c-2.3-5.5-3.9-11.7-6-16.4c-6.1-14-12.9-27.7-19.7-41.4
						c-13.7-27.2-27.9-54.1-39.2-82.3c-1.5-3.7-7.7-1.8-6.2,1.9c11.3,28.2,25.5,55.1,39.2,82.3c6.9,13.7,13.6,27.4,19.7,41.4
						c3.1,7,5.2,16.7,9.5,23.6c-6,20.7-11.9,41.4-17.6,62.2c-4.8-7.9-8-16.5-11.4-25.1c-5.2-12.8-11.2-25.4-17.3-37.9
						c-12-24.7-25.5-48.7-39.2-72.6c-2-3.5-7.5-0.1-5.5,3.4c14.1,24.5,27.8,49.3,40.2,74.6c6,12.3,11.7,24.8,16.9,37.4
						c4,9.9,7.8,19.6,14.2,28.4c-4.1,15.1-8.1,30.1-12,45.2c-4.7-5.1-8.1-12.8-11.1-17.9c-5.1-8.8-9.6-17.8-14.2-26.9
						c-8.6-17-17.4-33.8-28.8-49.4c-2.4-3.3-7.9,0.1-5.5,3.4c12.6,17.2,22,36.1,31.6,54.9c4.7,9.2,9.6,18.4,14.9,27.3
						c3.1,5.1,6.6,11.4,11.4,15.5c-15.2,59.7-28.7,119.7-39.8,180.4c-0.5,2.7-1,5.4-1.5,8c-0.7,3.9,5.7,5.2,6.4,1.3
						c11.4-63.4,25.4-126.1,41.3-188.5c0.3-0.4,0.5-0.8,0.6-1.3c0.6,0.2,1.2,0.1,1.9-0.1c29.9-12,60.2-22.9,89.8-35.6
						c3.8-1.6,1.8-7.5-2-5.9c-29,12.5-58.9,23.2-88.3,35c3.3-12.8,6.6-25.6,10.1-38.3c34.8-22.2,75.1-33.8,112.6-51.2
						c3.8-1.8,0.2-6.9-3.6-5.2c-35.3,16.4-73.2,27.7-106.6,47.5c5.5-20.2,11.2-40.3,17-60.3c0.2-0.1,0.4-0.2,0.5-0.4
						c32.4-26.4,74.7-38,111.2-58.1c3.7-2,0.1-7.2-3.6-5.2c-34.4,18.9-73.5,30.5-105.2,53.6c5.3-18.2,10.7-36.3,16.3-54.4
						c0.1,0,0.1-0.1,0.2-0.1c0,0,0.1-0.1,0.1-0.1c1.1-0.7,1.5-1.6,1.4-2.7c44.8-31.2,99.6-45.6,145.7-74.9
						C3223.7,1923.5,3220.2,1918.3,3216.7,1920.6z"/>
				</g>
				<path class="st6" d="M2885.8,1608.3c-233.6,222.3-92,479.8-92,479.8l37,10.5C3031.6,1742.1,2885.8,1608.3,2885.8,1608.3z"/>
				<path class="st7" d="M2750.9,2123.8c0,0-41.5-250.2,195.9-416.2C2946.8,1707.5,2976.9,1966.3,2750.9,2123.8z"/>
			</g>
			<g>
				<g>
					<path class="st16" d="M2424.2,2277.5c0-109,93.7-197.3,209.3-197.3c14.6,0,28.8,1.4,42.6,4.1c-0.1-1.4-0.2-2.7-0.2-4.1
						c0-64.1,55.1-116.1,123.1-116.1c3.5,0,7,0.2,10.5,0.5c19.1-40.8,62.3-69.3,112.6-69.3c59.3,0,108.7,39.5,120.5,92.2
						c13.2-6.6,27.7-11.3,42.9-13.8c6.7-82.6,79.7-147.7,169-147.7c93.7,0,169.6,71.6,169.6,160c0,11.7-1.5,23.1-4,34.1
						c14.4-5.5,30-8.6,46.5-8.6c24.6,0,47.4,6.9,66.6,18.6c17.4-64.9,79.6-113,153.8-113c76.9,0,140.9,51.5,155.7,119.9
						c13.6-4.9,28.3-7.6,43.6-7.6c0-81.9,70.4-148.4,157.3-148.4c83.1,0,151,60.8,156.8,137.8c8.5-2.7,17.3-4.6,26.4-5.8v310
						c-0.6,11.5-1.3,23.1-1.8,34.6H2424.2v-66.3h0.7C2424.6,2286.6,2424.2,2282.1,2424.2,2277.5z"/>
				</g>
				<path class="st15" d="M2173.3,2474c0-101.5,87.3-183.8,194.9-183.8c13.6,0,26.9,1.3,39.7,3.8c-0.1-1.3-0.2-2.5-0.2-3.8
					c0-59.7,51.3-108.1,114.7-108.1c3.3,0,6.5,0.2,9.8,0.5c17.8-38,58-64.6,104.9-64.6c55.2,0,101.3,36.8,112.2,85.9
					c12.3-6.2,25.8-10.5,39.9-12.8c6.2-77,74.2-137.6,157.4-137.6c87.3,0,158,66.7,158,149c0,10.9-1.4,21.5-3.7,31.7
					c13.4-5.1,28-8,43.3-8c22.9,0,44.2,6.4,62.1,17.3c16.2-60.4,74.1-105.2,143.3-105.2c71.6,0,131.3,48,145,111.7
					c12.6-4.5,26.3-7.1,40.6-7.1c0-76.3,65.6-138.2,146.5-138.2c77.4,0,140.7,56.7,146,128.4c7.9-2.5,16.1-4.3,24.6-5.4v288.8
					c-0.6,10.7-1.2,21.5-1.7,32.2H2173.3v-61.8h0.7C2173.7,2482.6,2173.3,2478.3,2173.3,2474z"/>
			</g>
		</g>
		<g>
			<g>
				<path class="st16" d="M453.8,2349.5c0-109-93.7-197.3-209.3-197.3c-14.6,0-28.8,1.4-42.6,4.1c0.1-1.4,0.2-2.7,0.2-4.1
					c0-64.1-55.1-116.1-123.1-116.1c-3.5,0-7,0.2-10.5,0.5c-19.1-40.8-62.3-69.3-112.6-69.3c-59.3,0-108.7,39.5-120.5,92.2
					c-13.2-6.6-27.7-11.3-42.9-13.8c-6.7-82.6-79.7-147.7-169-147.7c-93.7,0-169.6,71.6-169.6,160c0,11.7,1.5,23.1,4,34.1
					c-14.4-5.5-30-8.6-46.5-8.6c-24.6,0-47.4,6.9-66.6,18.6c-17.4-64.9-79.6-113-153.8-113c-76.9,0-140.9,51.5-155.7,119.9
					c-13.6-4.9-28.3-7.6-43.6-7.6c0-81.9-70.4-148.4-157.3-148.4c-83.1,0-151,60.8-156.8,137.8c-8.5-2.7-17.3-4.6-26.4-5.8v310
					c0.6,11.5,1.3,23.1,1.8,34.6H453.8v-66.3H453C453.4,2358.6,453.8,2354.1,453.8,2349.5z"/>
			</g>
			<path class="st15" d="M704.7,2546c0-101.5-87.3-183.8-194.9-183.8c-13.6,0-26.9,1.3-39.7,3.8c0.1-1.3,0.2-2.5,0.2-3.8
				c0-59.7-51.3-108.1-114.7-108.1c-3.3,0-6.5,0.2-9.8,0.5c-17.8-38-58-64.6-104.9-64.6c-55.2,0-101.3,36.8-112.2,85.9
				c-12.3-6.2-25.8-10.5-39.9-12.8c-6.2-77-74.2-137.6-157.4-137.6c-87.3,0-158,66.7-158,149c0,10.9,1.4,21.5,3.7,31.7
				c-13.4-5.1-28-8-43.3-8c-22.9,0-44.2,6.4-62.1,17.3c-16.2-60.4-74.1-105.2-143.3-105.2c-71.6,0-131.3,48-145,111.7
				c-12.6-4.5-26.3-7.1-40.6-7.1c0-76.3-65.6-138.2-146.5-138.2c-77.4,0-140.7,56.7-146,128.4c-7.9-2.5-16.2-4.3-24.6-5.4v288.8
				c0.6,10.7,1.2,21.5,1.7,32.2H704.7v-61.8H704C704.3,2554.6,704.7,2550.3,704.7,2546z"/>
		</g>
	</g>
</g>
<g id="Animals">
</g>
</svg>
