<?xml version="1.0" encoding="utf-8"?>
<!-- Generator: Adobe Illustrator 24.1.2, SVG Export Plug-In . SVG Version: 6.00 Build 0)  -->
<svg version="1.1" xmlns="http://www.w3.org/2000/svg" xmlns:xlink="http://www.w3.org/1999/xlink" x="0px" y="0px"
	 viewBox="0 0 636 880" style="enable-background:new 0 0 636 880;" xml:space="preserve">
<style type="text/css">
	.st0{fill:#FFFFFF;}
	.st1{fill:#BFBFBF;}
	.st2{fill:#A8A8A8;}
	.st3{fill:#9F9F9F;}
	.st4{fill:#B9B9B9;}
	.st5{fill:#B2B2B2;}
	.st6{fill:#C4C4C4;}
	.st7{fill:#C0C0C0;}
	.st8{fill:#292929;}
</style>
<g id="Слой_1">
</g>
<g id="Слой_2">
	<g>
		<g>
			<g>
				<path class="st0" d="M631.3,528c-1.6-2.1-3.7-3.7-6-4.5c0.4-5.3-0.7-10.3-4.6-14.5c-3.5-3.7-8.1-5.6-13.4-5.5
					c-15.1,0.3-31.2,18.3-33,20.3c-14.5,16.7-23.2,47.7-12.8,70.5c0,0,0,0.1,0.1,0.2c-7.4,13-21.8,22.6-37,29.5
					c0.1-0.4,0.2-0.7,0.3-1.1l0.1,0l1.1-4.7c2-8.1,3.6-16.5,4.7-25.1c0.1-0.7,0.2-1.3,0.3-2c0.2-1.6,0.4-3.3,0.6-5
					c0.1-0.8,0.2-1.5,0.2-2.3c0.2-2.1,0.4-4.1,0.5-6.2c0-0.4,0.1-0.9,0.1-1.3c0.1-2.1,0.3-4.2,0.4-6.3c0-0.8,0.1-1.6,0.1-2.4
					c0.1-1.7,0.1-3.4,0.2-5.1c0-0.8,0-1.5,0-2.3c0-2.4,0.1-4.8,0-7.3c-0.1-9.3-0.6-18.4-1.5-27.5c-3.9-38.9-15.3-75.8-33.2-108.1
					c14.2-16.2,23.2-38.7,26.3-66.4c1.4-12.6,1.5-26.3,0.4-40.2c4.9-15.9,7.9-31.8,8.4-46.7c1.4-29.9-15.6-66.2-32-87.3
					c-14.1-18.1-30.9-34.4-50-48.2c-25.2-18.4-49.2-29.2-75.3-33.9c-11-1.9-23-2.9-36.8-2.9c-1.6,0-3.2,0-4.8,0
					c-25.6,0.3-56.3,16.1-74,30.7c-8.5,7-14.3,15.3-19.5,22.7c-6.7,9.6-12.2,17.5-22.2,21.8c-0.3,0-0.6-0.1-0.8-0.1
					c-0.3,0-0.7,0-1,0c-2.5,0-4.9,0.9-6.7,2.4c-0.6,0-1.3,0-1.9,0c-0.1,0-0.1,0-0.2,0c-0.7-0.5-1.4-1-2.2-1.5l-0.2-0.1l-0.2-0.1
					c-1.2-0.6-2.6-1-4-1.1c-12.7-7-23.5-16.3-30.9-27.2c-8.1-11.9-11.8-25.8-10.7-40.3c1.1-11.6,5.7-19.9,14-25.4
					c1.5-1,3.7-1.9,6-2.9c7.6-3.2,20.3-8.6,20.3-24.1c0-14-11.8-24.1-28.1-24.1c-0.4,0-0.8,0-1.1,0c-0.2-4.6-1.3-9.2-3.7-13.1
					C163.8,3.4,157.5,0,149.8,0c-2.4,0-5,0.4-7.6,1c-18.3,4.8-20.1,20.1-21.1,29.3c-0.5,4.5-1,8.7-2.7,11.4
					c-2.1,3.2-4.7,6.2-7.5,9.4c-3.9,4.4-7.9,8.9-11.2,14.7c-10.8,19.1-17,41.9-18.3,67.7c-2.2,43.4,9.1,85,30.7,114.5
					c-8.7-4.3-14.6-7.3-16.3-8.1l-0.1,0l-0.6-0.3c-3.9-1.9-9.6-4.2-16.2-5l0,0h-0.2c-1.5-0.2-3.1-0.3-4.7-0.3
					c-4.6,0-8.8,0.8-12.7,2.5c-16,6.7-24.6,19.1-32.9,31.1l-0.6,0.9l-0.1,0.1c-4.5,7-8.3,14.5-11.4,20.9c-5.7,12-12.6,28-15.2,44.7
					c-1.5,9.9-1.3,18.3,0.7,25.7c1.9,6.9,5.8,11.4,10.2,14.7l0.5,0.5l0.1,0c3.3,2.3,6.8,4,9.9,5.5c0.8,0.4,1.7,0.8,2.5,1.2
					l22.6,11.3c-0.2,0.7-0.5,1.3-0.7,2l-0.1,0.3c-2.4,6.5-4,13.4-5.4,20.1c0,0,0,0,0,0c-0.1,0.4-0.2,0.8-0.2,1.2
					c-0.1,0.5-0.2,1.1-0.3,1.6l0,0c0,0,0,0,0,0c0,0,0,0,0,0l0,0c0,0,0,0,0,0c-2.1,11.1-4.5,27.2-3.4,43.1c0.1,1,0.2,1.9,0.3,2.9
					c0,0.1,0,0.1,0,0.2c0,0,0,0,0,0c0,0,0,0,0,0c0,0.1,0,0.3,0.1,0.4c1.1,9.4,3.5,17.2,7.3,23.7c0,0.1,0.1,0.2,0.1,0.3c0,0,0,0,0,0
					c0,0,0,0,0,0l0.1,0.1c0.1,0.1,0.2,0.3,0.3,0.4c3.2,5.2,7.6,8.3,12.1,10.3l1.6,0.8l0.3-0.1c3.7,1.4,7.4,2.1,10.7,2.8
					c1,0.2,2,0.4,3,0.6l49.8,10.4c-1.6,11.7-2.5,23.6-2.7,35.7c-0.1,3.1-0.2,5.9,0,8.3c0.5,48.9,12.7,91.8,35.6,126.1
					c-1.9,5.6-3.2,11.5-3.5,17.6c-6.5,110.6-7.5,126.7-7.6,129.2h0c-0.7,12,3.3,22.6,10.7,29.2c12,10.7,26.1,13.5,39.7,16.2l0.7,0.1
					c7.7,1.4,15.4,1.9,22.7,2.4l0.1,0c3.8,0.2,7.3,0.3,10.5,0.3c0.4,0,0.8,0,1.2,0c0.6,0,1.3,0,1.9,0c0,0,0,0,0,0c0,0,0,0,0,0
					c0,0,0,0,0,0c12,0,22.1-0.9,30.9-2.8c8.9-1.9,16.4-4.9,22.3-9.1l0.1-0.1c3.9-2.8,6.8-6.5,8.5-10.8l1.5-3.9l-0.4-0.8
					c0.7-3.3,0.8-6.5,0.9-9.2c0-0.8,0.1-1.6,0.1-2.4l3.5-58.9l0.2,0l0.5-9.1c0.1-1.6,0.2-3.1,0.3-4.7c7.3,0.7,14.7,1.2,22.2,1.2
					l8,70.4c0.1,0.8,0.2,1.5,0.2,2.3c0.3,2.7,0.6,5.8,1.4,9.1l-0.4,1.1l2,4c2.1,4.3,5.2,7.7,9.1,10.1c6.1,3.8,13.5,6.4,22.6,7.9
					c0,0,0,0,0.1,0c0,0,0,0,0,0c0,0,0,0,0.1,0c6.3,1.1,13.1,1.6,20.7,1.6c9,0,17.8-0.7,23.8-1.3c6.7-0.7,14.7-1.6,22.5-3.4l1-0.2
					c13.4-3.4,27.3-7,38.6-18.2c3.8-3.8,6.5-8.7,8-14.2l0.3-0.8l-0.1-0.1c1.1-4.5,1.4-9.5,0.9-14.7l0,0c-0.4-3.5-2.2-20-12-106.3
					c1.5-1.4,3-2.8,4.4-4.2c12-11.9,22.2-25.2,30.6-39.9c9.3-2.3,20.7-5.8,32.4-10.7c29.6-12.6,50.4-30.3,61-52c3-1,5.5-2.2,7.1-3
					c13.5-7.2,24-19.9,28.7-35C636.2,564.9,638.7,537.9,631.3,528z"/>
			</g>
		</g>
		<g>
			<g>
				<g>
					<path class="st1" d="M481.6,666.8c3.9-0.5,96.3-12.9,112.4-74.5l-18.8-4.9c-12.7,48.8-95.2,60-96,60.1L481.6,666.8z"/>
				</g>
				<g>
					<path class="st2" d="M581.9,600c-4.3,2.3-10.2-7.2-11.4-9.8c-8.2-18-1.5-45,11.3-59.8c4.7-5.4,23.3-23.3,31.6-14.5
						c6,6.4-4.1,24-6,30.7c2.3-4.3,7.5-13.7,13.7-13.8c6.6-0.2,5.8,28.3,3.4,35.8c-3.9,12.4-12.4,23.1-23.9,29.2
						c-3.8,2-11.7,5.1-16.1,2.8"/>
				</g>
			</g>
			<g>
				<path class="st3" d="M25.3,294.1c-6.2,13.1-12.1,27.6-14.4,42c-1.1,7.1-1.4,14.6,0.5,21.6c2.4,8.9,10.4,11.7,18.1,15.5
					L164,440.4c34.6,17.3,76.4,3.4,93.4-31c16.9-34.4,2.6-76.4-32.1-93.6c0,0-134.2-67-134.5-67.2c-7.7-3.8-17.5-6-25.6-2.6
					c-13.6,5.7-21.1,16.8-29.1,28.3C32.1,280.5,28.6,287.3,25.3,294.1z"/>
				<path class="st4" d="M25.3,294.1c-6.2,13.1-12.1,27.6-14.4,42c-1.1,7.1-1.4,14.6,0.5,21.6c2.4,8.9,10.4,11.7,18.1,15.5
					L164,440.4c34.6,17.3,76.4,3.4,93.4-31c16.9-34.4,2.6-76.4-32.1-93.6c0,0-134.2-67-134.5-67.2c-7.7-3.8-17.5-6-25.6-2.6
					c-13.6,5.7-21.1,16.8-29.1,28.3C32.1,280.5,28.6,287.3,25.3,294.1z"/>
				<g>
					<path class="st2" d="M11.5,357.8c-1.9-7.1-1.7-14.5-0.5-21.6c2.3-14.4,8.2-28.9,14.4-42c3.2-6.8,6.7-13.6,11-19.8
						c8-11.5,15.5-22.6,29.1-28.3c2.9-1.2,6.1-1.5,9.3-1.5c8,8.2,9.9,20.3,4.3,30.2c-5.1,9.1-13.9,11.8-24.1,10.9
						c11,7.7,19.3,22,13.5,33.8c-4.1,8.3-15.5,15.3-26.4,12.6c10.9,8.2,1.3,24.9-6.9,29.4c-5.3,2.9-12,4.1-18.9,4
						C14.1,363.6,12.4,361.1,11.5,357.8z"/>
				</g>
			</g>
			<g>
				<path class="st5" d="M158,433.7c33.9-69.2,95.6-115.9,166.5-116.8c108.5-1.5,197.4,104.3,198.7,236.3
					c0.2,21.4-1.9,41.1-6.1,59.3C376.3,603.5,240.4,555.9,158,433.7z"/>
				<g>
					<g>
						<path class="st1" d="M219.2,869.6c13.8,0.6,28.6,0.6,41.9-2.3c6.6-1.4,13.2-3.7,18.6-7.5c6.8-4.8,6.2-12.1,6.6-19.5l7.6-129.2
							c2-33.3-25.9-62.1-62.2-64.3c-36.3-2.3-67.3,22.9-69.3,56.2c0,0-7.6,128.9-7.6,129.2c-0.4,7.3,1.4,15.9,7.4,21.2
							c10.1,9,22.6,11.4,35.6,14C204.8,868.7,212.1,869.2,219.2,869.6z"/>
						<path class="st2" d="M231.9,646.7c36.3,2.3,64.1,31,62.2,64.3c0,0-1.8,30.1-3.6,61.3c-45.9,1.4-90.9-12-129.8-36.1
							c1.1-19.1,2-33.4,2-33.4C164.5,669.5,195.5,644.4,231.9,646.7z"/>
						<g>
							<path class="st2" d="M279.8,859.8c-5.4,3.8-12,6.1-18.6,7.5c-13.4,2.9-28.2,2.9-41.9,2.3c-7.1-0.4-14.4-0.9-21.3-2.3
								c-13-2.6-25.5-5-35.6-14c-2.2-1.9-3.7-4.4-4.8-6.9c4.1-9.1,13.9-14.6,24.6-13.3c9.9,1.1,15.5,7.2,18.6,15.7
								c2.5-11.3,11.8-22.6,24.3-21.8c8.8,0.6,19.1,7.3,20.9,16.9c3-11.4,21.1-9.2,28.2-4.1c4.6,3.3,8.2,8.3,10.6,13.7
								C283.9,855.8,282.3,858,279.8,859.8z"/>
						</g>
					</g>
					<path class="st1" d="M130.4,558.5c1.2,132,89.9,202.4,198.3,200.9c108.5-1.5,195.7-74.2,194.5-206.2
						c-1.3-132-90.2-237.7-198.7-236.3C216.1,318.3,129.2,426.5,130.4,558.5z"/>
					<g>
						<path class="st1" d="M409.6,864.5c-13.7,1.3-28.5,2.1-42-0.2c-6.7-1.1-13.4-3-19-6.5c-7-4.4-6.9-11.8-7.7-19.1L326.3,710
							c-3.8-33.1,22.5-63.3,58.6-67.4c36.1-4.1,68.5,19.4,72.3,52.6c0,0,14.6,128.3,14.6,128.7c0.8,7.3-0.5,15.9-6.2,21.6
							c-9.6,9.5-21.9,12.5-34.8,15.8C424,862.9,416.8,863.8,409.6,864.5z"/>
						<g>
							<path class="st2" d="M348.6,857.8c5.6,3.5,12.3,5.4,19,6.5c13.5,2.2,28.3,1.5,42,0.2c7.2-0.7,14.3-1.7,21.2-3.4
								c12.9-3.2,25.2-6.3,34.8-15.8c2.1-2.1,3.4-4.5,4.4-7.1c-4.6-8.9-14.6-13.8-25.3-12.1c-9.8,1.6-15.1,8-17.8,16.6
								c-3.1-11.1-13.1-21.9-25.5-20.5c-8.7,1-18.7,8.3-20,17.9c-3.7-11.2-21.6-8.1-28.4-2.7c-4.4,3.5-7.7,8.7-9.9,14.3
								C344.3,854.1,346,856.2,348.6,857.8z"/>
						</g>
					</g>
				</g>
			</g>
			<path class="st2" d="M241.5,529.9c0,0-110.7,35.6-111.1,28.6c-0.8-15.6,5.2-54.6,5.2-54.6L241.5,529.9z"/>
			<g>
				<path class="st6" d="M50.7,420.6c-2.5,13.9-4.5,29.1-3,43.3c0.8,7,2.5,14.1,6.2,20.4c4.6,7.8,13.1,8.5,21.5,10.3l147.2,30.7
					c37.9,7.9,74.6-15.4,82-52.1c7.4-36.8-17.3-72.9-55.2-80.8c0,0-146.8-30.7-147.2-30.7c-8.3-1.7-18.4-1.4-25.3,3.8
					c-11.6,8.7-16,21-20.7,33.9C53.7,406.1,52.1,413.4,50.7,420.6z"/>
				<g>
					<path class="st2" d="M53.9,484.3c-3.7-6.2-5.4-13.3-6.2-20.4c-1.5-14.2,0.4-29.3,3-43.3c1.4-7.2,3-14.6,5.5-21.4
						c4.7-12.9,9.1-25.2,20.7-33.9c2.5-1.9,5.5-3,8.6-3.7c9.9,5.8,14.8,16.7,12,27.5c-2.6,9.9-10.3,14.6-20.4,16.3
						c12.6,4.6,24.3,16.1,21.8,28.7c-1.8,8.9-10.9,18.3-22.1,18.4c12.6,5.1,7.7,23.2,1,29.6c-4.3,4.1-10.5,6.9-17.1,8.4
						C58,489.1,55.7,487.2,53.9,484.3z"/>
				</g>
			</g>
			<path class="st7" d="M485.6,368.9c-9.8,13.7-21,25.9-33.3,35.4c-35.9,27.8-82.2,30.6-124.5,17.6c-22.3-6.8-43.4-17.5-62.9-30.3
				c-38.4-25.2-74.2-61-86.2-106.6c-5.5-21.2-5.1-43.5,1.1-64.5c3.1-10.6,9.2-34.1,19.9-39.7c4.3-2.2,10.8-0.8,15.6-1.9
				c28.6-6.8,32-32.2,51.9-48.5c16.9-13.9,45.4-28.1,67.8-28.4c13.3-0.2,26.7,0.4,39.7,2.7c26.7,4.8,49.3,16.2,71.1,32.1
				c18,13.1,34.3,28.7,48,46.3c15.7,20.2,31.1,54.4,29.9,80.7C522.4,298.7,507.7,337.8,485.6,368.9z"/>
			<path class="st7" d="M162.7,145.2c16.1,23.5,43.9,38.4,71.5,43.4c16.1,2.9,68.6-11.6,64.7,17.4c-1.3,9.6-4.5,21.3-8.7,30.1
				c-5.3,11.2-15.3,20.3-23.2,30.1c-8.2,10.9-27.6,44.1-41.3,47.4c-22.1,7.1-83.2-46.3-97.1-61.2C100,221.7,89.3,175,91.4,134.1
				c1.1-21.9,6.1-44.1,17-63.3c5.1-8.9,13-15.3,18.4-23.6c8-12.3-0.7-31.6,18-36.5c17.8-4.7,19.4,14.7,13.4,26.5
				c10.1-8,32.4-5.4,32.4,9.7c0,12.3-13.8,13.4-21.8,18.6c-11.6,7.7-17.2,19.1-18.5,32.9C148.9,115.9,153.6,131.9,162.7,145.2z"/>
			<path class="st2" d="M473.5,425.5c51.3-30.4,48.7-115.1,31.1-167.5c-7-20.9-30.1-38.2-52.7-39c-28.6-1-55.4,36.3-68.8,56.7
				c-24.9,38.1-97.4,146.4-8,164.7C408.3,447.1,445.9,441.9,473.5,425.5z"/>
			<g>
				<path class="st2" d="M148.4,111.4c-1.2,0-1.8,0.6-2.7,1.3c-1.7,1.3-3.5,2.2-5.5,2.7c-3.3,0.9-7.4-0.8-10.3,1
					c-0.8,0.5-1.1,1.7-0.5,2.5c2.6,3.7,9.6,2.1,13.2,0.7c2.6-1,8.1-4.6,6.3-8C148.7,111.5,148.5,111.4,148.4,111.4L148.4,111.4z"/>
			</g>
			<g>
				<path class="st2" d="M157,140.6c-2.5,3.7-5.3,6.8-9.2,9.1c-3.8,2.1-8.2,1.6-11.8,3.6c-0.8,0.4-0.8,1.6-0.2,2.2
					c3.8,3.4,10.8,0.2,14.4-2.1c4.2-2.7,8.2-7.4,7.4-12.6C157.6,140.4,157.2,140.3,157,140.6L157,140.6z"/>
			</g>
			<g>
				<path class="st2" d="M176.2,162c-2.5,4.1-3.9,8.8-6.5,13c-1.6,2.5-3.6,4.8-5.6,7c-1.8,1.9-4.3,3.1-5.4,5.4
					c-0.7,1.5,0.3,3.5,2.1,3.3c5.4-0.6,9.9-8.1,12.6-12.3c2.7-4.1,6.6-11.6,3.5-16.4C176.6,161.7,176.3,161.8,176.2,162L176.2,162z"
					/>
			</g>
			<g>
				<path class="st2" d="M200.9,177.1c0.8,5.4,0.3,10.6-1.3,15.9c-1.6,5.4-6.3,10.5-7.1,16c-0.3,2.1,1.9,3.9,3.8,2.7
					c5.4-3.5,8-13.1,9.4-19.1c1.4-5.6,1.3-12.8-4.3-15.9C201.2,176.6,200.8,176.8,200.9,177.1L200.9,177.1z"/>
			</g>
			<g>
				<path class="st2" d="M217.1,178.3c8.3,5.5,15.3,12.1,20.6,20.5c6.2,9.7,3.4,17.4,3.4,27.7c0,1.4,1.9,2.6,3.1,1.6
					c8.9-7.3,4.6-21.8,0.3-30.5c-5.1-10.3-15.4-19.6-27.1-20.6C216.5,176.9,216.5,177.9,217.1,178.3L217.1,178.3z"/>
			</g>
			<g>
				<path class="st2" d="M207.4,300.5c-6.7,13.6,11.5,25.7,23.2,24.7c15-1.4,24.9-16,23.2-30.2c-0.1-1-1.5-1.2-1.8-0.2
					c-2.7,11-9.8,21.7-21.7,23.5c-5.1,0.7-9.9-1.2-13.6-4.6c-4-3.7-4.7-9.5-8.6-13.3C207.9,300.2,207.5,300.3,207.4,300.5
					L207.4,300.5z"/>
			</g>
			<g>
				<path class="st8" d="M333.3,162.3c4.1-2.9,9.7-5.6,14.6-3c5.3,2.7,0.9,8.7,1.1,12.6c0.1,1.5,1.8,2.5,3.1,1.6
					c5.5-3.9,4.1-14.2-0.9-17.9c-6.3-4.5-14.9-1.3-20.5,2.8C328.4,160.2,330.9,164,333.3,162.3L333.3,162.3z"/>
			</g>
			
				<ellipse transform="matrix(0.7071 -0.7071 0.7071 0.7071 -46.2713 282.0744)" class="st8" cx="317.4" cy="196.9" rx="15.7" ry="8.6"/>
		</g>
	</g>
</g>
</svg>
