<?xml version="1.0" encoding="utf-8"?>
<!-- Generator: Adobe Illustrator 24.1.2, SVG Export Plug-In . SVG Version: 6.00 Build 0)  -->
<svg version="1.1" id="Слой_2" xmlns="http://www.w3.org/2000/svg" xmlns:xlink="http://www.w3.org/1999/xlink" x="0px" y="0px"
	 viewBox="0 0 636 880" style="enable-background:new 0 0 636 880;" xml:space="preserve">
<style type="text/css">
	.st0{fill:#3B3B3B;}
</style>
<g>
	<g>
		<path class="st0" d="M621.1,532.8c-6.2,0.1-11.4,9.5-13.7,13.8c1.9-6.7,12-24.3,6-30.7c-8.3-8.8-26.9,9.1-31.6,14.5
			c-12.8,14.8-19.5,41.8-11.3,59.8c0.4,0.8,1.2,2.4,2.4,4c-10.7,25.3-41,39.3-64.2,46.5c4.9-13,8.7-26.9,11.2-41.9
			c0.1-0.3,0.1-0.6,0.2-1c0.3-1.7,0.5-3.5,0.8-5.2c0.1-0.8,0.2-1.6,0.3-2.5c0.2-1.3,0.3-2.6,0.5-4c0.1-1,0.2-1.9,0.3-2.9
			c0.2-2,0.4-4,0.5-6.1c0.1-1,0.1-2,0.2-3.1c0.1-1.3,0.2-2.5,0.2-3.8c0.1-1,0.1-2.1,0.1-3.1c0.1-1.4,0.1-2.8,0.1-4.2
			c0-0.9,0-1.8,0.1-2.7c0-2.3,0.1-4.7,0-7.1C522.7,502,509,454.7,486,416.1c26-24.4,32.6-66.7,29.1-106.3c5-15.5,8-31.1,8.5-46
			c1.2-26.3-14.2-60.5-29.9-80.7c-13.7-17.6-30-33.2-48-46.3c-21.8-15.9-44.4-27.3-71.1-32.1c-13-2.3-26.4-2.9-39.7-2.7
			c-22.4,0.3-50.9,14.5-67.8,28.4c-18.7,15.3-22.8,38.6-46.9,47c-1-0.2-1.9-0.4-2.9-0.4c-0.9-0.1-0.9,0.9-0.3,1.3
			c0,0,0.1,0.1,0.1,0.1c-0.6,0.2-1.3,0.4-1.9,0.5c-3,0.7-6.7,0.4-10.1,0.6c-0.3-0.1-0.6-0.3-1-0.4c-0.7-0.9-1.6-1.8-2.8-2.4
			c-0.2-0.1-0.6,0.1-0.5,0.4c0,0.1,0,0.3,0.1,0.4c-15.2-7.6-28.8-18.5-38.3-32.3c-9.1-13.3-13.8-29.3-12.4-46.8
			c1.3-13.8,6.9-25.2,18.5-32.9c8-5.2,21.8-6.3,21.8-18.6c0-15.1-22.3-17.7-32.4-9.7c6-11.8,4.4-31.2-13.4-26.5
			c-18.7,4.9-10,24.2-18,36.5c-5.4,8.3-13.3,14.7-18.4,23.6c-10.9,19.2-15.9,41.4-17,63.3c-2.1,40.9,8.6,87.6,37.2,118.3
			c6.4,6.9,23,22.1,41.2,35.7c-37-18.5-78.8-39.4-79-39.5c-7.7-3.8-17.5-6-25.6-2.6c-13.6,5.7-21.1,16.8-29.1,28.3
			c-4,6.2-7.5,13-10.8,19.8c-6.2,13.1-12.1,27.6-14.4,42c-1.1,7.1-1.4,14.6,0.5,21.6c2.4,8.9,10.4,11.7,18.1,15.5l30.8,15.4
			c-1.4,3.5-2.7,7-4.1,10.6c-2.5,6.8-4.1,14.2-5.5,21.4c-2.6,14-4.5,29.1-3,43.3c0.8,7.1,2.5,14.2,6.2,20.4
			c4.6,7.8,13.1,8.5,21.5,10.3l59.1,12.3c-2.4,14-3.8,28.4-4.1,43.2c-0.1,3.2-0.2,6.1-0.1,8.4c0.5,51.1,14,93,36.8,125
			c-2.7,6-4.4,12.6-4.8,19.5c0,0-7.6,128.9-7.6,129.2c-0.4,7.3,1.4,15.9,7.4,21.2c10.1,9,22.6,11.4,35.6,14c7,1.3,14.3,1.8,21.4,2.2
			c4.3,0.2,8.7,0.3,13.2,0.3c9.7,0,19.6-0.6,28.8-2.6c6.6-1.4,13.2-3.7,18.6-7.5c2.5-1.8,4.1-4,5-6.3c0-0.1-0.1-0.1-0.1-0.2
			c1.5-3.9,1.3-8.5,1.6-13l4-68c0.1,0,0.1,0,0.2,0c0.3-5.2,0.6-10.4,0.9-15.3c12.1,1.8,24.6,2.6,37.3,2.4c1.1,0,2.1,0,3.2-0.1
			l9,79.4c0.5,4.5,0.6,9,2.3,12.8c0,0.1-0.1,0.1-0.1,0.2c1.2,2.4,2.9,4.5,5.5,6.1c5.6,3.5,12.3,5.4,19,6.5c13.5,2.3,28.3,1.5,42,0.2
			c7.2-0.7,14.4-1.6,21.2-3.2c12.9-3.3,25.2-6.3,34.8-15.8c5.7-5.7,7-14.3,6.2-21.6c0-0.3-8.6-76.3-12.6-111.3
			c15.4-13.5,28.6-29.8,38.9-48.9c26.4-6.1,76.5-22.6,92.9-62.5c3.6-0.6,7.3-2.2,9.6-3.4c11.5-6.1,20-16.8,23.9-29.2
			C626.9,561.1,627.7,532.6,621.1,532.8z"/>
	</g>
</g>
</svg>
