<?xml version="1.0" encoding="utf-8"?>
<!-- Generator: Adobe Illustrator 24.1.2, SVG Export Plug-In . SVG Version: 6.00 Build 0)  -->
<svg version="1.1" xmlns="http://www.w3.org/2000/svg" xmlns:xlink="http://www.w3.org/1999/xlink" x="0px" y="0px"
	 viewBox="0 0 251 366" style="enable-background:new 0 0 251 366;" xml:space="preserve">
<style type="text/css">
	.st0{fill:#3B3B3B;}
</style>
<g id="Слой_2">
</g>
<g id="Слой_3">
	<path class="st0" d="M241.4,243.4c-0.6-36.8-28.4-111.9-72.9-144.2c0-0.5,0.1-1.1,0.1-1.6c0-0.2,0-0.3,0-0.5
		c18.1-2.4,29.1-13.8,30-31.4c1.2-21.9-17.1-49.7-40.1-50.9c-15.7-0.9-29.3,8.1-35.7,23.4c-4-0.9-8-1.5-12.2-1.5
		c-2.8-0.1-5.5,0.1-8.3,0.4C97.6,21.2,85,10.8,69.3,10C46.3,8.8,25.1,34.5,24,56.4c-1,17.5,8.7,30.1,26.4,34.4
		c-0.2,1.5-0.3,3-0.3,4.5c-0.3,16,5.5,31.1,16.5,42.6c0,0,0.1,0.1,0.1,0.1c-43.8,11.6-33.8,48.8,10.3,74.1
		c15.9,9.1,34.5,16.3,69.8,5.5c11.5-3.6,9.9,49-0.3,55.4c-5.2,3.2-17.5-5.9-23.4-7.6c-35.2-10-50.7,17.9-50.7,17.9l-5.7-5.8
		c-1.1-1.1-2.2-2-3.5-2.7c0.3-1.8-0.3-3.7-1.5-5c0.9-0.5,1.5-1.5,1.3-2.6l-1.1-8l-3.8,6.9c-0.3,0.5-0.4,1-0.3,1.6c0,0.1,0,0.1,0,0.2
		c-2.7-0.3-5.4,1.2-6.5,3.8c0,0.1,0,0.2-0.1,0.2c-1-1.5-2.5-2.4-4.2-2.7c0.1-0.6-0.1-1.3-0.6-1.9l-5-6.4l0.3,7.9
		c0,0.5,0.2,1.1,0.6,1.5c-2.1,1.6-3,4.4-2.1,7c-0.6-0.2-1.3-0.2-2-0.2c-2.1,0.2-3.9,1.3-4.9,3c-0.2-0.2-0.5-0.4-0.9-0.6l-7.5-3.2
		l4.2,6.8c0.3,0.5,0.7,0.9,1.3,1.1c0.7,0.3,1.5,0.3,2.1,0c0.3,1.8,1.4,3.3,2.9,4.2c-0.3,3.2,0.3,6.6,1.8,9.7
		c4.4,8.9,9.9,19.4,12.8,22.9c11.8,14.3,37.4,29.5,65.8,33.9C135.4,358,243.3,361,241.4,243.4z"/>
</g>
</svg>
