<?xml version="1.0" encoding="utf-8"?>
<!-- Generator: Adobe Illustrator 24.1.2, SVG Export Plug-In . SVG Version: 6.00 Build 0)  -->
<svg version="1.1" xmlns="http://www.w3.org/2000/svg" xmlns:xlink="http://www.w3.org/1999/xlink" x="0px" y="0px"
	 viewBox="0 0 251 366" style="enable-background:new 0 0 251 366;" xml:space="preserve">
<style type="text/css">
	.st0{fill:#FFFFFF;}
	.st1{fill:#B0B0B0;}
	.st2{fill:#A8A8A8;}
	.st3{fill:#696969;}
	.st4{fill:#3A352D;}
</style>
<g id="Слой_2">
</g>
<g id="Слой_3">
	<g>
		<path class="st0" d="M251.4,243.3c-0.3-22.1-9.2-53.8-23.2-82.7c-11.6-24-25.8-44.1-41.2-58.8c12.9-6.8,20.7-19.3,21.5-35.5
			c0.8-15-5.6-32-16.8-44.4c-9.3-10.4-20.9-16.4-32.7-17c-0.9-0.1-1.8-0.1-2.7-0.1c-16.1,0-30.5,8.4-39.1,22.4
			c-2.2-0.3-4.4-0.4-6.5-0.4c-0.6,0-1.1,0-1.7,0c0,0-0.1,0-0.1,0C101.6,10.9,87.2,0.9,69.8,0.1C69.1,0,68.4,0,67.7,0
			C39,0,15.3,30.1,14,55.9C12.9,75.2,22.7,90.8,40.1,98c0.3,12.7,3.9,24.9,10.4,35.4c-16.6,8.2-20.8,20.3-21.8,27.5
			C26,181.3,42.2,203.7,72,220.8c10.6,6.1,23.9,12.2,42.7,12.2c9,0,18.6-1.4,29.2-4.2c0.6,3.4,1.1,9.1,0.7,16.6
			c-0.5,8.6-2,14.5-3.1,17.6c-2.1-0.9-4.9-2.3-6.6-3.2c-3.2-1.6-6.2-3.2-9.1-4c-5.9-1.7-11.8-2.5-17.4-2.5c-16.5,0-28,7.1-35.3,13.8
			c0-0.4,0-0.8-0.1-1.3l-5.2-37.9l-16.3,29.5l-21.1-27l1.4,37.4c-0.1,0.2-0.2,0.3-0.3,0.5L0,254.9l20.7,33.6c1.2,2,2.9,3.5,4.8,4.6
			c0.3,3.3,1.3,6.6,2.8,9.7c9.7,19.5,13,23.5,14.1,24.8c12.4,15,39.4,32.4,72,37.4c4.3,0.6,10.2,1,16.2,1c21.4,0,61.5-4.3,90.1-33.4
			C241.7,311.4,252,281.4,251.4,243.3z"/>
		<g>
			<path class="st1" d="M160.8,94.1c48.9,28.7,80,110.4,80.6,149.3C243.3,361,135.4,358,116,355.1c-28.4-4.4-54-19.6-65.8-33.9
				c-2.9-3.5-8.4-14-12.8-22.9c-4-8-1.6-17.6,5.6-22.8l0,0c7.3-5.3,17.4-4.4,23.7,2l5.7,5.8c0,0,15.5-27.9,50.7-17.9
				c5.9,1.7,18.2,10.8,23.4,7.6c10.2-6.4,11.8-59,0.3-55.4c-35.3,10.8-53.9,3.6-69.8-5.5c-44.1-25.3-54.1-62.5-10.2-74.1
				C97.7,129.7,139.2,81.4,160.8,94.1z"/>
			<g>
				<path d="M29.3,283.2c0.3,0.5,0.7,0.9,1.3,1.1c1.4,0.6,2.9,0,3.5-1.3c0.6-1.3-0.1-2.8-1.5-3.4l-7.5-3.2L29.3,283.2z"/>
				<path d="M46.6,267.3l-5-6.4l0.3,7.9c0,0.5,0.2,1.1,0.6,1.6c0.9,1.2,2.6,1.4,3.7,0.6C47.3,270.1,47.5,268.5,46.6,267.3z"/>
				<path d="M58.2,266c-0.3,0.5-0.4,1-0.3,1.6c0.2,1.5,1.5,2.5,3,2.4c1.4-0.1,2.4-1.4,2.2-2.9l-1.1-8L58.2,266z"/>
			</g>
			<path class="st2" d="M51.4,271.6c-1.2,3.2,0.3,6.8,3.5,8s6.8-0.3,8-3.5c1.2-3.2-0.3-6.8-3.5-8S52.7,268.5,51.4,271.6z"/>
			
				<ellipse transform="matrix(0.9153 -0.4027 0.4027 0.9153 -106.9711 41.9041)" class="st2" cx="46.2" cy="275.3" rx="6.2" ry="6.2"/>
			
				<ellipse transform="matrix(0.998 -6.358623e-02 6.358623e-02 0.998 -17.9387 3.0394)" class="st2" cx="38.8" cy="283.3" rx="6.2" ry="6.2"/>
			<g>
				<path class="st2" d="M24,56.4C25.1,34.5,46.3,8.8,69.3,10c15.7,0.8,28.3,11.2,33,27.1c2.8-0.3,5.5-0.5,8.3-0.4
					c4.2,0,8.2,0.6,12.2,1.5c6.4-15.3,20-24.3,35.7-23.4c23,1.2,41.3,29,40.1,50.9c-0.9,17.6-11.9,29-30,31.4c0,0.2,0,0.3,0,0.5
					c-0.6,32.9-27.7,59.2-60.4,58.6c-0.7,0-1.4,0-2.1-0.1c-15-0.8-29-7.2-39.5-18.2c-11-11.5-16.8-26.6-16.5-42.6
					c0-1.5,0.1-3,0.3-4.5C32.7,86.5,23,73.9,24,56.4z"/>
				<path class="st3" d="M46.1,40.3c-5.7,9.6-4,21.1,3.8,25.7s18.7,0.6,24.4-9s4-21.1-3.8-25.7C62.7,26.6,51.8,30.7,46.1,40.3z"/>
				
					<ellipse transform="matrix(0.9099 -0.4148 0.4148 0.9099 -7.8561 72.0704)" class="st3" cx="162" cy="54.1" rx="16.4" ry="20.2"/>
			</g>
			<g>
				<g>
					<path class="st4" d="M95.7,108.6c-1.7-5.6,1.1-8.5,6.7-8.7c4.2-0.1,9-1.8,10.2,4.7c1.2,6.2-1.4,14.3-6,14.7
						c0.1,3.5,0.9,6.9,1.3,10.3c5.6-1.3,11.5-8.6,10.6-14.3c-0.1-1,1.4-1,1.6-0.1c1.1,7.3-6.4,14.9-13.2,16.2
						c-7.6,1.4-14.9-7.2-14.9-14.2c0-1,1.6-1.1,1.6-0.1c0,6.6,6.2,13.1,12.8,12.7c-0.4-3.6-1.2-7.1-1.3-10.6
						C100.4,118.4,97.3,113.9,95.7,108.6z"/>
				</g>
				<path class="st4" d="M78.4,90.1c0.6,2.1,2.8,3.4,4.9,2.8s3.4-2.8,2.8-4.9c-0.6-2.1-2.8-3.4-4.9-2.8C79.2,85.8,77.9,88,78.4,90.1
					z"/>
				<path class="st4" d="M120.3,88.4c0.6,2.1,2.8,3.4,4.9,2.8s3.4-2.8,2.8-4.9c-0.6-2.1-2.8-3.4-4.9-2.8
					C121,84.1,119.7,86.3,120.3,88.4z"/>
			</g>
		</g>
	</g>
</g>
</svg>
