<?xml version="1.0" encoding="utf-8"?>
<!-- Generator: Adobe Illustrator 24.1.2, SVG Export Plug-In . SVG Version: 6.00 Build 0)  -->
<svg version="1.1" id="Слой_3" xmlns="http://www.w3.org/2000/svg" xmlns:xlink="http://www.w3.org/1999/xlink" x="0px" y="0px"
	 viewBox="0 0 714 614" style="enable-background:new 0 0 714 614;" xml:space="preserve">
<style type="text/css">
	.st0{fill:#3B3B3B;}
</style>
<g>
	<g>
		<path class="st0" d="M686.1,390.3c-2.5-3.3-5-6.2-7.6-8.8c10.5-9.3,13.5-26.6,7-40.8c-15.5-33.8-48.9-8.5-60.5-53.5
			c0,0-26.6,89.6,28.5,100.2c4.1,0.8,7.9,0.8,11.3,0.3c3.4,3.2,7,7,10.4,11.6c14.1,18.8,18.3,39.8,12.3,62.4
			c-5.1,19.3-20.7,32.1-46.3,38.1c-15.2,3.5-29.7,3.6-36,3.4c0.9-3.2,1.5-6.2,2-8.7c8.8-50.2-0.2-134.2-74.9-189.5
			c-21.3-15.7-70.7-39.2-112.1-57.7c-2.1-8.6-19.8-19.4-19.4-27.5c0.7-9.1,24.2-18.1,23.6-26.9c-0.6-9.1-25.2-14.6-27.1-23.3
			c-2-8.9,17.9-24.4,14.6-32.7c-3.2-8.4-28.3-6.4-32.8-14.2s9.8-28.4,4.2-35.5c-5.6-7-29,2.3-35.6-3.9c-6.5-6.1,1.2-30-6.2-35.2
			c-7.3-5.1-27.1,10.4-35.2,6.2c-7.9-4-6.9-29.1-15.5-32.2c-8.3-3-23.5,17.2-32.4,15.2c-9-1.9-14.5-26.5-23.4-27.3
			c-9.2-0.9-18.8,22.4-27.8,22.8c-9.1,0.4-20.7-22-29.6-20.4c-9,1.6-12.1,26.6-20.7,29.4c-8.6,2.8-25.9-15.6-34-11.6
			c-8.2,4-4.2,28.9-11.7,34c-7.5,5.2-29.3-7.4-35.9-1.2c-6.6,6.2,4.5,28.7-1.1,35.9c-5.5,7.1-30.1,1.6-34.6,9.6
			c-4.4,7.8,13,26,9.8,34.6c-3.1,8.4-28.2,10.4-30.2,19.5c-2.1,9.4,19.2,23.1,17.7,32.1c-1.6,9.6-26.2,16.1-26.9,25.1
			c-0.8,9.8,22.5,19.4,23,28.5c0.6,9.6-21.2,22.5-18.9,31.4c2.4,9.1,27.4,9,32.1,17.3c4.4,7.9-8.7,29.3-1.9,36.4
			c6.1,6.4,28.4-5.4,36.7,0.3c7.2,5,3.4,29.9,12.4,34.4c7.9,3.9,25.8-13.9,35.2-10.4c8.3,3.1,9.8,28.4,19.3,31.2
			c2,0.6,4.3-0.1,6.9-1.4l33.8,161.7c-13.5,0-24.5,11-24.5,24.5v16c0,3.4,2.2,6.5,5.5,7.6c4.5,1.5,11.3,3.5,19.1,5c0,0,0,0,0,0
			c3.7,0.7,7.6,1.2,11.6,1.5c0.1,0,0.2,0,0.3,0c0.6,0,1.2,0.1,1.8,0.1c0.5,0,0.9,0,1.4,0.1c0.3,0,0.6,0,0.9,0
			c11,0.3,22-1.8,29.8-8.7c26.5-23.6,8-136,43.5-135.3c22.7,0.4,24.6,87.4,24.6,87.4c-9.9,0-17.8,8-17.7,17.9l0.2,14.9
			c0.1,9.8,7.2,18.1,16.9,19.6c2.1,0.3,4.2,0.7,6.5,1c0,0,0,0,0,0c15.1,2,33.2,3,40.1-2.4c0,0,0-0.1,0-0.1c0.1-0.1,0.3-0.2,0.4-0.3
			c18.9-16.5,23.4-63.1,33.8-101.5l-2.3,11.7c0,0,9.4-28.3,39.6-28.1c26.4,0.2,39.6,52.4,42.9,67.3c-1.9,4.4-3.2,7.1-3.2,7.1
			l-37.1,14.2c-5.7,2.2-9.5,7.7-9.5,13.8v4.1c0,8.5,6.9,15.4,15.4,15.4H534c20.7,0,39.4-12.6,47.2-31.9
			c6.6-16.5,14.4-36.6,19.8-53.1c1,0,4.2,0.2,8.8,0.2c8.1,0,20.8-0.6,34.2-3.7c30.8-7.1,50.5-23.8,57-48.3
			C708.1,438.4,702.9,412.5,686.1,390.3z"/>
	</g>
</g>
</svg>
