<?xml version="1.0" encoding="utf-8"?>
<!-- Generator: Adobe Illustrator 24.1.2, SVG Export Plug-In . SVG Version: 6.00 Build 0)  -->
<svg version="1.1" id="Слой_3" xmlns="http://www.w3.org/2000/svg" xmlns:xlink="http://www.w3.org/1999/xlink" x="0px" y="0px"
	 viewBox="0 0 714 614" style="enable-background:new 0 0 714 614;" xml:space="preserve">
<style type="text/css">
	.st0{fill:#DE741D;}
	.st1{fill:#FAB330;}
	.st2{fill:#E68C26;}
	.st3{fill-rule:evenodd;clip-rule:evenodd;fill:#FAD54F;}
	.st4{fill:#3B3B3B;}
	.st5{fill:#FBF4AF;}
</style>
<g>
	<path class="st0" d="M463.8,551.4c0,0-12.9-71.1-43.7-71.3c-30.2-0.2-39.6,28.1-39.6,28.1l21.2-109.7L508.5,418L463.8,551.4z"/>
	<path class="st1" d="M354,218.9c0,0,138.5,56.7,178.3,86.1c74.7,55.3,83.7,139.3,74.9,189.5c-2.9,16.4-15.8,50.3-26,75.6
		c-7.8,19.3-26.5,31.9-47.2,31.9H428.6c-8.5,0-15.4-6.9-15.4-15.4v-4.1c0-6.1,3.8-11.6,9.5-13.8l37.1-14.2
		c0,0,56.8-115.1-29.7-115.1c-59.7,0-46.9,128.7-81.1,158.6c-7.5,6.6-30.8,4.4-47,1.8c-9.7-1.5-16.8-9.8-16.9-19.6l-0.2-14.9
		c-0.1-9.9,7.8-17.9,17.7-17.9l0,0c0,0-1.9-87-24.6-87.4c-35.5-0.7-17,111.7-43.5,135.3c-17.6,15.7-51.6,6.4-64.9,2
		c-3.3-1.1-5.5-4.2-5.5-7.6v-16c0-13.5,11-24.5,24.5-24.5l0,0l-57.4-274.6L354,218.9z"/>
	<g>
		<path class="st0" d="M328.2,573.5c11.5,0,20.8,9.3,20.8,20.8c0,1.4-0.1,2.8-0.4,4.1c-6.9,5.4-25,4.4-40.1,2.4
			c-0.7-2.1-1.1-4.2-1.1-6.5C307.4,582.8,316.7,573.5,328.2,573.5z"/>
		<path class="st0" d="M209.5,581.5c10.2,0,18.7,7.3,20.4,17c-11.6,7-27.8,6.3-41.2,3.8l0,0C188.8,590.8,198.1,581.5,209.5,581.5z"
			/>
	</g>
	<g>
		<path class="st1" d="M609.8,517.2c8.1,0,20.8-0.6,34.2-3.7c30.8-7.1,50.5-23.8,57-48.3c7.1-26.8,1.9-52.7-14.9-74.9
			c-12.6-16.5-27.2-25.2-27.8-25.5l-7.1,12.2c0.1,0.1,13.1,7.8,24,22.3c14.1,18.8,18.3,39.8,12.3,62.4
			c-5.1,19.3-20.7,32.1-46.3,38.1c-20.2,4.7-39.1,3.2-39.3,3.2l-1.2,14C601,516.9,604.4,517.2,609.8,517.2z"/>
	</g>
	<path class="st0" d="M653.5,387.4c29.2,5.6,42.2-24.5,32-46.7c-15.5-33.8-48.9-8.5-60.5-53.5C625,287.2,598.4,376.8,653.5,387.4z"
		/>
	<g>
		<g>
			<path class="st0" d="M420.3,250.1c-2.1,9.5-27.2,13-29.7,21.9c-2.7,9.4,16.6,25.9,13.2,34.5c-3.6,9.1-28.8,7.7-33.3,15.7
				c-4.8,8.5,9.1,29.7,3,36.8c-6.2,7.2-28.9-3.5-36.7,2.1c-7.5,5.4-4.5,30.4-13.7,34.1c-8.3,3.4-23.9-16.5-33.8-14.7
				c-8.8,1.6-15.8,25.9-25.9,26.2c-8.9,0.2-17.7-23.5-27.8-24.4c-8.9-0.8-21.3,21.4-31.2,19.7c-8.9-1.5-13.6-26.4-23.3-28.7
				c-9.6-2.2-24.7,18.1-33.2,15.6c-9.5-2.8-11-28.1-19.3-31.2c-9.4-3.5-27.3,14.3-35.2,10.4c-9-4.5-5.2-29.4-12.4-34.4
				c-8.3-5.7-30.6,6.1-36.7-0.3c-6.8-7.1,6.3-28.5,1.9-36.4c-4.7-8.3-29.7-8.2-32.1-17.3c-2.3-8.9,19.5-21.8,18.9-31.4
				c-0.5-9.1-23.8-18.7-23-28.5c0.7-9,25.3-15.5,26.9-25.1c1.5-9-19.8-22.7-17.7-32.1c2-9.1,27.1-11.1,30.2-19.5
				c3.2-8.6-14.2-26.8-9.8-34.6c4.5-8,29.1-2.5,34.6-9.6c5.6-7.2-5.5-29.7,1.1-35.9c6.6-6.2,28.4,6.4,35.9,1.2
				c7.5-5.1,3.5-30,11.7-34c8.1-4,25.4,14.4,34,11.6s11.7-27.8,20.7-29.4c8.9-1.6,20.5,20.8,29.6,20.4c9-0.4,18.6-23.7,27.8-22.8
				c8.9,0.8,14.4,25.4,23.4,27.3c8.9,2,24.1-18.2,32.4-15.2c8.6,3.1,7.6,28.2,15.5,32.2c8.1,4.2,27.9-11.3,35.2-6.2
				c7.4,5.2-0.3,29.1,6.2,35.2c6.6,6.2,30-3.1,35.6,3.9c5.6,7.1-8.7,27.7-4.2,35.5s29.6,5.8,32.8,14.2c3.3,8.3-16.6,23.8-14.6,32.7
				c1.9,8.7,26.5,14.2,27.1,23.3c0.6,8.8-22.9,17.8-23.6,26.9C400.3,228.8,422.2,241.1,420.3,250.1z"/>
		</g>
		<path class="st1" d="M277.4,147.4c2,22.8,22.1,39.7,44.9,37.7S362,163,360,140.2s-22.1-39.7-44.9-37.7
			C292.3,104.5,275.4,124.6,277.4,147.4z"/>
		<path class="st2" d="M297,145.7c1,12,11.6,20.9,23.6,19.8c12-1,20.9-11.6,19.8-23.6c-1-12-11.6-20.9-23.6-19.8
			C304.8,123.1,295.9,133.7,297,145.7z"/>
		<path class="st1" d="M107.9,116.9c2,22.8,22.1,39.7,44.9,37.7s39.7-22.1,37.7-44.9c-2-22.8-22.1-39.7-44.9-37.7
			C122.7,74,105.9,94.1,107.9,116.9z"/>
		<path class="st2" d="M127.4,115.2c1,12,11.6,20.9,23.6,19.8c12-1,20.9-11.6,19.9-23.6s-11.6-20.9-23.6-19.8
			C135.2,92.6,126.4,103.2,127.4,115.2z"/>
		<path class="st1" d="M104.4,294.7c15.7,9.3,32.6,17.8,50,24.8c26,10.6,53.1,17.9,79.2,20c37.7,3,73.5-5,100.9-30.2
			c34.6-31.9-1.7-121.3-25.8-154.9c-39.5-55.1-102-65.1-166.3-16.3C58,202.1,63.3,270.5,104.4,294.7z"/>
		<g>
			
				<ellipse transform="matrix(0.6093 -0.7929 0.7929 0.6093 -121.9415 286.7885)" class="st3" cx="230.1" cy="267.1" rx="30.6" ry="35.1"/>
			
				<ellipse transform="matrix(0.6093 -0.7929 0.7929 0.6093 -135.8934 247.2508)" class="st3" cx="183" cy="261.5" rx="30.6" ry="35.1"/>
		</g>
		<g>
			<g>
				<path class="st4" d="M229.7,230.4c0,8.3-3.5,25.5-19.5,24.2c-28.2-2.3-14.6-43.1-1.2-47.8C225.9,201,229.7,218.6,229.7,230.4z"
					/>
				<g>
					
						<rect x="185.3" y="261.4" transform="matrix(0.1668 -0.986 0.986 0.1668 -86.3928 423.7981)" class="st4" width="44.5" height="3.2"/>
				</g>
				<g>
					<path class="st4" d="M207.7,287.4c8.3-0.7,15.4-7,17.1-15.8l1.2-6c0.2-0.9-0.4-1.7-1.3-1.9c-0.9-0.2-1.7,0.4-1.9,1.3l-1.2,6
						c-1.7,8.7-9.7,14.5-18.2,13.1c-4.2-0.7-7.9-3.1-10.4-6.6c-2.6-3.8-3.6-8.3-2.7-12.9l0.9-4.4c0.2-0.9-0.4-1.7-1.3-1.9
						c-0.9-0.2-1.7,0.4-1.9,1.3l-0.9,4.4c-1.1,5.4,0.1,10.8,3.2,15.3c3,4.3,7.4,7.1,12.5,8C204.6,287.5,206.2,287.6,207.7,287.4z"/>
				</g>
			</g>
			<path class="st4" d="M258.4,202.5c-1.1,4.8,1.1,9.3,4.9,10s7.8-2.6,8.9-7.5s-1.1-9.3-4.9-10S259.5,197.7,258.4,202.5z"/>
			<path class="st4" d="M169.2,189.3c-1.1,4.8,1.1,9.3,4.9,10c3.8,0.7,7.8-2.6,8.9-7.5c1.1-4.8-1.1-9.3-4.9-10
				C174.4,181.1,170.4,184.5,169.2,189.3z"/>
		</g>
		<g>
			<path class="st0" d="M217.2,90.7c0,0,12.8,29.4-26.6,65.2c0,0,58.6-16.3,65.7-50.6C262.3,75.9,217.2,90.7,217.2,90.7z"/>
			<path class="st0" d="M209.6,72.4c0,0,12.7,29.4-26.6,65.2c0,0,56.9-13.7,65.6-50.6C255.5,57.7,209.6,72.4,209.6,72.4z"/>
			<path class="st0" d="M235.2,88.3c-2.1,6.4,8.1,51-3.4,70.3c0,0,49.3-30.4,45.1-69.6C273.6,59.3,235.2,88.3,235.2,88.3z"/>
		</g>
		<g>
			<g>
				<g>
					<path class="st5" d="M93.5,258.4c0.1,0,0.3-0.1,0.4-0.1c27.2-16.3,54.9-17.1,55.2-17.2c0.6,0,1-0.5,1-1s-0.5-1-1-1
						c-0.3,0-28.5,0.9-56.2,17.4c-0.5,0.3-0.6,0.9-0.3,1.4C92.8,258.2,93.2,258.4,93.5,258.4z"/>
				</g>
				<g>
					<path class="st5" d="M100.9,285.7c0.3,0,0.6-0.2,0.7-0.4c17.8-26.6,45.2-30.3,45.5-30.4c0.5-0.1,0.9-0.6,0.9-1.1
						c-0.1-0.5-0.5-0.9-1.1-0.9l0,0c-0.3,0-28.6,3.8-46.9,31.2c-0.3,0.5-0.2,1.1,0.3,1.4C100.4,285.6,100.6,285.7,100.9,285.7z"/>
				</g>
			</g>
			<g>
				<g>
					<path class="st5" d="M307.6,297.8c0.2,0,0.3-0.1,0.4-0.2c0.5-0.3,0.6-0.9,0.3-1.4C291,269,266.2,255.6,266,255.4
						c-0.5-0.3-1.1-0.1-1.3,0.4c-0.3,0.5-0.1,1.1,0.4,1.3c0.2,0.1,24.6,13.3,41.6,40.1C306.8,297.7,307.2,297.9,307.6,297.8z"/>
				</g>
				<g>
					<path class="st5" d="M288.7,319L288.7,319c0.6-0.1,1-0.6,0.9-1.1c-4-32.6-27.6-48.7-27.8-48.9c-0.5-0.3-1.1-0.2-1.4,0.3
						s-0.2,1.1,0.3,1.4c0.2,0.2,23.1,15.8,26.9,47.5C287.7,318.6,288.2,319,288.7,319z"/>
				</g>
			</g>
		</g>
	</g>
</g>
</svg>
