<?xml version="1.0" encoding="utf-8"?>
<!-- Generator: Adobe Illustrator 24.1.2, SVG Export Plug-In . SVG Version: 6.00 Build 0)  -->
<svg version="1.1" xmlns="http://www.w3.org/2000/svg" xmlns:xlink="http://www.w3.org/1999/xlink" x="0px" y="0px"
	 viewBox="0 0 187 155" style="enable-background:new 0 0 187 155;" xml:space="preserve">
<style type="text/css">
	.st0{fill:#FFFFFF;}
	.st1{fill:#E24444;}
	.st2{fill:#79964D;}
	.st3{fill:#8CB351;}
	.st4{fill:#3A352D;}
</style>
<g id="Слой_1">
</g>
<g id="Слой_2">
	<g>
		<g>
			<g>
				<path class="st0" d="M187,89.8l0.8-0.1l-1.4-9.6c-0.5-3.4-1.1-6.4-1.9-9l-2.6-9.2l-0.7,0.2c-0.8-2-1.8-3.9-2.8-5.9l1.1-0.5
					l-8.1-10.8c-1.8-2.4-3.7-4.6-5.1-6l-7-7.5l-0.7,0.7c-1-0.8-2-1.5-3.1-2.3c-0.7-0.4-1.3-0.9-2-1.3l0.1-0.2l-4.7-2.6
					c-0.9-0.5-1.7-1-2.6-1.4l-0.6-0.4c-2.4-1.3-4.7-2.5-7-3.4l-8.1-3.5l-0.1,0.2c-1.5-0.5-2.9-1.1-4.4-1.6l0.2-0.3l-8.5-2.4
					c-1.9-0.6-3.9-1.1-5.8-1.7c-0.1-0.1-0.1-0.3-0.2-0.4c-0.1-0.1-0.1-0.3-0.2-0.4c-0.1-0.1-0.1-0.3-0.2-0.4
					c-0.1-0.1-0.1-0.3-0.2-0.4c0,0,0,0,0,0c-0.1-0.1-0.1-0.3-0.2-0.4c-0.1-0.1-0.1-0.3-0.2-0.4c-0.1-0.2-0.2-0.3-0.2-0.5
					c-0.1-0.1-0.1-0.2-0.2-0.4c-0.1-0.1-0.2-0.3-0.3-0.4c-0.1-0.1-0.1-0.2-0.2-0.4c-0.1-0.2-0.2-0.3-0.3-0.5
					c-0.1-0.1-0.1-0.2-0.2-0.3c-0.1-0.2-0.2-0.3-0.3-0.4c-0.1-0.1-0.1-0.2-0.2-0.3c-0.1-0.2-0.2-0.3-0.4-0.4
					c-0.1-0.1-0.2-0.2-0.2-0.3c-0.1-0.2-0.3-0.3-0.4-0.4c-0.1-0.1-0.2-0.2-0.2-0.2c-0.2-0.1-0.3-0.3-0.5-0.4
					c-0.1-0.1-0.2-0.1-0.2-0.2c-0.2-0.1-0.3-0.3-0.5-0.4c-0.1-0.1-0.2-0.1-0.2-0.2c-0.2-0.1-0.4-0.3-0.6-0.4c-0.1,0-0.1-0.1-0.2-0.1
					c-0.2-0.1-0.4-0.2-0.6-0.3c-0.1,0-0.2-0.1-0.2-0.1c-0.2-0.1-0.4-0.2-0.6-0.3c-0.1,0-0.2-0.1-0.3-0.1c-0.2-0.1-0.4-0.1-0.7-0.2
					c-0.1,0-0.2-0.1-0.3-0.1c-0.3-0.1-0.7-0.2-1-0.2c-1.1-0.2-2.3-0.3-3.4-0.5C94.6,0.2,91.3,0,88,0c0,0,0,0,0,0s0,0,0,0
					c-1.2,0-2.3,0-3.5,0.1c-0.7,0-1.5,0.1-2.2,0.2c-0.4,0-0.8,0-1.2,0.1C80.1,0.4,79,0.5,78,0.7c-0.1,0-0.1,0-0.2,0
					c-4.3,0.6-8.5,1.6-12.5,3c-0.1,0-0.2,0-0.2,0.1c-0.8,0.3-1.6,0.6-2.4,0.9C62.4,4.8,62.2,4.9,62,5c-0.6,0.3-1.3,0.6-1.9,0.9
					c-0.3,0.2-0.7,0.3-1,0.5c-0.5,0.2-0.9,0.5-1.4,0.7c-0.5,0.3-1,0.5-1.5,0.8c-0.3,0.1-0.5,0.3-0.8,0.5c-0.7,0.4-1.3,0.8-2,1.2
					c-0.1,0-0.2,0.1-0.2,0.2c-4.3,2.7-8.3,6-11.7,9.8c-5.3,5.8-9.3,12.6-11.3,19.3c-0.8-0.9-1.7-1.7-2.7-2.4
					c-3-2.1-7.2-3.3-11.4-3.3c-8.3,0-14.5,4.7-15.8,11.9C-1,51.3,2.4,57.5,6,61.1l0.1,0.1l0.2,0.1c5.9,5.4,13.5,6.7,19.1,7.6l0.2,0
					c3.1,0.5,6.4,0.7,9.9,0.7c1.9,0,3.9-0.1,6-0.2l0.7,0.9c1.9,2.3,4.1,4.2,6.4,5.8c-1.5,1.6-2.5,3.6-2.9,5.8
					c-0.3,1.8-0.1,3.6,0.4,5.3c0,0.1,0,0.1,0.1,0.2c0.1,0.1,0.1,0.3,0.2,0.4c0.1,0.2,0.2,0.4,0.3,0.6c0,0,0,0,0,0
					c0.9,1.9,2.4,3.6,4.3,4.8c2.1,1.3,4.5,1.9,7.4,1.9c0.5,0,1,0,1.5,0c0.2,0,0.3,0,0.5,0c0.9,0,1.8,0,2.7-0.1
					c0.6,0,1.3-0.1,1.9-0.1c0.4,0,0.8,0,1,0l0.9,0.1c0.6,0.1,1.3,0.1,1.6,0.2c1.8,0.9,3.5,1.3,5,1.7l0.4,0.1l0.4,0.1
					c1.1,0.2,2.1,0.3,3.1,0.3c1.7,0,3.3-0.3,4.7-0.9c0.3,0.2,0.6,0.4,0.9,0.6c0.1,0.5,0.3,0.9,0.4,1.3c1.1,2.9,3.2,5.1,5.8,6.3
					c1.6,0.8,3.4,1.3,5.3,1.3c3.5,0,7-1.6,9.4-4.4c0.2,0,0.3,0.1,0.5,0.1c0.5,0.1,1,0.2,1.5,0.2c1.2,0.2,2.3,0.4,3.5,0.6
					c1.1,0.2,2.1,0.3,3.2,0.5l1,0.1c0.9,0.1,1.9,0.3,2.7,0.5c1.8,0.4,3.7,0.9,5.7,1.4c4.1,1.1,8.4,2.2,13.1,2.7l0.3,0
					c0.8,0.1,2,0.2,3.4,0.2c1.4,0,2.7-0.1,3.9-0.3c0,0,0,0.1,0,0.1c0,0.4,0,0.8-0.1,1.2c0,0,0,0,0,0.1c0,0.4-0.1,0.7-0.2,1.1
					c0,0.1,0,0.1,0,0.2c-0.1,0.4-0.2,0.7-0.3,1.1c0,0.1,0,0.1-0.1,0.2c-0.1,0.4-0.3,0.7-0.4,1.1c-0.5,1.1-1.3,2.2-2.4,3.2
					c-2.4,2.3-6.1,4.2-10.8,5.5c-3.9,1.1-7.8,1.6-11.8,1.6c-4.7,0-9.5-0.8-14.3-2.3l-0.3-0.1c-1.9-0.6-3.7-1.2-6.1-2.1l-0.1,0
					c-2.7-1.1-6-2.4-9.5-2.4c-1.1,0-2.2,0.1-3.3,0.4c-2.5,0.6-4.7,1.8-6.3,3.4c-1.6,1.6-2.8,3.6-3.3,5.9c-0.1,0.5-0.2,0.9-0.2,1.4
					c0,0.5-0.1,0.9-0.1,1.3c0.1,6.2,5,10.9,8.3,13.4c4.3,3.2,9.2,5.8,14.5,7.7c8.8,3.2,19,4.9,30.2,5c0.4,0,0.7,0,1,0
					c16.7,0,31.8-6.9,42.7-18.7l0.3,0.1l1.4-1.9l2.6-2.6l-0.3-0.5c0.8-1.1,1.6-2.3,2.4-3.4c1.1-1.6,2.1-3.3,2.9-4.9l4.2-8l-0.5-0.3
					c0.3-0.8,0.6-1.5,0.8-2.3c0.5-1,0.7-1.9,0.9-2.5c0.8-2.8,1.4-5.8,1.8-8.8l1.2-9.6l-0.6-0.1C187,90.8,187,90.3,187,89.8z"/>
			</g>
		</g>
		<g>
			<path class="st1" d="M10.1,46.7c0.9-4.9,8.8-4.3,11.8-2.2c0.9,0.6,1.7,1.7,2,2.8c0.5,2.1-1.1,4.6-3.4,3.6
				c-1.9-0.8,0.4-3.3-0.9-4.6c-1.6-1.6-5.6-1-6.1,1.4c-1,4.6,4.5,6.9,8,7.5c6.8,1.3,13.5,1.3,20.3,0.2c1.9-0.3,3.8-0.6,5.8-1
				c1.4-0.3,2.9-0.6,4.3-1c2-0.6,4-1.3,5.9-2.3c0.9-0.5,1.7-1,2.6-1.5C53.6,49.9,43,50.4,38.7,50C37.4,35,57.2,4.1,99.9,11
				c1.3,0.2,2.8,3.4,4,8.4C120,23.6,136.2,28.7,150,38c5.1,3.5,9.7,7.8,13.4,12.8c10,13.7,14.7,28.4,13.4,45.4
				c-0.3,3.8-0.8,7.6-1.9,11.2c-6.6,22-24.8,37.8-48.5,37.4c-9.1-0.1-18.4-1.3-27-4.4c-4.2-1.5-8.3-3.6-11.9-6.3
				c-1.7-1.3-7.3-6.4-2.2-7.6c2-0.5,5.2,0.9,6.9,1.6c2.4,0.9,4.6,1.7,7,2.4c10.5,3.4,21.3,3.8,31.9,0.8c7.8-2.2,16.1-6.6,19.6-14.3
				c3.1-6.8,2.7-16-2-21.9c-2.9-3.6-6.9-6.3-11.2-8.3c0.2,1,0.5,1.9,1,2.6c1.3,2.2,4.7,3,5.3,5.7c0.7,3.5-5.3,3.1-7.5,2.9
				c-6-0.7-11.9-2.7-17.8-4c-1.3-0.3-2.8-0.5-4.1-0.7c-2.3-0.4-4.5-0.7-6.8-1.1c-2-0.3-4.4-0.8-6.4-0.8c-0.9,0-1.9,0.4-2.8,0.9
				c-1.2,0.7-1.1,1.5-1.7,2.6c-0.8,1.2-2.8,1.9-3.4,0.2c-0.8-1.9,1.3-2.1,2.2-3.1c0.9-1.1,1.5-2.2,2.6-3h-0.4
				c-1.2-0.1-2.9-0.6-4-0.4c-0.9,0.2-1.1,1.2-2.1,1.3c-0.6,0.1-2.3-0.6-2.7-1c-2-2.2,2.1-2.5,3.4-2.3c0.8,0.1,2.9,0.4,5.2,0.7
				c-1.2-0.9-2.4-1.8-3.8-2.5c-0.7-0.3-1.4-0.4-2.2-0.2c-0.7,0.2-1.5,0.3-2.1-0.3c-0.6-0.6,0-1.5,0.4-2.1c0.5-0.5,1.6-0.5,2.2-0.3
				c2,0.7,3.8,2,5.7,3c1.3,0.7,2.6,1.5,4,2.1c0.6,0.3,1.2,0.7,1.8,0.9c1.4,0.2,2.4,0.3,2.4,0.3c1.2,0.2,2.4,0.3,3.6,0.5
				c3.9,0.5,7.7,0.9,11.6,0.9c1.9,0,7.4,0,7.7,0c0.9,0,1.1-0.7,0.8-1.4c-0.2-0.5-0.4-0.9-0.6-1.3c-0.8-1.1-1.8-2.1-2.9-3
				c-0.8-0.7-1.5-1.3-2.3-2c-5.8-1.4-25.6-3.2-38.3-4.9c-1.4,1.1-3,2.1-4.6,2.9c-1.2,0.6-2.5,1.1-3.7,1.6c-1.5,0.6-3.1,1.6-4.7,1.8
				c0.9,0.6,2.1,1.1,3.1,1.6c0.7,0.3,2.4,0.7,2.8,1.4c0.9,1.3-1.8,0.9-2.4,0.8c-1.2-0.3-2.3-0.6-3.3-1.1c-1.7-0.8-3.5-0.9-5.4-1.1
				c-2.3-0.3-4.7,0-7,0c-1.3,0-3.1,0.3-4.2-0.4c-1.1-0.5-0.3-1.9,0.9-2c0.6,0,1.1,0.2,1.6,0.4c0.5,0.2,0.8,0.3,1.4,0.3
				c2.1-0.1,4.3-0.4,6.3-0.7c1.9-0.3,3-1.6,4.3-2.9c1.3-1.4,2.7-2.7,3.8-4.2c-8.6-2.2-18.5-4.4-24.5-11.5c4.1-1.7,8.7-5.4,12.1-9.6
				c-0.5,0.1-1,0.3-1.5,0.5c-5.5,2.4-11.2,4-17.2,4.5c-5.3,0.5-10.9,0.6-16.2-0.2c-4.8-0.8-10.3-1.7-14-5.1
				C11.3,52.2,9.6,49.2,10.1,46.7z"/>
			<path class="st2" d="M99.9,11c1.3,0.2,2.8,3.4,4,8.4C120,23.6,136.2,28.7,150,38c5.1,3.5,9.7,7.8,13.4,12.8
				c10,13.7,14.7,28.4,13.4,45.4c-0.3,3.8-0.8,7.6-1.9,11.2c-6.6,22-24.8,37.8-48.5,37.4c-9.1-0.1-18.4-1.3-27-4.4
				c-4.2-1.5-8.3-3.6-11.9-6.3c-1.7-1.3-7.3-6.4-2.2-7.6c2-0.5,5.2,0.9,6.9,1.6c2.4,0.9,4.6,1.7,7,2.4c10.5,3.4,21.3,3.8,31.9,0.8
				c7.8-2.2,16.1-6.6,19.6-14.3c3.1-6.8,2.7-16-2-21.9c-5.9-7.3-15.9-10.7-24.7-12.9c-7.5-1.9-39.5-4.3-47.7-6.5
				c-9-2.3-19.9-4.3-26.3-11.9c5.6-2.3,12.1-8.3,15.2-14.2c-3.5-0.1-20.6,1-26.4,0.5C37.4,35,57.2,4.1,99.9,11z"/>
			<path class="st3" d="M99.9,11c1.3,0.2,2.8,3.4,4,8.4c2.5,0.7,5.1,1.4,7.6,2.1c-3.2,5.9-5.5,15.6,2.1,18.7
				c4.8,2,10.6,0.9,14.6-2.3c2.7-2.2,4.8-5.2,6.6-8.3c2.1,0.9,4.1,1.9,6.1,3c-2.5,5.8-4.9,12.2,1,16.7c6.1,4.7,12.4,1,17.2-3.7
				c1.5,1.6,3,3.3,4.3,5.1c0.3,0.4,0.6,0.8,0.9,1.2c-6.1,3-8.8,12.8-4.8,18.1c2.4,3.3,7.6,4.3,11.4,4.3c1.4,0,2.7-0.3,4-0.6
				c0.7,2.5,1.2,5.1,1.6,7.8c-6.3,1.1-12.9,8.8-8.5,14.3c1.9,2.4,5.2,3.6,8.5,4.1c-0.3,2.5-0.8,5-1.5,7.4c-0.1,0.4-0.2,0.8-0.4,1.2
				c-3.2-0.3-6.1,0.1-7.7,3.9c-1,2.3,1.1,4.4,3.5,6c-1.1,2.1-2.4,4.1-3.8,6c-2.3-0.8-4.7-0.7-6.5,1.3c-1,1.1-0.1,3,1.2,4.9
				c-8.9,8.9-20.9,14.3-34.8,14.1c-9.1-0.1-18.4-1.3-27-4.4c-4.2-1.5-8.3-3.6-11.9-6.3c-1.7-1.3-7.3-6.4-2.2-7.6
				c2-0.5,5.2,0.9,6.9,1.6c2.4,0.9,4.6,1.7,7,2.4c10.5,3.4,21.3,3.8,31.9,0.8c7.8-2.2,16.1-6.6,19.6-14.3c3.1-6.8,2.7-16-2-21.9
				c-5.9-7.3-15.9-10.7-24.7-12.9c-7.5-1.9-39.5-4.3-47.7-6.5c-9-2.3-19.9-4.3-26.3-11.9c5.6-2.3,12.1-8.3,15.2-14.2
				c-3.5-0.1-20.6,1-26.4,0.5C37.4,35,57.2,4.1,99.9,11z"/>
			<path class="st2" d="M92.2,86.6c0.8,0.1,2.9,0.4,5.2,0.7c-1.2-0.9-2.4-1.8-3.8-2.5c-0.7-0.3-1.4-0.4-2.2-0.2
				c-0.7,0.2-1.5,0.3-2.1-0.3c-0.6-0.6,0-1.5,0.4-2.1c0.5-0.5,1.6-0.5,2.2-0.3c2,0.7,3.8,2,5.7,3c1.3,0.7,2.6,1.5,4,2.1
				c0.6,0.3,1.2,0.7,1.8,0.9c1.4,0.2,2.4,0.3,2.4,0.3c1.2,0.2,2.4,0.3,3.6,0.5c3.9,0.5,7.7,0.9,11.6,0.9c1.9,0,7.4,0,7.7,0
				c0.9,0,1.1-0.7,0.8-1.4c-0.2-0.5-0.4-0.9-0.6-1.3c-0.8-1.1-1.8-2.1-2.9-3c-1.8-1.6-3.8-3.1-5.7-4.6c-1.4-1.1-3-2.2-4.1-3.6
				c-4.5-6,0.2-11.5,6.3-14c7.5-3.1,19.5-1.6,22.7,6.2c3.1,7.5-3.9,7.9-7,12.2c-1.7,2.3-1.5,6.7-0.1,9.1c1.3,2.2,4.7,3,5.3,5.7
				c0.7,3.5-5.3,3.1-7.5,2.9c-6-0.7-11.9-2.7-17.8-4c-1.3-0.3-2.8-0.5-4.1-0.7c-2.3-0.4-4.5-0.7-6.8-1.1c-2-0.3-4.4-0.8-6.4-0.8
				c-0.9,0-1.9,0.4-2.8,0.9c-1.2,0.7-1.1,1.5-1.7,2.6c-0.8,1.2-2.8,1.9-3.4,0.2c-0.8-1.9,1.3-2.1,2.2-3.1c0.9-1.1,1.5-2.2,2.6-3
				h-0.4c-1.2-0.1-2.9-0.6-4-0.4c-0.9,0.2-1.1,1.2-2.1,1.3c-0.6,0.1-2.3-0.6-2.7-1C86.8,86.7,91,86.4,92.2,86.6z"/>
			<path class="st2" d="M80.2,64.7c1.3-2.4,2.7-4.8,5.1-6.3c3.1-1.8,8.1-1.6,9.7,2c1.9,4.1-1.3,9.4-4.2,12.2c-3,2.8-6.2,5.6-9.8,7.5
				c-1.2,0.6-2.5,1.1-3.7,1.6c-1.5,0.6-3.1,1.6-4.7,1.8c0.9,0.6,2.1,1.1,3.1,1.6c0.7,0.3,2.4,0.7,2.8,1.4c0.9,1.3-1.8,0.9-2.4,0.8
				c-1.2-0.3-2.3-0.6-3.3-1.1c-1.7-0.8-3.5-0.9-5.4-1.1c-2.3-0.3-4.7,0-7,0c-1.3,0-3.1,0.3-4.2-0.4C55,84,55.8,82.6,57,82.5
				c0.6,0,1.1,0.2,1.6,0.4c0.5,0.2,0.8,0.3,1.4,0.3c2.1-0.1,4.3-0.4,6.3-0.7c1.9-0.3,3-1.6,4.3-2.9c1.3-1.4,2.8-2.8,3.9-4.5
				c1.7-2.4,3-5.1,4.3-7.7C79.3,66.5,79.7,65.6,80.2,64.7z"/>
			<path class="st4" d="M59,28.2c0.3-2.7,2.9-4.7,5.8-4.3c2.9,0.3,4.9,2.8,4.6,5.6c-0.3,2.7-2.9,4.7-5.8,4.3
				C60.7,33.4,58.6,30.9,59,28.2z"/>
		</g>
	</g>
</g>
</svg>
