<?xml version="1.0" encoding="utf-8"?>
<!-- Generator: Adobe Illustrator 24.1.2, SVG Export Plug-In . SVG Version: 6.00 Build 0)  -->
<svg version="1.1" id="Слой_2" xmlns="http://www.w3.org/2000/svg" xmlns:xlink="http://www.w3.org/1999/xlink" x="0px" y="0px"
	 viewBox="0 0 187 155" style="enable-background:new 0 0 187 155;" xml:space="preserve">
<style type="text/css">
	.st0{fill:#3B3B3B;}
</style>
<g>
	<g>
		<path class="st0" d="M176.4,81.5c0,0,0.1,0,0.1,0c-0.4-2.7-0.9-5.3-1.6-7.8c-0.1,0-0.1,0-0.2,0c-2.1-7.6-5.6-14.8-10.5-21.8
			c0,0,0.1,0,0.1-0.1c-0.3-0.4-0.6-0.8-0.9-1.2c-1.3-1.8-2.8-3.5-4.3-5.1c0,0,0,0-0.1,0.1c-2.7-2.9-5.8-5.4-9-7.7
			c-2.9-2-6-3.8-9.1-5.4c0,0,0,0,0,0c-2-1.1-4-2.1-6.1-3c0,0,0,0,0,0.1c-9.9-4.4-20.4-7.5-30.9-10.3c-1.2-5-2.7-8.2-4-8.4
			c-1.3-0.2-2.6-0.4-3.9-0.5s-2.6-0.3-3.8-0.3c-1.2-0.1-2.5-0.1-3.7-0.1c-34.8-0.3-51,26.4-49.8,40c0,0,0.1,0,0.1,0c0,0,0,0.1,0,0.1
			c4.3,0.4,14.8-0.1,21.4-0.4c-0.8,0.5-1.6,0.9-2.4,1.4c-1.9,1-3.9,1.7-5.9,2.3c-1.4,0.4-2.9,0.7-4.3,1c-2,0.4-3.9,0.7-5.8,1
			c-6.8,1.1-13.5,1.1-20.3-0.2c-3.5-0.6-9-2.9-8-7.5c0.5-2.4,4.5-3,6.1-1.4c1.3,1.3-1,3.8,0.9,4.6c2.3,1,3.9-1.5,3.4-3.6
			c-0.3-1.1-1.1-2.2-2-2.8c-3-2.1-10.9-2.7-11.8,2.2c-0.5,2.5,1.2,5.5,3,7.3c3.7,3.4,9.2,4.3,14,5.1c5.3,0.8,10.9,0.7,16.2,0.2
			c6-0.5,11.7-2.1,17.2-4.5c0.5-0.2,1-0.4,1.5-0.5c-1.6,2-3.5,3.9-5.5,5.5c-2.1,1.7-4.3,3.1-6.4,3.9c0,0,0,0,0,0c0,0-0.1,0-0.1,0.1
			c0,0,0,0,0,0c0,0-0.1,0-0.1,0.1c6,7.1,15.8,9.3,24.4,11.5c-1.1,1.6-2.5,2.9-3.7,4.2c-1.3,1.3-2.4,2.6-4.3,2.9
			c-2,0.3-4.2,0.6-6.3,0.7c-0.6,0-0.9-0.1-1.4-0.3c-0.5-0.2-1-0.4-1.6-0.4c-0.9,0.1-1.6,0.9-1.4,1.6c0.1,0.2,0.2,0.5,0.6,0.6
			c1.1,0.7,2.9,0.4,4.2,0.4c2.3,0,4.7-0.3,7,0c1.9,0.2,3.7,0.3,5.4,1.1c1,0.5,2.1,0.8,3.3,1.1c0.6,0.1,3.2,0.5,2.4-0.7
			c0-0.1-0.1-0.2-0.1-0.3c-0.4-0.7-2.1-1.1-2.8-1.4c-0.9-0.5-2-0.9-2.8-1.4c1.5-0.2,3.1-1.2,4.5-1.8c1.2-0.5,2.5-1,3.7-1.6
			c1.5-0.8,3-1.8,4.4-2.8c12.8,1.7,32.8,3.5,38.6,4.9c0.7,0.6,1.4,1.1,2,1.7c1.1,0.9,2.1,1.9,2.9,3c0.2,0.4,0.4,0.8,0.6,1.3
			c0.3,0.7,0.1,1.4-0.8,1.4c-0.8,0-5.8,0-7.6,0c-3.9,0-7.7-0.4-11.6-0.9c-1.2-0.2-2.4-0.3-3.6-0.5c0,0-1-0.1-2.4-0.3
			c-0.6-0.2-1.2-0.6-1.8-0.9c-1.4-0.6-2.7-1.4-4-2.1c-1.9-1-3.7-2.3-5.7-3c-0.3-0.1-0.7-0.1-1.1-0.1c-0.4,0-0.9,0.1-1.2,0.4
			c-0.4,0.6-1,1.5-0.4,2.1c0.4,0.4,0.8,0.5,1.3,0.5c0.3,0,0.6-0.1,0.9-0.2c0.2,0,0.4-0.1,0.6-0.1c0.5,0,1,0.1,1.5,0.3
			c1.4,0.7,2.6,1.6,3.8,2.5c-2.3-0.3-4.3-0.6-5.1-0.7c-0.2,0-0.4,0-0.7,0c-1.6,0-4.6,0.4-3.1,2.1c0.1,0.1,0.5,0.3,0.9,0.5
			c0.7,0.4,1.8,0.8,2.2,0.7c1-0.1,1.2-1.1,2.1-1.3c1-0.2,2.6,0.2,3.8,0.4c-1,0.8-1.6,1.8-2.4,2.8c-0.9,1-3,1.2-2.2,3.1
			c0.2,0.5,0.5,0.8,0.9,0.9c0.8,0.6,2.2,0,2.9-0.9c0.6-1.1,0.5-1.9,1.7-2.6c0.9-0.5,1.9-0.9,2.8-0.9c2,0,4.4,0.5,6.4,0.8
			c2.3,0.4,4.5,0.7,6.8,1.1c1.3,0.2,2.8,0.4,4.1,0.7c5.9,1.3,11.8,3.3,17.8,4c2.2,0.2,8.2,0.6,7.5-2.9c-0.6-2.7-4-3.5-5.3-5.7
			c-0.5-0.7-0.8-1.6-1-2.6c3.8,1.7,7.3,4,10,7c0.4,0.4,0.8,0.9,1.2,1.3c4.7,5.9,5.1,15.1,2,21.9c-1.1,2.4-2.6,4.4-4.4,6.2
			c-4.1,3.9-9.7,6.5-15.1,8c-10.6,3-21.4,2.6-31.9-0.8c-2.4-0.7-4.6-1.5-7-2.4c-1.7-0.7-4.9-2.1-6.9-1.6c-0.8,0.2-1.4,0.5-1.7,0.9
			c-1.9,1.9,2.3,5.7,3.8,6.8c3.6,2.7,7.7,4.8,11.9,6.3c8.6,3.1,17.9,4.3,27,4.4c17.4,0.3,31.8-8.1,40.8-21.3
			c1.2-1.6,2.2-3.4,3.2-5.1c0,0,0,0,0,0c1.7-3.1,3.1-6.4,4.2-9.9c0,0,0,0,0,0c0.2-0.4,0.3-0.8,0.4-1.2c0.7-2.4,1.2-4.9,1.5-7.4
			c0,0-0.1,0-0.1,0c0.2-1.2,0.3-2.5,0.4-3.7C177.2,91.1,177,86.2,176.4,81.5z"/>
	</g>
</g>
</svg>
