<?xml version="1.0" encoding="utf-8"?>
<!-- Generator: Adobe Illustrator 24.1.2, SVG Export Plug-In . SVG Version: 6.00 Build 0)  -->
<svg version="1.1" xmlns="http://www.w3.org/2000/svg" xmlns:xlink="http://www.w3.org/1999/xlink" x="0px" y="0px"
	 viewBox="0 0 322.1 473.3" style="enable-background:new 0 0 322.1 473.3;" xml:space="preserve">
<style type="text/css">
	.st1{display:inline;}
	.st2{fill:#3B3B3B;}
	.st3{fill:#3B3B3B;}
</style>
<g id="Слой_1__x28_копия_x29_">
	<g>
		<g>
			<g>
				<path class="st3" d="M81.5,87.8c9-14.4,6.3-31.3-6.8-42.1c-0.3-0.3-0.7-0.5-1-0.7c-1.7-1-3.7-1.3-5.6-0.8
					c-1.4,0.4-2.8,1.2-3.8,2.4c-2.6,3.1-2.2,7.8,1,10.4C74.1,64.3,73,73.7,69,80c-5,8.1-16.4,14.1-29.4,8.2
					c-12.5-5.7-20.5-18.7-19.8-32.5c0.3-6.6,2.6-12.7,6.5-18.1c3-4.1,7.1-7.7,12-10.7c3.6-2.2,7.7-4.1,12.2-5.7
					c12-4.2,26.7,0.6,41.4,13.5c0.1,0.1,0.2,0.1,0.2,0.2c7.7,1,15.5,2,23.2,2.8c-4.4-5.3-9-10-13.7-14.2C82.9,7.1,63,1.3,45.7,7.3
					C34.9,11,25.9,16.6,19.1,23.5c-3.4,3.5-6.2,7.2-8.4,11.3C7.4,41,5.4,47.8,5.1,55c-0.9,19.8,10.5,38.5,28.5,46.6
					C53.7,110.8,72.9,101.6,81.5,87.8z"/>
				<path class="st3" d="M298.6,265.2c-8.3-1.6-16.8,3-22.6,11.3c-10.1-22.3-31.1-39.6-57.5-48.7c-5.1-28.4-8.5-79.3-12-87.4
					c-1.3-2.9-0.1-9.4,1.3-14.8c0.1-0.1,0.1-0.3,0.2-0.4c7.3-15.1,3.8-31.4-7.8-36.9c-2.5-1.2-5.2-1.8-8.1-1.8
					c-10.1,0-20.1,7.4-25.6,18.9c-5.5,11.5-4.8,23.7,0.9,31.3l-3.7,36.5c-0.8,4.6-3.5,8.5-7.4,10.9c4.9-35.7-2-67.3-9.1-88.2
					c-5.5-16.1-13.5-31.6-22.3-44.8c-6.6-0.7-13-0.8-19.6-1.6c25.2,31.4,44,83.2,35.9,135.4c-4.5-2.2-8-6.5-8.8-11.9l-4.8-32.4
					c3.6-8.6,1.4-20.3-6.3-30.1c-6.6-8.3-15.7-13.2-24.5-13.2c-4.6,0-8.8,1.4-12.2,4.1c-9.5,7.5-9.8,22.6-1.2,35.3l0.4,1.4
					c1.5,4.8,1.5,9.9,0,14.7c-3.1,9.9-2.5,20.4-1.3,31c0,0,9.1,43.9,9.5,65.3c-11.9,9.5-21.2,21-27.3,33.6
					c-6.5-10.4-16.9-16.2-26.4-13.4c-12.3,3.5-18.4,20-13.6,36.7c4.8,16.7,18.7,27.4,31,23.9c0.8-0.2,1.6-0.5,2.3-0.9
					c3.4,18.9,14.1,35.5,29.6,48c0.5,15,1.6,41.1,4.1,51.7c1.7,7.1,7.1,17.3,11.8,26.9c4.5,9.2,15.5,13,24.8,8.7l0,0
					c9.4-4.4,13.5-15.6,9.1-25c-2.1-4.3-3.8-8.5-4.1-11.2c-0.5-3.5,0.7-16.4,2-28.9c13.9,3,29,3.9,44.5,2.1
					c16-1.8,30.9-6.2,44.1-12.5c3.2,12.6,6.7,26.9,7.1,30.7c0.3,2.7-0.4,7.2-1.3,11.9c-2.1,10.2,4.6,20.1,14.8,22.1l0,0
					c10,2,19.8-4.4,22-14.4c2.3-10.5,5.8-21.6,5-28.9c-2-19.8-4.5-47.7-5.2-55.7c6.7-9.1,11.5-19.1,14.1-29.7
					c1.8,1.1,3.8,1.9,5.9,2.4c12.6,2.5,25.5-9.4,28.9-26.4C318.6,283.5,311.1,267.7,298.6,265.2z"/>
			</g>
		</g>
	</g>
</g>
</svg>
