<?xml version="1.0" encoding="utf-8"?>
<!-- Generator: Adobe Illustrator 24.1.2, SVG Export Plug-In . SVG Version: 6.00 Build 0)  -->
<svg version="1.1" xmlns="http://www.w3.org/2000/svg" xmlns:xlink="http://www.w3.org/1999/xlink" x="0px" y="0px"
	 viewBox="0 0 322.1 473.3" style="enable-background:new 0 0 322.1 473.3;" xml:space="preserve">
<style type="text/css">
	.st0{fill:#FFFFFF;}
	.st1{fill:#734434;}
	.st2{fill:#8F5442;}
	.st3{fill:#DDAB8A;}
	.st4{fill:#3B3B3B;}
</style>
<g id="Слой_1">
</g>
<g id="Слой_1__x28_копия_x29_">
	<g>
		<g>
			<g>
				<g>
					<g>
						<path class="st0" d="M119.2,34.6c-2.3-2.7-4.6-5.3-7-7.8c-2.4-2.5-4.8-4.8-7.3-7C95.1,11.2,84.8,5.2,74.5,2.2
							C69.4,0.8,64.4,0,59.4,0C54.2,0,49,0.9,44.1,2.6c-5.7,2-11,4.5-15.8,7.4c-4.8,2.9-9.1,6.3-12.7,10.1c-1.8,1.9-3.5,3.9-5.1,5.9
							C9,28,7.6,30.2,6.3,32.4c-1.9,3.4-3.4,7-4.4,10.7c-1.1,3.8-1.7,7.7-1.9,11.6C-0.4,65.5,2.3,76.1,8,85.3
							c5.7,9.3,13.8,16.5,23.5,20.9c6,2.7,12.2,4.1,18.4,4.1c4.6,0,9.2-0.8,13.6-2.3c9.3-3.2,17.2-9.4,22.3-17.6
							c5.1-8.1,7-17,5.6-25.8C89.9,55.9,85.3,48,78,41.9c-0.3-0.3-0.6-0.5-0.9-0.7c-0.2-0.2-0.5-0.3-0.7-0.5c-1.4-0.8-3-1.4-4.6-1.6
							C71.1,39.1,70.6,39,70,39c-1,0-2.1,0.1-3.1,0.4c-1.2,0.3-2.4,0.8-3.4,1.5c-1.1,0.7-2.1,1.6-3,2.6c-2.1,2.5-3.1,5.8-2.8,9.1
							c0.3,3.3,1.9,6.3,4.4,8.4c3,2.5,4.6,5.3,4.8,8.4c0.2,2.6-0.6,5.5-2.2,8.1c-2.1,3.3-5.4,6-9.1,7.3c-1.8,0.6-3.7,0.9-5.6,0.9
							c-2.7,0-5.5-0.6-8.4-1.9c-5.2-2.4-9.6-6.3-12.6-11.3c-3.1-5-4.5-10.7-4.3-16.5c0.1-2.8,0.7-5.5,1.6-8c0.9-2.5,2.3-5,4-7.3
							c1.3-1.8,2.9-3.4,4.6-5c1.8-1.6,3.8-3.1,6-4.4c1.6-1,3.4-2,5.2-2.8c1.9-0.9,3.9-1.7,5.9-2.4c2.3-0.8,4.7-1.2,7.2-1.2
							c2.9,0,6.1,0.5,9.3,1.6c6.5,2.1,13.2,6.2,20,12.1c0.1,0.1,0.2,0.1,0.2,0.2l1.1,1l1.5,0.2c3.9,0.5,7.8,1,11.6,1.5
							c3.9,0.5,7.7,0.9,11.6,1.4l12.4,1.4L119.2,34.6z"/>
					</g>
				</g>
				<path class="st0" d="M101.7,23.6C92.3,15.4,82.6,9.8,73.1,7S54.4,4.3,45.7,7.3c-5.4,1.9-10.4,4.2-14.8,6.9s-8.4,5.9-11.8,9.3
					c-1.7,1.7-3.2,3.5-4.6,5.4s-2.6,3.8-3.8,5.9c-1.7,3.1-3,6.3-4,9.7S5.2,51.4,5.1,55c-0.5,9.9,2.2,19.5,7.2,27.7
					s12.3,14.9,21.3,19c10.1,4.6,19.9,4.5,28.3,1.7s15.4-8.6,19.7-15.5c4.5-7.2,6.1-15,4.9-22.4c-1.2-7.4-5.1-14.3-11.7-19.7
					c-0.2-0.1-0.3-0.2-0.5-0.4c-0.2-0.1-0.3-0.2-0.5-0.3c-0.9-0.5-1.8-0.8-2.7-0.9c-0.9-0.1-1.9-0.1-2.8,0.2
					c-0.7,0.2-1.4,0.5-2.1,0.9s-1.2,0.9-1.8,1.5c-1.3,1.6-1.8,3.5-1.7,5.4c0.2,1.9,1.1,3.7,2.6,5c4.4,3.6,6.3,7.8,6.6,11.8
					c0.3,4-0.9,8-2.9,11.1c-2.5,4-6.6,7.6-11.7,9.3s-11.2,1.8-17.7-1.1c-6.3-2.8-11.4-7.5-14.8-13.2s-5.3-12.4-5-19.3
					c0.2-3.3,0.8-6.5,1.9-9.5c1.1-3,2.7-5.9,4.7-8.5c1.5-2,3.3-4,5.3-5.7s4.3-3.5,6.7-5c1.8-1.1,3.7-2.1,5.7-3.1
					c2-0.9,4.2-1.8,6.4-2.6c6-2.1,12.7-1.9,19.7,0.4c7,2.3,14.4,6.7,21.7,13.1c0,0,0.1,0.1,0.1,0.1c0,0,0.1,0.1,0.1,0.1
					c3.9,0.5,7.7,1,11.6,1.5c3.9,0.5,7.7,0.9,11.6,1.4c-2.2-2.6-4.4-5.1-6.7-7.5C106.4,27.9,104.1,25.7,101.7,23.6z"/>
				<g>
					<g>
						<path class="st0" d="M161.7,138.4c-1.6-14.8-4.9-29.7-9.8-44.1c-2.7-8-6.1-16.1-10.2-24.2c-3.8-7.5-8-14.8-12.7-21.8l-1.3-2
							l-2.3-0.2c-3.1-0.3-6.2-0.5-9.2-0.7l-0.8-0.1c-3.4-0.2-6.4-0.4-9.5-0.8l-12.1-1.4l7.6,9.5c13.4,16.7,24.2,38.4,30.4,61.3
							c7.1,25.9,8.2,52.5,3.2,77c-0.7,3.2,0,6.5,1.8,9.3c1.8,2.8,4.6,4.6,7.9,5.3c0.8,0.2,1.6,0.2,2.5,0.2c0.5,0,0.9,0,1.4-0.1
							c1.2-0.1,2.4-0.5,3.6-1c1.8-0.8,3.4-2,4.6-3.5c1.3-1.6,2.2-3.4,2.6-5.4C163,177.3,163.8,157.9,161.7,138.4z"/>
					</g>
				</g>
				<path class="st0" d="M147.1,95.9c-2.7-8.1-6.1-16-9.9-23.5c-3.8-7.5-8-14.7-12.4-21.3c-3.3-0.3-6.6-0.6-9.8-0.8
					s-6.5-0.5-9.8-0.8c13.2,16.4,24.6,38.4,31.3,63.1s8.8,52.1,3.3,79.4c-0.4,2,0,4,1.1,5.5c1,1.6,2.7,2.8,4.7,3.2
					c0.8,0.2,1.5,0.2,2.3,0.1s1.5-0.3,2.1-0.6c1.1-0.5,2-1.2,2.8-2.1c0.7-0.9,1.3-2,1.5-3.2c4.1-20.1,4.2-39.1,2.3-55.9
					C154.9,122.1,151,107.4,147.1,95.9z"/>
				<g>
					<g>
						<g>
							<path class="st0" d="M142.1,437.1c-1.1-2.2-1.9-4.2-2.5-5.9c-0.8-2.2-1.1-3.4-1.2-3.9c-0.1-0.9-0.4-5.8,2.3-29.5
								c1.4-12.9,3-25.1,3-25.2l0.6-5l-61.9-7.4l0.1,5.7c0,0.1,0.2,12.1,0.9,25.8c0.9,18.6,2.1,31.4,3.7,38.1
								c0.8,3.5,2.4,7.8,5.1,13.5c1.5,3.2,3.2,6.7,4.9,10c0.8,1.5,1.5,3,2.2,4.5c2.8,5.6,7.5,9.8,13.4,11.9c2.5,0.9,5.2,1.3,7.9,1.3
								c0,0,0,0,0,0c3.5,0,6.9-0.8,10-2.2c5.8-2.7,10.1-7.5,12.3-13.5C145.1,449.3,144.8,442.9,142.1,437.1z"/>
						</g>
					</g>
					<path class="st0" d="M87.4,365.8c0,0,0.2,11.9,0.9,25.7c0.7,13.8,1.8,29.5,3.6,37.2c0.8,3.6,2.6,7.9,4.8,12.5
						c2.2,4.6,4.7,9.6,7.1,14.4c2.3,4.6,6.1,7.8,10.6,9.4c4.5,1.6,9.5,1.5,14.2-0.7l0,0l0,0c4.7-2.2,8.1-6.1,9.7-10.6
						c1.6-4.5,1.6-9.7-0.7-14.4c-1-2.2-2-4.3-2.7-6.2c-0.7-1.9-1.2-3.6-1.4-5c-0.5-3.6,0.8-17.7,2.2-30.8c1.4-13.1,3-25.3,3-25.3
						l-25.6-3.1L87.4,365.8z"/>
					<g>
						<g>
							<path class="st0" d="M276.5,409.6c-1.2-12.1-2.6-27.2-3.6-37.7c-1.1-11.6-1.8-20.2-1.8-20.2l-0.6-6.2L212.4,364l1.2,4.6
								c0,0.1,3,11.3,6,23.2c5.2,20.7,6.3,26.5,6.4,28c0,0.5,0.1,1.7-0.2,4.1c-0.2,1.8-0.6,3.9-1.1,6.3c-1.3,6.2,0,12.6,3.5,17.9
								c3.5,5.3,8.9,8.9,15.2,10.1c1.5,0.3,3.1,0.5,4.6,0.5c4.6,0,9.1-1.3,13-3.9c5.2-3.4,8.9-8.7,10.2-14.8
								c0.5-2.4,1.1-4.9,1.7-7.3c0.7-2.8,1.4-5.6,1.9-8.4C276.5,417.9,276.9,413.3,276.5,409.6z"/>
						</g>
					</g>
					<path class="st0" d="M266.2,352.1c0,0,0.8,8.6,1.8,20.2c1.1,11.6,2.4,26,3.6,37.7c0.4,3.7-0.3,8.3-1.4,13.3
						c-1.1,5-2.5,10.4-3.7,15.6c-1.1,5-4.1,9.1-8,11.7c-4,2.6-8.9,3.7-13.9,2.7l0,0l0,0c-5.1-1-9.3-4-12-8c-2.7-4-3.8-9-2.8-14.1
						c0.5-2.4,0.9-4.7,1.1-6.7c0.2-2,0.3-3.8,0.2-5.2c-0.4-3.7-3.5-16.7-6.6-28.8s-6-23.3-6-23.3l23.8-7.6L266.2,352.1z"/>
					<g>
						<g>
							<path class="st0" d="M227.2,241.8c-3.9-8.4-7.3-38.2-8.9-52.5c-0.4-3.2-0.7-6.3-1.1-9.5c-2.6-23.2-4.1-36.6-6.2-41.3
								c0-0.1-0.7-2.2,1.2-10.5c1.2-4.8,2.6-9.1,2.6-9.1l2.8-8.1l-53.7,10l-5.3,51.8c-0.4,2.3-1.5,4.3-3.2,5.9
								c-1.7,1.6-3.9,2.6-6.2,2.9c-0.4,0-0.8,0.1-1.2,0.1c-2.4,0-4.7-0.8-6.6-2.2c-2.2-1.7-3.7-4.2-4.1-7l-5.4-36l-58.5-14.4
								l5.7,17.7c0.6,1.9,0.9,3.8,0.9,5.8c0,2-0.3,3.9-0.9,5.8c-1.6,5-2.4,10.4-2.5,16.6c-0.1,5.8,0.4,11.6,1,16.5l0,0.2l0,0.2
								c0,0.2,3.3,15.9,6,32.9c4.8,30.8,3.3,37.9,2.7,39.3c-2.2,5.3-0.6,9.4,1,11.8c6.6,9.7,28.1,11.8,45,11.8
								c8.1,0,16.8-0.5,25.6-1.4c28.1-2.9,61-11,68.7-24.6C229,250.4,229.1,246,227.2,241.8z"/>
						</g>
					</g>
					<path class="st0" d="M80.9,128.8l1.5,4.6l1.5,4.6c0.8,2.4,1.1,4.9,1.1,7.3c0,2.5-0.4,5-1.1,7.3c-1.6,4.9-2.2,10-2.3,15.2
						c-0.1,5.2,0.4,10.5,1,15.8c0,0,3.3,15.8,6,33.1c2.7,17.3,4.8,36,2.4,41.9c-6.2,15.4,30.2,19.1,66.4,15.4
						c36.2-3.8,72.2-15.2,65.2-30.2c-3.8-8.2-6.8-31.5-9.3-54.1c-2.5-22.5-4.7-44.3-6.9-49.4c-1.2-2.7-0.2-8.5,1-13.6
						c1.2-5.1,2.7-9.6,2.7-9.6l-20.8,3.9l-20.8,3.9l-2.5,24.1l-2.5,24.1c-0.6,3.5-2.3,6.5-4.7,8.8c-2.4,2.3-5.6,3.8-9.1,4.2h0h0
						c-4.2,0.5-8.3-0.8-11.4-3.2c-3.1-2.4-5.4-6-6-10.2l-2.4-16.3l-2.4-16.3l-23.3-5.7L80.9,128.8z"/>
					<g>
						<g>
							<g>
								<path class="st0" d="M317.4,275.3c-3.8-8.2-10.2-13.5-17.9-15c-1.4-0.3-2.9-0.4-4.3-0.4c-6.2,0-12.6,2.7-17.9,7.5
									c-6.2,5.7-10.7,14-12.5,23.3s-0.8,18.6,2.8,26.3c3.8,8.2,10.2,13.5,17.9,15c1.4,0.3,2.9,0.4,4.3,0.4
									c6.2,0,12.6-2.7,17.9-7.5c6.2-5.7,10.7-14,12.5-23.3C322,292.3,321,283,317.4,275.3z"/>
							</g>
						</g>
						<path class="st0" d="M315.3,300.6c-1.7,8.5-5.7,15.8-11,20.6c-5.2,4.8-11.6,7.1-17.9,5.9c-6.3-1.2-11.3-5.8-14.3-12.2
							c-3-6.4-4.1-14.6-2.4-23.2c1.7-8.5,5.7-15.8,11-20.6c5.2-4.8,11.6-7.1,17.9-5.9c6.3,1.2,11.3,5.8,14.3,12.2
							C315.9,283.8,316.9,292.1,315.3,300.6z"/>
						<g>
							<g>
								<path class="st0" d="M310.9,289.2c-0.3-3.5-1.2-6.8-2.5-9.6c-0.6-1.3-1.7-3.3-3.4-5.1c-2.1-2.3-4.6-3.8-7.4-4.4
									c-0.4-0.1-0.8-0.1-1.2-0.2c-0.4,0-0.8-0.1-1.2-0.1c-5,0-9.9,2.8-13.9,7.9c-3.2,4.1-5.7,9.5-6.7,14.9
									c-0.7,3.5-0.9,7-0.5,10.5c0.3,3.5,1.2,6.8,2.5,9.6c0.6,1.3,1.7,3.3,3.4,5.1c2.1,2.3,4.6,3.8,7.4,4.4
									c0.4,0.1,0.8,0.1,1.2,0.2c0.4,0,0.8,0.1,1.2,0.1c5,0,9.9-2.8,13.9-7.9c3.2-4.1,5.7-9.5,6.7-14.9
									C311.1,296.2,311.3,292.6,310.9,289.2z"/>
							</g>
						</g>
						<path class="st0" d="M289.8,317.4c-0.2,0-0.5,0-0.7,0c-0.2,0-0.5-0.1-0.7-0.1c-2-0.4-3.5-1.5-4.7-2.8c-1.2-1.3-2-2.8-2.5-3.9
							c-1.1-2.4-1.8-5.1-2.1-8c-0.3-2.9-0.1-6,0.5-9c0.9-4.5,3-9.2,5.7-12.7s6.3-6,10-6c0.2,0,0.5,0,0.7,0c0.2,0,0.5,0.1,0.7,0.1
							c2,0.4,3.5,1.5,4.7,2.8c1.2,1.3,2,2.8,2.5,3.9c1.1,2.4,1.8,5.1,2.1,8c0.3,2.9,0.1,6-0.5,9c-0.9,4.5-3,9.2-5.7,12.7
							C297,315,293.5,317.4,289.8,317.4z"/>
					</g>
					<g>
						<g>
							<g>
								<path class="st0" d="M74.2,291.7c-2.6-9.1-7.8-17-14.5-22.1c-5.1-4-10.9-6-16.5-6c-2.1,0-4.2,0.3-6.2,0.9
									c-7.5,2.2-13.4,8-16.5,16.5c-2.9,7.9-3.1,17.3-0.5,26.4s7.8,17,14.5,22.1c5.1,4,10.9,6,16.5,6c2.1,0,4.2-0.3,6.2-0.9
									c7.5-2.2,13.4-8,16.5-16.5C76.6,310.2,76.8,300.8,74.2,291.7z"/>
							</g>
						</g>
						<path class="st0" d="M69.4,293.1c2.4,8.4,2.1,16.7-0.4,23.3c-2.5,6.6-7.1,11.6-13.2,13.4c-6.2,1.8-12.7,0-18.3-4.3
							s-10.3-11.2-12.7-19.5c-2.4-8.4-2.1-16.7,0.4-23.3c2.5-6.6,7.1-11.6,13.2-13.4s12.7,0,18.3,4.3
							C62.3,277.9,67,284.7,69.4,293.1z"/>
						<g>
							<g>
								<path class="st0" d="M64.6,294.4c-1.4-5-4.2-10.1-7.6-13.8c-4.2-4.7-9-7.1-13.8-7.1c-0.6,0-1.2,0-1.8,0.1
									c-0.6,0.1-1.2,0.2-1.7,0.4c-4.7,1.3-8.5,5.6-10.4,11.6c-1.8,5.7-1.8,12.4,0.1,19c1.4,5,4.2,10.1,7.6,13.8
									c4.2,4.7,9,7.1,13.8,7.1c0.6,0,1.2,0,1.7-0.1c0.6-0.1,1.2-0.2,1.7-0.4c2.7-0.8,5.1-2.5,7-5c1.5-1.9,2.4-4,2.9-5.4
									c1.1-3,1.7-6.3,1.7-9.8C66.1,301.4,65.6,297.9,64.6,294.4z"/>
							</g>
						</g>
						<path class="st0" d="M50.9,320.5c-3.6,0-7.2-2.2-10.1-5.5s-5.3-7.6-6.5-11.9c-1.8-6.1-1.6-11.8-0.2-16.1c1.4-4.4,4-7.4,7-8.3
							c0.3-0.1,0.7-0.2,1-0.2c0.3,0,0.7-0.1,1.1-0.1c3.6,0,7.2,2.2,10.1,5.5c2.9,3.3,5.3,7.6,6.5,11.9c0.9,3,1.3,6,1.3,9
							s-0.5,5.7-1.4,8.1c-0.4,1.1-1.1,2.7-2.2,4.1c-1.1,1.4-2.5,2.7-4.4,3.2c-0.3,0.1-0.7,0.2-1,0.2S51.3,320.5,50.9,320.5z"/>
					</g>
					<g>
						<g>
							<path class="st0" d="M287.1,298.3c-2.9-25.5-17.9-48-42.4-63.4c-19.8-12.4-43.7-19-69.1-19c-5.5,0-11,0.3-16.5,0.9
								c-31.1,3.5-59.4,16.5-79.5,36.7c-20.4,20.4-30.1,45.7-27.2,71.2c2.9,25.5,17.9,48,42.4,63.4c19.8,12.4,43.7,19,69.1,19
								c5.5,0,11-0.3,16.5-0.9c31.1-3.5,59.4-16.5,79.5-36.7C280.3,349.1,290,323.8,287.1,298.3z"/>
						</g>
					</g>
					<path class="st0" d="M282.2,298.8c2.8,24.8-7.3,48.6-25.8,67.2s-45.5,31.7-76.5,35.2c-31,3.5-60.3-3.4-82.4-17.3
						c-22.2-13.9-37.3-35-40.1-59.7c-2.8-24.8,7.3-48.6,25.8-67.2s45.5-31.7,76.5-35.2c31-3.5,60.3,3.4,82.4,17.3
						C264.3,253,279.4,274,282.2,298.8z"/>
					<g>
						<g>
							<g>
								<path class="st0" d="M125.2,107.4c-3.6-4.6-8.1-8.4-13-11c-5-2.7-10.3-4.1-15.4-4.1c-2.8,0-5.6,0.4-8.1,1.3
									c-2.6,0.9-5,2.2-7.1,3.9c-6.1,4.9-9.4,12.3-9.3,20.9c0.1,8.1,3.4,16.6,9.1,23.8c3.6,4.6,8.1,8.4,13,11
									c5,2.7,10.3,4.1,15.4,4.1c2.8,0,5.6-0.4,8.1-1.3c2.6-0.9,5-2.2,7.1-3.9c6.1-4.9,9.4-12.3,9.3-20.9
									C134.1,123,130.9,114.6,125.2,107.4z"/>
							</g>
						</g>
						<path class="st0" d="M109.7,152.3c-4.4,0-8.9-1.2-13.1-3.5c-4.2-2.3-8.1-5.6-11.4-9.7c-5.2-6.6-7.9-14-8-20.8s2.3-12.9,7.4-17
							c1.7-1.3,3.6-2.3,5.6-3c2-0.7,4.2-1,6.5-1c4.4,0,8.9,1.2,13.1,3.5s8.1,5.6,11.4,9.7c5.2,6.6,7.9,14,8,20.8
							c0.1,6.8-2.3,12.9-7.4,17c-1.7,1.3-3.6,2.3-5.6,3C114.2,151.9,112,152.3,109.7,152.3z"/>
						<g>
							<g>
								<path class="st0" d="M125.6,129.9c-0.5-5.8-3-11.9-7.1-17.2c-2.8-3.5-6.2-6.5-9.9-8.5c-3.9-2.2-7.9-3.3-11.8-3.3
									c-1.9,0-3.6,0.3-5.3,0.8c-1.7,0.6-3.3,1.4-4.7,2.5c-4.3,3.4-6.5,9.1-5.9,15.5c0.5,5.8,3,11.9,7.1,17.2
									c2.8,3.5,6.2,6.5,9.9,8.5c3.9,2.2,7.9,3.3,11.8,3.3c1.9,0,3.6-0.3,5.3-0.8c1.7-0.6,3.3-1.4,4.7-2.5
									C123.9,142,126.1,136.3,125.6,129.9z"/>
							</g>
						</g>
						<path class="st0" d="M109.7,143.7c-3,0-6.2-1-9.3-2.7c-3.1-1.7-6-4.2-8.4-7.3c-3.7-4.6-5.7-9.8-6.1-14.4
							c-0.4-4.6,1-8.8,4.1-11.2c0.9-0.7,2-1.3,3.1-1.6c1.1-0.4,2.4-0.6,3.7-0.6c3,0,6.2,1,9.3,2.7c3.1,1.7,6,4.2,8.4,7.3
							c3.7,4.6,5.7,9.8,6.1,14.4c0.4,4.6-1,8.8-4.1,11.2c-0.9,0.7-2,1.3-3.1,1.6C112.3,143.5,111,143.7,109.7,143.7z"/>
					</g>
					<g>
						<g>
							<g>
								<path class="st0" d="M216,102.1c-1.8-8.5-6.7-15-13.7-18.4c-1.6-0.8-3.3-1.3-5-1.7c-1.7-0.4-3.5-0.6-5.3-0.6
									c-6,0-12.1,2.1-17.5,6.1c-5.2,3.8-9.6,9.2-12.6,15.6c-4,8.3-5.2,17.3-3.6,25.3c1.8,8.5,6.7,15,13.7,18.4
									c1.6,0.8,3.3,1.3,5,1.7c1.7,0.4,3.5,0.6,5.3,0.6c6,0,12.1-2.1,17.5-6.1c5.2-3.8,9.6-9.2,12.6-15.6
									C216.4,119.1,217.6,110.1,216,102.1z"/>
							</g>
						</g>
						<path class="st0" d="M182.3,144.1c-1.4,0-2.8-0.2-4.2-0.5c-1.3-0.3-2.7-0.8-3.9-1.4c-5.8-2.8-9.6-8.2-11-14.9
							c-1.4-6.6-0.4-14.5,3.2-22.1c2.7-5.7,6.6-10.5,11.1-13.7c4.5-3.3,9.5-5.1,14.5-5.1c1.4,0,2.8,0.2,4.2,0.5
							c1.3,0.3,2.7,0.8,3.9,1.4c5.8,2.8,9.6,8.2,11,14.9s0.4,14.5-3.2,22.1c-2.7,5.7-6.6,10.5-11.1,13.7
							C192.3,142.3,187.3,144.1,182.3,144.1C182.3,144.1,182.3,144.1,182.3,144.1C182.3,144.1,182.3,144.1,182.3,144.1z"/>
						<g>
							<g>
								<path class="st0" d="M207.8,105.4c-0.9-6.4-4.3-11.4-9.3-13.8c-1-0.5-2.1-0.8-3.2-1.1c-1.1-0.2-2.2-0.4-3.3-0.4
									c-4.3,0-8.8,1.7-13,5c-3.9,3-7.1,7.1-9.4,11.9c-2.9,6-4,12.5-3.1,18.3c0.9,6.4,4.3,11.4,9.3,13.8c1,0.5,2.1,0.8,3.2,1.1
									c1.1,0.2,2.2,0.4,3.3,0.4h0c4.3,0,8.8-1.7,13-5c3.9-3,7.1-7.1,9.4-11.9C207.5,117.7,208.6,111.2,207.8,105.4z"/>
							</g>
						</g>
						<path class="st0" d="M182.3,135.5c-0.8,0-1.5-0.1-2.3-0.2s-1.4-0.4-2.1-0.7c-3.6-1.7-5.8-5.4-6.5-10
							c-0.7-4.6,0.2-10.1,2.7-15.4c2-4.1,4.8-7.6,7.9-10.1s6.6-3.9,9.9-3.9c0.8,0,1.5,0.1,2.3,0.2s1.4,0.4,2.1,0.7
							c3.6,1.7,5.8,5.4,6.5,10s-0.2,10.1-2.7,15.4c-2,4.1-4.8,7.6-7.9,10.1S185.5,135.5,182.3,135.5L182.3,135.5L182.3,135.5z"/>
					</g>
					<g>
						<g>
							<g>
								<path class="st0" d="M178.7,292.3c-1.5-13.2-7.4-25.1-16.6-33.6c-8.1-7.5-18.3-11.6-28.6-11.6c-1.5,0-3,0.1-4.4,0.2
									c-11.9,1.3-22.4,7.9-29.6,18.4c-7.1,10.3-10.2,23.3-8.7,36.5s7.4,25.1,16.6,33.6c8.1,7.5,18.3,11.6,28.6,11.6
									c1.5,0,3-0.1,4.4-0.2c11.9-1.3,22.4-7.9,29.6-18.4C177.1,318.4,180.2,305.5,178.7,292.3z"/>
							</g>
						</g>
						<path class="st0" d="M173.8,292.8c1.4,12.4-1.7,24.1-7.8,33.1c-6.1,8.9-15.3,15.1-26.1,16.3c-10.8,1.2-21.1-2.7-29-10.1
							c-8-7.3-13.6-18.1-15-30.5c-1.4-12.4,1.7-24.1,7.8-33.1c6.1-8.9,15.3-15.1,26.1-16.3c10.8-1.2,21.1,2.7,29,10.1
							C166.7,269.7,172.4,280.4,173.8,292.8z"/>
						<g>
							<g>
								<path class="st0" d="M248.3,290.5c-1.5-13.2-7.4-25.1-16.6-33.6c-8.1-7.5-18.3-11.6-28.6-11.6c-1.5,0-3,0.1-4.4,0.2
									c-11.9,1.3-22.4,7.9-29.6,18.4c-7.1,10.3-10.2,23.3-8.7,36.5c1.5,13.2,7.4,25.1,16.6,33.6c8.1,7.5,18.3,11.6,28.6,11.6
									c1.5,0,3-0.1,4.4-0.2c11.9-1.3,22.4-7.9,29.6-18.4C246.7,316.6,249.8,303.7,248.3,290.5z"/>
							</g>
						</g>
						<path class="st0" d="M243.3,291c1.4,12.4-1.7,24.1-7.8,33.1c-6.1,8.9-15.3,15.1-26.1,16.3c-10.8,1.2-21.1-2.7-29-10.1
							c-8-7.3-13.6-18.1-15-30.5c-1.4-12.4,1.7-24.1,7.8-33.1c6.1-8.9,15.3-15.1,26.1-16.3c10.8-1.2,21.1,2.7,29,10.1
							C236.3,267.9,241.9,278.6,243.3,291z"/>
						<g>
							<g>
								<path class="st0" d="M265,331.1c-1.6-14.5-13.7-27-34.1-34.9c-14-5.5-30.7-8.4-48.1-8.4c-5.7,0-11.5,0.3-17.1,1
									c-22.8,2.6-45.4,10.5-61.9,21.8c-18.1,12.3-27.1,27.1-25.5,41.6c1.6,14.4,14.1,27.7,34.1,36.4c14.7,6.4,32.6,9.9,50.3,9.9
									c5.1,0,10.2-0.3,15.2-0.8c22.6-2.5,45.1-11.1,61.9-23.4C257.5,361.2,266.7,345.5,265,331.1z"/>
							</g>
						</g>
						<path class="st0" d="M260.1,331.6c1.5,13.2-7.8,27.2-23.1,38.5c-15.3,11.3-36.8,19.9-59.5,22.4c-22.8,2.6-45.5-1.1-63-8.6
							s-29.6-19.1-31.1-32.3c-1.5-13.2,7.9-26.4,23.3-37s36.9-18.4,59.7-20.9c22.8-2.6,45.5,0.3,62.8,7.1
							C246.5,307.6,258.6,318.4,260.1,331.6z"/>
					</g>
					<g>
						<g>
							<path class="st0" d="M149.9,298.5c-0.4-3.6-1.8-6.9-4-9.3c-2.3-2.5-5.2-4-8.3-4c-0.4,0-0.7,0-1.1,0.1
								c-3.4,0.4-6.5,2.5-8.3,5.9c-1.6,2.9-2.2,6.4-1.8,10c0.4,3.6,1.8,6.9,4,9.3c2.3,2.5,5.2,3.9,8.3,3.9c0.4,0,0.7,0,1.1-0.1
								c3.4-0.4,6.5-2.5,8.3-5.9C149.7,305.7,150.3,302.1,149.9,298.5z"/>
						</g>
					</g>
					<path class="st0" d="M145,299.1c0.3,2.6-0.2,5.1-1.2,7c-1,1.9-2.6,3.1-4.5,3.4c-1.9,0.2-3.7-0.7-5.2-2.3
						c-1.4-1.6-2.5-3.9-2.8-6.6c-0.3-2.6,0.2-5.1,1.2-7c1-1.9,2.6-3.1,4.5-3.4c1.9-0.2,3.7,0.7,5.2,2.3
						C143.6,294.1,144.7,296.4,145,299.1z"/>
					<g>
						<g>
							<path class="st0" d="M213.5,297.4c-0.4-3.6-1.8-6.9-4-9.3c-2.3-2.5-5.2-4-8.3-4c-0.4,0-0.7,0-1.1,0.1
								c-3.4,0.4-6.5,2.5-8.3,5.9c-1.6,2.9-2.2,6.4-1.8,10c0.4,3.6,1.8,6.9,4,9.3c2.3,2.5,5.2,3.9,8.3,3.9c0.4,0,0.7,0,1.1-0.1
								c3.4-0.4,6.5-2.5,8.3-5.9C213.3,304.6,214,301,213.5,297.4z"/>
						</g>
					</g>
					<path class="st0" d="M208.6,298c0.3,2.6-0.2,5.1-1.2,7c-1,1.9-2.6,3.1-4.5,3.4c-1.9,0.2-3.7-0.7-5.2-2.3
						c-1.4-1.6-2.5-3.9-2.8-6.6c-0.3-2.6,0.2-5.1,1.2-7c1-1.9,2.6-3.1,4.5-3.4c1.9-0.2,3.7,0.7,5.2,2.3S208.3,295.4,208.6,298z"/>
					<g>
						<g>
							<path class="st0" d="M188.5,319.4c-0.2-2.4-1.5-6.7-8.8-9.1c-3.1-1.1-7-1.6-11.1-1.6c-1,0-2.1,0-3.2,0.1
								c-5.2,0.4-10.2,1.6-13.9,3.4c-6.9,3.4-7.6,7.9-7.4,10.2c0.2,2.3,1.5,6.7,8.8,9.1c3.1,1.1,7,1.6,11.1,1.6c1,0,2.1,0,3.2-0.1
								c5.2-0.4,10.2-1.6,13.9-3.4C187.9,326.2,188.6,321.8,188.5,319.4z"/>
						</g>
					</g>
					<path class="st0" d="M183.5,319.8c0.1,2-1.7,3.9-4.7,5.4c-3,1.5-7.3,2.6-12,2.9c-4.7,0.3-9.1-0.2-12.3-1.3
						c-3.2-1.1-5.2-2.7-5.4-4.7c-0.1-2,1.7-3.9,4.7-5.4c3-1.5,7.3-2.6,12-2.9c4.7-0.3,9.1,0.2,12.3,1.3
						C181.3,316.1,183.4,317.8,183.5,319.8z"/>
					<g>
						<g>
							<g>
								<g>
									
										<rect x="161.7" y="315.4" transform="matrix(0.997 -7.693651e-02 7.693651e-02 0.997 -25.53 13.9308)" class="st0" width="12.8" height="45.8"/>
								</g>
							</g>
							<polygon class="st0" points="168,356.3 166.7,338.4 165.3,320.6 166.7,320.4 168,320.3 169.4,338.2 170.8,356.1 169.4,356.2 
															"/>
						</g>
						<g>
							<g>
								<g>
									<path class="st0" d="M190.5,349.2c-0.1-1.7-0.9-3.3-2.2-4.4c-1.2-1-2.7-1.6-4.2-1.6l-0.2,0l-0.2,0
										c-1.7,0.1-3.3,0.9-4.4,2.1c-1.4,1.6-3.1,2.9-5.1,3.8c-2,1-4.1,1.5-6.3,1.6c-0.3,0-0.7,0-1,0c-1.9,0-3.9-0.3-5.7-1
										c-2.2-0.8-4.2-2-6-3.5c-1.2-1-2.7-1.6-4.3-1.6l-0.2,0l-0.1,0c-1.7,0.1-3.3,0.9-4.4,2.1c-1.1,1.3-1.7,2.9-1.6,4.6
										c0.1,1.7,0.9,3.3,2.1,4.4c2.8,2.5,6,4.4,9.4,5.8c3.4,1.3,7.1,2,10.8,2c0.3,0,0.6,0,0.9,0c0.3,0,0.6,0,0.9,0
										c3.9-0.2,7.6-1.2,11.1-2.9c3.5-1.7,6.6-4,9.1-6.9C190,352.5,190.6,350.9,190.5,349.2z"/>
								</g>
							</g>
							<path class="st0" d="M166.8,358.7c-3.1,0-6.1-0.6-9-1.7c-2.8-1.1-5.5-2.7-7.9-4.8c-0.3-0.3-0.4-0.6-0.5-0.9
								c0-0.4,0.1-0.7,0.3-1c0.3-0.3,0.6-0.4,0.9-0.5c0.4,0,0.7,0.1,1,0.3c2.3,2,4.9,3.6,7.6,4.5c2.8,1,5.7,1.4,8.7,1.2
								c2.9-0.2,5.7-0.9,8.2-2.1c2.5-1.2,4.8-2.9,6.7-5c0.3-0.3,0.6-0.4,0.9-0.5c0.4,0,0.7,0.1,1,0.3c0.3,0.3,0.4,0.6,0.5,0.9
								s-0.1,0.7-0.3,1c-2.1,2.4-4.7,4.3-7.5,5.7c-2.9,1.4-6,2.2-9.2,2.4c-0.3,0-0.5,0-0.8,0C167.4,358.7,167.1,358.7,166.8,358.7z"
								/>
						</g>
					</g>
				</g>
			</g>
		</g>
	</g>
	<g>
		<path class="st1" d="M101.7,23.6C82.9,7.1,63,1.3,45.7,7.3C34.9,11,25.9,16.6,19.1,23.5c-3.4,3.5-6.2,7.2-8.4,11.3
			C7.4,41,5.4,47.8,5.1,55c-0.9,19.8,10.5,38.5,28.5,46.6c20.1,9.1,39.4-0.1,48-13.8c9-14.4,6.3-31.3-6.8-42.1
			c-0.3-0.3-0.7-0.5-1-0.7c-1.7-1-3.7-1.3-5.6-0.8c-1.4,0.4-2.8,1.2-3.8,2.4c-2.6,3.1-2.2,7.8,1,10.4C74.1,64.3,73,73.7,69,80
			c-5,8.1-16.4,14.1-29.4,8.2c-12.5-5.7-20.5-18.7-19.8-32.5c0.3-6.6,2.6-12.7,6.5-18.1c3-4.1,7.1-7.7,12-10.7
			c3.6-2.2,7.7-4.1,12.2-5.7c12-4.2,26.7,0.6,41.4,13.5c0.1,0.1,0.2,0.1,0.2,0.2c7.7,1,15.5,2,23.2,2.8
			C111,32.5,106.4,27.8,101.7,23.6z"/>
		<path class="st1" d="M147.1,95.9c-5.5-16.1-13.5-31.6-22.3-44.8c-6.6-0.7-13-0.8-19.6-1.6c26.3,32.8,45.7,88,34.6,142.5
			c-0.8,4,1.8,7.9,5.8,8.7c1.5,0.3,3.1,0.1,4.4-0.5c2.1-0.9,3.8-2.8,4.3-5.3C162.5,154.7,154.9,118.9,147.1,95.9z"/>
		<g>
			<path class="st1" d="M87.4,365.8c0,0,0.8,47.5,4.4,62.8c1.7,7.1,7.1,17.3,11.8,26.9c4.5,9.2,15.5,13,24.8,8.7l0,0
				c9.4-4.4,13.5-15.6,9.1-25c-2.1-4.3-3.8-8.5-4.1-11.2c-1-7.3,5.2-56.1,5.2-56.1L87.4,365.8z"/>
			<path class="st1" d="M266.2,352.1c0,0,3.1,34.6,5.4,57.9c0.7,7.3-2.7,18.5-5,28.9c-2.2,10-11.9,16.3-22,14.4l0,0
				c-10.2-2-16.8-11.9-14.8-22.1c1-4.7,1.6-9.2,1.3-11.9c-0.7-7.3-12.6-52-12.6-52L266.2,352.1z"/>
			<path class="st1" d="M80.9,128.8l3,9.2c1.5,4.8,1.5,9.9,0,14.7c-3.1,9.9-2.5,20.4-1.3,31c0,0,13.2,63.3,8.4,75
				c-12.4,30.7,145.6,15.2,131.6-14.8c-7.7-16.4-11.8-93.3-16.2-103.5c-2.4-5.4,3.7-23.2,3.7-23.2l-41.6,7.7l-4.9,48.2
				c-1.2,7-6.8,12.3-13.8,13.1h0c-8.4,1-16.1-5-17.4-13.4l-4.9-32.7L80.9,128.8z"/>
			<g>
				
					<ellipse transform="matrix(0.193 -0.9812 0.9812 0.193 -54.5306 525.9713)" class="st2" cx="292.5" cy="296.1" rx="31.5" ry="23.2"/>
				<path class="st3" d="M289.8,317.4c-0.5,0-1,0-1.4-0.1c-3.9-0.8-6.2-4.5-7.2-6.7c-2.2-4.7-2.8-10.9-1.6-17
					c1.8-9,8.3-18.7,15.7-18.7c0.5,0,1,0,1.4,0.1c3.9,0.8,6.2,4.5,7.2,6.7c2.2,4.7,2.8,10.9,1.6,17
					C303.7,307.7,297.2,317.4,289.8,317.4z"/>
			</g>
			<g>
				
					<ellipse transform="matrix(0.961 -0.2765 0.2765 0.961 -80.9783 24.6881)" class="st2" cx="47.1" cy="299.5" rx="23.2" ry="31.5"/>
				<path class="st3" d="M50.9,320.5c-7.3,0-14.2-8.8-16.6-17.3c-3.5-12.2,0.8-22.7,6.8-24.4c0.7-0.2,1.4-0.3,2.1-0.3
					c7.3,0,14.2,8.8,16.6,17.3c1.7,6,1.7,12.2-0.1,17.1c-0.8,2.3-2.8,6.2-6.6,7.3C52.3,320.4,51.6,320.5,50.9,320.5z"/>
			</g>
			
				<ellipse transform="matrix(0.9937 -0.1119 0.1119 0.9937 -33.7902 20.9573)" class="st2" cx="169.8" cy="311.5" rx="113.1" ry="90.3"/>
			<g>
				<path class="st2" d="M109.7,152.3c-8.8,0-17.9-4.9-24.5-13.2c-10.4-13.2-10.7-29.7-0.6-37.8c3.4-2.7,7.6-4.1,12.2-4.1
					c8.7,0,17.9,4.9,24.5,13.2c10.4,13.2,10.7,29.7,0.6,37.8C118.5,150.9,114.3,152.3,109.7,152.3z"/>
				<path class="st3" d="M109.7,143.7c-6.1,0-12.8-3.8-17.7-10c-7.3-9.2-8.2-20.7-2-25.6c1.8-1.5,4.1-2.2,6.8-2.2
					c6.1,0,12.8,3.8,17.7,10c7.3,9.2,8.2,20.7,2,25.6C114.7,142.9,112.4,143.7,109.7,143.7z"/>
			</g>
			<g>
				<path class="st2" d="M182.3,144.1c-2.8,0-5.6-0.6-8.1-1.8c-11.6-5.6-15.1-21.8-7.8-36.9c5.5-11.5,15.5-18.9,25.6-18.9
					c2.8,0,5.6,0.6,8.1,1.8c11.6,5.6,15.1,21.8,7.8,36.9C202.4,136.7,192.3,144.1,182.3,144.1C182.3,144.1,182.3,144.1,182.3,144.1z
					"/>
				<path class="st3" d="M182.3,135.5c-1.6,0-3-0.3-4.3-1c-7.2-3.4-8.8-14.8-3.8-25.5c3.9-8.2,11.3-14,17.8-14c1.6,0,3,0.3,4.3,1
					c7.2,3.4,8.8,14.8,3.8,25.5C196.2,129.8,188.8,135.5,182.3,135.5L182.3,135.5z"/>
			</g>
			<g>
				
					<ellipse transform="matrix(0.9937 -0.1119 0.1119 0.9937 -32.4129 16.9521)" class="st3" cx="134.8" cy="297.2" rx="39.2" ry="45.2"/>
				
					<ellipse transform="matrix(0.9937 -0.1119 0.1119 0.9937 -31.7779 24.7293)" class="st3" cx="204.4" cy="295.4" rx="39.2" ry="45.2"/>
				<path class="st3" d="M260.1,331.6c3,26.5-37.1,55.8-82.7,60.9c-45.5,5.1-91.2-14.5-94.1-41c-3-26.5,37.5-52.8,83-57.9
					C211.8,288.5,257.1,305.2,260.1,331.6z"/>
			</g>
			<path class="st4" d="M145,299.1c0.6,5.3-2,9.9-5.8,10.4c-3.8,0.4-7.3-3.5-7.9-8.8c-0.6-5.3,2-9.9,5.8-10.4
				C140.8,289.9,144.4,293.8,145,299.1z"/>
			<path class="st4" d="M208.6,298c0.6,5.3-2,9.9-5.8,10.4c-3.8,0.4-7.3-3.5-7.9-8.8c-0.6-5.3,2-9.9,5.8-10.4
				C204.4,288.8,208,292.7,208.6,298z"/>
			<path class="st4" d="M183.5,319.8c0.3,4-7.2,7.7-16.7,8.3c-9.5,0.7-17.4-2-17.7-6c-0.3-4,7.2-7.7,16.7-8.3
				C175.3,313.1,183.2,315.8,183.5,319.8z"/>
			<g>
				<g>
					
						<rect x="166.7" y="320.4" transform="matrix(0.997 -7.681382e-02 7.681382e-02 0.997 -25.4901 13.907)" class="st4" width="2.8" height="35.8"/>
				</g>
				<g>
					<path class="st4" d="M166.8,358.7c-6.2,0-12.1-2.3-16.8-6.5c-0.6-0.5-0.6-1.4-0.1-1.9c0.5-0.6,1.4-0.6,1.9-0.1
						c4.6,4.1,10.4,6.1,16.4,5.8c5.7-0.3,11.2-3,14.9-7.2c0.5-0.6,1.4-0.6,1.9-0.1c0.6,0.5,0.6,1.4,0.1,1.9
						c-4.2,4.8-10.3,7.7-16.8,8.1C167.9,358.7,167.3,358.7,166.8,358.7z"/>
				</g>
			</g>
		</g>
	</g>
</g>
</svg>
