<?xml version="1.0" encoding="utf-8"?>
<!-- Generator: Adobe Illustrator 24.1.2, SVG Export Plug-In . SVG Version: 6.00 Build 0)  -->
<svg version="1.1" id="Слой_2" xmlns="http://www.w3.org/2000/svg" xmlns:xlink="http://www.w3.org/1999/xlink" x="0px" y="0px"
	 viewBox="0 0 662 1253" style="enable-background:new 0 0 662 1253;" xml:space="preserve">
<style type="text/css">
	.st0{fill:#3B3B3B;}
</style>
<g>
	<path class="st0" d="M604.4,119.9c-0.1-0.1-0.2-0.2-0.4-0.3c-0.2-0.2-0.4-0.4-0.6-0.5c0,0,0,0,0,0c-6.5-5.2-13.7-9.5-21.5-12.5
		l-38.8-16.2l27.5-11.4c0,0,0,0,0,0l25.2-10.6l0.1,0c0.6-0.2,1.1-0.5,1.6-0.7c0.4-0.2,0.7-0.4,1.1-0.6c0.1,0,0.2-0.1,0.2-0.1
		c5.3-3,9.2-7.4,11.5-12.6c0.1-0.2,0.1-0.3,0.2-0.5c0.1-0.3,0.3-0.6,0.4-0.9c0.1-0.4,0.3-0.7,0.4-1.1c0.1-0.2,0.1-0.3,0.2-0.5
		c0.2-0.6,0.4-1.2,0.5-1.8c0-0.1,0-0.2,0.1-0.3c1.6-6.9,0.6-14.3-3.4-20.9c-10-16-30-22.5-47.5-15.5c0,0-22.3,11.5-46.1,21.1
		c0,0,0,0,0,0c-11.5,4.6-23.3,8.8-33.2,11.1c0,0,0,0,0,0c-0.9,0.2-1.7,0.4-2.6,0.6c-4.4,0.9-13.6,3.7-20.6,5.8c0,0,0,0,0,0
		c-4,0.5-7.7,1.5-11,2.9c-2.2-11.3-11.4-19.3-21.2-18.1c-0.5,0.1-1.1,0.2-1.6,0.3l-6-15.1c-3.4-8.4-12.9-12.5-21.3-9.1
		c-8.4,3.4-12.5,12.9-9.1,21.3l10.9,27.2c-2.1,0.7-4,1.7-5.6,2.8l-21.9-27.2c-5.7-7.1-16.1-8.2-23.1-2.5c-7.1,5.7-8.2,16.1-2.5,23.1
		l14.9,18.4c-0.3,0.1-0.6,0.3-0.9,0.4c-7.1,3.1-19.1,10.9-30.6,18.9c0,0,0,0,0,0c-6.9,4.8-13.7,9.7-18.9,13.6
		c-0.8,0.6-1.6,1.1-2.4,1.6c0,0,0,0-0.1,0c-4.1,2.6-8.5,4.4-13.2,5.4c-0.1,0-0.2,0.1-0.4,0.1c-0.8,0.2-1.7,0.3-2.5,0.4
		c-0.1,0-0.3,0-0.4,0.1c-0.8,0.1-1.7,0.2-2.5,0.3c-0.1,0-0.2,0-0.4,0c-0.9,0.1-1.8,0.1-2.7,0.1h-5.2h-43.7
		c-10.8,0-17.4,11.8-11.8,21l16,26.4c6.4,10.5,17.5,17.2,29.8,18c39,2.7,82.1-17.1,82.1-17.1c16,82.1,25.3,148.7,29.6,205
		c0,0,0,0,0,0c1.4,18.6,2.3,36.1,2.7,52.5c0,0,0,0,0,0c0.4,17.6,0.3,34.1-0.4,49.7c0,0,0,0.1-0.1,0.1c-0.1,3.9-0.3,7.7-0.6,11.5
		c-7.9-6.7-17.2-12.7-27.9-17.7c-29.1-13.6-65.7-14.1-97-4.3c-2.2-6.5-6.4-12.8-13-17.5c-16.7-12.3-35.4,1.9-35.5,17.7
		c-0.3,7.3,2.9,15,7.8,21.2c-20.9,17.4-32.4,42.3-25.1,72.6c1.7,7.8,4.8,15,9,21.7c-1.1,0-2.2,0.2-3.3,0.5c-0.7,0.2-1.3,0.4-2,0.7
		L173.9,533c-2-3.8-4.9-6.2-6.5-5.4l-5.3,2.8c-1.6,0.8-1.3,4.6,0.7,8.4l25.9,49.4c-1.4,4.4-1.3,9.5,0.2,14.1
		c4.4,12.9,14.9,17.3,26.7,21.2c4,1.2,8.2,2.5,12.2,2.9c-0.1,0.1-0.2,0.3-0.3,0.4c-0.2,0.4-0.4,0.7-0.6,1.1c-0.2,0.3-0.4,0.7-0.6,1
		c-0.3,0.6-0.6,1.1-0.9,1.7c-0.1,0.2-0.2,0.5-0.3,0.7c-0.7,1.4-1.3,2.8-1.9,4.2c0,0,0,0.1,0,0.1c-0.5,1.1-0.9,2.3-1.3,3.4
		c0,0,0,0,0,0c-6.5,18.1-4.9,37.6,10.1,53.3c-1,1.9-1.9,4.6-2.6,8.2c0,0-3,9.3,0.7,17.1c-34.3-2.3-70.4-6.2-89.1,11.3
		c-2.6,2.5-5.1,5.1-7.5,7.9c0,0.1-0.1,0.1-0.1,0.2c-0.5,0.6-1,1.2-1.4,1.8c-0.5,0.6-0.9,1.1-1.4,1.7c0,0.1-0.1,0.1-0.1,0.2
		c-1.2,1.6-2.4,3.3-3.6,5c0,0,0,0,0,0c-4.8,7.1-8.9,15-12.5,23.6c-12.4-2.2-56.6-12.1-64.8-41.6c1.5-1.8,2.7-3.9,3.1-4.8
		c6.3-13.8,1.2-34.5-8.7-45.9c-3.6-4.2-17.9-17.9-24.2-11.1c-4.6,4.9,3.1,18.4,4.6,23.6c-1.7-3.3-5.8-10.5-10.5-10.6
		c-5-0.1-4.4,21.7-2.6,27.5c3,9.5,9.5,17.7,18.4,22.4c1.5,0.9,4,1.9,6.5,2.4c9.8,35.8,56.2,47.9,73.3,51.2
		c-2.6,7.7-4.8,15.9-6.7,24.5c0,0,0,0,0,0c0,0.1,0,0.1,0,0.2c-0.5,2.4-1.1,4.9-1.5,7.4c-0.1,0.3-0.1,0.5-0.2,0.8
		c-0.5,2.5-1,5.1-1.4,7.7c0,0.1,0,0.2,0,0.2c-0.5,2.6-0.9,5.3-1.3,8c0,0.2-0.1,0.4-0.1,0.6c-10.1,67.6-6.1,152.4-7.2,227.7
		c0,0,0,0,0,0c-0.4,25.5-1.3,50-3.7,72.3c0,0,0.1,0,0.1,0c-1.6,15.2-3.8,29.5-6.8,42.4c-5.4,23,17.3,58.7,69,60.4
		c39.5,1.4,61.8-20.4,62.9-21.5c19.6,0.6,52-0.2,69.7-10.8c-0.4,3.6-1,6.9-1.6,9.9c-3.1,15.5,39.4,31.1,55.2,31.1c0,0,0.1,0,0.1,0
		c0,0,0,0,0,0c31.1,0,40.6-4.4,43.1-15.5c2.9-12.8-9-35-14-52.9c0,0-0.1,0-0.1,0c-1.9-6.8-2.8-13.1-1.5-17.9
		c2.3-8.7,3.6-20.5,4.2-34.2c0.1-0.1,0.1-0.1,0.2-0.2c0.7-16.4,0.4-35.3-0.4-54.5c-0.1-0.1-0.2-0.1-0.3-0.2
		c-0.7-15.5-1.7-31.2-2.7-45.8l39.7,57.6c0,0,0,0,0,0l0.8,1.2l-0.1,3.2c0,0.1,0.1,0.2,0.1,0.3l-1.6,54.5c0,0-0.1,0-0.1,0v0.7
		l-6.4,34.5c0,0,0.1,0,0.1,0l0,0c0,0,0,0,0,0l-5.2,28.1c-0.3,1.5-0.4,3-0.4,4.5c-0.2,14.1,11.2,26.2,25.9,26.2h50.9
		c8.8,0,15.5-7.2,15.5-15.5c0-1.2-0.1-2.4-0.4-3.7c-2.2-9.2-4.9-21-7.5-33.4c0,0,0,0,0,0c-5.4-25.4-10.5-53.5-10.3-68.2
		c0.3-21.5,12.9-63.4,9.8-87.4c-0.1-0.4-0.1-0.8-0.2-1.2c0-0.1,0-0.2-0.1-0.3c-0.2-1.5-0.6-3-1-4.4c-1.4-4.8-4-9.8-7.3-15
		c0,0,0,0,0,0c-13.5-21.1-40.1-44.8-57.9-65.9c0,0,0,0,0,0c-5.6-6.6-10.4-12.9-13.6-18.8c5.3-7.1,11.1-16.5,17.2-29
		c-0.1,0-0.1-0.1-0.2-0.1c15.9-32.9,33.7-87.8,51.2-181.7c3.4-18.4,4.9-43.4,5.1-72.1c0.1,0,0.1-0.1,0.2-0.1c0.1-10.3,0-21-0.3-32.1
		c-0.1,0-0.1-0.1-0.2-0.1c-3-127.3-25.3-300.8-28.5-328.5c-0.2-1.5,1.5-2.5,2.7-1.6l5.2,3.6l51,37.9c67.7,38.2,120.8-28,141.1-57.6
		C669.7,214.2,637.1,146.9,604.4,119.9z M272.1,1165.8c-3.1-4.4-5.3-8.1-8.6-10.5c-0.8-0.6-1.9-1.2-3.1-1.6
		c-2.4-2.3-3.9-3.7-3.9-3.7s-5.9-11.3-11.7-25.9c0,0,0,0,0.1,0c-5-12.7-9.9-27.8-10.7-40c-0.1-1.1-0.1-2.9-0.1-4.9c0,0-0.1,0-0.1,0
		c0-5,0.1-11.4,0.1-11.4c0-3.8-0.9-7.6-2.8-10.9l-7.4-13.3c-2-3.6-3-7.6-3-11.7v-44.6v-18.6c0,0,0.1,0,0.1,0v-15.2
		c25.4,1.1,51.1-0.1,51.1-0.1s15.4,148,11.9,227.3c-1.3-1.9-2.7-3.9-4.3-5.9c-0.1-0.1-0.1-0.1-0.2-0.2
		C277.2,1171.6,274.6,1168.6,272.1,1165.8z M356.7,638.8c-0.5-3.7-0.8-7.2-1-10.7c0.4-0.1,0.9-0.2,1.3-0.3l0.3,1.3c0,0,0-0.1,0-0.1
		l0.1,0.2c0.2-0.7,0.4-1.4,0.5-1.6c0.7-0.2,1.5-0.4,2.2-0.6C358.9,630.9,357.8,634.9,356.7,638.8z M274.4,717.6c-0.1,0-0.3,0-0.4,0
		c0-0.1,0-0.1,0-0.2C274.2,717.5,274.3,717.6,274.4,717.6z"/>
	<path class="st0" d="M158.8,530.7c0,0-9.7-7.7-22.5-9.3c-12.8-1.6-24,3.6-24,3.6s9.7,7.7,22.5,9.3
		C147.6,535.9,158.8,530.7,158.8,530.7z"/>
	<path class="st0" d="M159.3,527.4c0,0-1.3-9.4-7.7-17.1c-6.4-7.7-15.4-10.7-15.4-10.7s1.3,9.4,7.7,17.1
		C150.3,524.4,159.3,527.4,159.3,527.4z"/>
	<path class="st0" d="M161.1,559.6c3.5-12.4,0.1-24.3,0.1-24.3s-9.1,8.3-12.6,20.8c-3.5,12.4-0.1,24.3-0.1,24.3
		S157.6,572.1,161.1,559.6z"/>
	<path class="st0" d="M158.8,534.1c0,0-10.3-0.4-19.7,5c-9.4,5.3-14.3,14.4-14.3,14.4s10.3,0.4,19.7-5
		C153.9,543.1,158.8,534.1,158.8,534.1z"/>
</g>
</svg>
