<?xml version="1.0" encoding="utf-8"?>
<!-- Generator: Adobe Illustrator 24.1.2, SVG Export Plug-In . SVG Version: 6.00 Build 0)  -->
<svg version="1.1" id="Слой_2" xmlns="http://www.w3.org/2000/svg" xmlns:xlink="http://www.w3.org/1999/xlink" x="0px" y="0px"
	 viewBox="0 0 662 1253" style="enable-background:new 0 0 662 1253;" xml:space="preserve">
<style type="text/css">
	.st0{fill:#FAD54F;}
	.st1{fill:#FAC42F;}
	.st2{fill:#DE741D;}
	.st3{fill:#FAB330;}
	.st4{fill:#E68C26;}
	.st5{fill:#FBF4AF;}
	.st6{fill:#3B3B3B;}
	.st7{fill:#E68726;}
	.st8{fill:#F7F7F7;}
	.st9{fill:#9CC75B;}
</style>
<g>
	<g>
		<path class="st0" d="M286.1,116.3h-48.9c-10.8,0-17.4,11.8-11.8,21l16,26.4c6.4,10.5,17.5,17.2,29.8,18
			c39,2.7,82.1-17.1,82.1-17.1c55.2,283,31.1,383.1-5.2,503.1c-6.5,21.4-43.5,42.9-65.1,48.3c-41.3,10.3-112.6-14.5-141.9,12.9
			c-81.2,76-31.2,321.1-60.5,445.4c-5.4,23,17.3,58.7,69,60.4c40.6,1.4,63-21.6,63-21.6l-35.4-266.6c20.7,10.4,94.9,6.9,94.9,6.9
			s20.7,198.5,8.6,258.9c-3.1,15.5,39.4,31.1,55.2,31.1c31.1,0,40.6-4.4,43.1-15.5c4-17.7-20.2-53.3-15.5-70.8
			c12.1-44.9-3.5-176-3.5-200.2c0-31.1,53.5,20.7,103.5-248.5c18.7-100.7-19.5-396-23.7-432.9c-0.2-1.5,1.5-2.5,2.7-1.6l57.7,39.9
			c31.5,21.8,74.6,14.5,97.2-16.3c0,0,36.7-43.5,42.1-62c14.1-46.7-10.1-110.5-57.6-128.9l-38.8-16.2l52.8-22
			c15.7-6.6,21.8-25.7,12.8-40.1l0,0c-10-16-30-22.5-47.5-15.5c0,0-51.7,26.7-81.9,32.8c-7.5,1.5-29.3,8.6-29.3,8.6
			s-68.6,12.3-89.7,21.6c-11.4,5-35.6,22.2-49.6,32.5C303.5,113.5,294.9,116.3,286.1,116.3z"/>
		<g>
			<g>
				<path class="st1" d="M220.9,953.4v78.5c0,4.1,1,8.1,3,11.7l7.4,13.3c1.9,3.3,2.8,7.1,2.8,10.9c0,0-0.3,12.2,0,16.2
					c1.7,26.3,22.4,66,22.4,66s41.9,38.3,31.1,48.3c-22.4,20.7-91.5,13.8-91.5,13.8l-34.5-274.4L220.9,953.4z"/>
				<path class="st2" d="M190.6,1167.8L190.6,1167.8l5.6,44.4c0,0,69,6.9,91.5-13.8c4.7-4.3-0.6-14.1-8-23.6
					c-8.3-8-10.9-15.6-16.2-19.5C249.9,1145,190.6,1167.8,190.6,1167.8z"/>
			</g>
			<g>
				<path class="st1" d="M394.1,916.9c14.4,29.6,70.8,71,80,102.1c6.6,22.4-8.3,69.8-8.6,93.2c-0.3,21.8,11.1,73.5,17.8,101.7
					c2.3,9.8-5.1,19.1-15.1,19.1h-50.9c-16.2,0-28.4-14.7-25.5-30.6l11.6-62.6l1.7-58.7l-53.5-77.7v-86.5
					C351.6,916.9,389.5,907.3,394.1,916.9z"/>
				<path class="st2" d="M397,1174.2l-5.2,28.1c-2.9,15.9,9.3,30.6,25.5,30.6h50.9c10,0,17.4-9.3,15.1-19.1
					c-2.2-9.2-4.9-21-7.5-33.4C462.2,1169.7,403.2,1173.8,397,1174.2z"/>
			</g>
			<g>
				<path class="st3" d="M398.3,69.3l-25.5,20.6L346.2,57c-5.7-7-4.6-17.4,2.5-23.1l0,0c7-5.7,17.4-4.6,23.1,2.5L398.3,69.3z"/>
				<path class="st3" d="M434.6,60.7l-30.4,12.2l-15.7-39.3c-3.4-8.4,0.7-17.9,9.1-21.3l0,0c8.4-3.4,17.9,0.7,21.3,9.1L434.6,60.7z"
					/>
			</g>
			<path class="st4" d="M80.8,1173.5c-0.1,0.3-0.1,0.5-0.2,0.8c-5.4,23,17.3,58.7,69,60.4c40.6,1.4,63-21.6,63-21.6l-6.7-50.4
				C141.3,1155.4,89.3,1170.8,80.8,1173.5z"/>
			<path class="st4" d="M284.2,1177.4c-0.5,13.9-1.6,25.9-3.4,34.9c-3.1,15.5,39.4,31.1,55.2,31.1c31.1,0,40.6-4.4,43.1-15.5
				c2.9-12.8-9-35-14-52.9C307,1165,288.8,1173.9,284.2,1177.4z"/>
			<g>
				<path class="st3" d="M299.8,162.1c14.8,0,26.8-12,26.8-26.8c0-11.8-7.7-21.9-18.4-25.4c-6.6,4.2-14.3,6.4-22.1,6.4h-5.2
					c-4.9,4.8-7.9,11.6-7.9,19C273,150.1,285,162.1,299.8,162.1z"/>
				<path class="st3" d="M248.7,172.3c3.3-3.3,5.4-7.8,5.4-12.9c0-10-8.1-18.1-18.1-18.1c-2.5,0-5,0.5-7.2,1.5l12.7,20.8
					C243.4,166.9,245.9,169.9,248.7,172.3z"/>
				<ellipse class="st3" cx="384.3" cy="133.6" rx="18.1" ry="18.1"/>
				<path class="st3" d="M612.8,40.9c-4.9-4.1-11.1-6.5-17.9-6.5c-15.7,0-28.5,13.1-28.5,29.3c0,5.6,1.6,10.8,4.2,15.3l25.3-10.6
					C607.3,63.7,613.6,52.3,612.8,40.9z"/>
				<circle class="st3" cx="407.6" cy="225.9" r="25.9"/>
				<path class="st3" d="M373.1,75.8c0-1.5-0.2-3-0.4-4.4c-5,1.5-9.3,3-12.5,4.4c-7.1,3.1-19.1,10.9-30.6,18.9
					c4.6,4.3,10.8,7,17.6,7C361.5,101.7,373.1,90.1,373.1,75.8z"/>
				<path class="st3" d="M400.7,364c-6.6,0-12.8,2.1-17.8,5.6c1.4,18.6,2.3,36.1,2.7,52.5c4.5,2.5,9.6,3.9,15.1,3.9
					c17.2,0,31.1-13.9,31.1-31.1S417.9,364,400.7,364z"/>
				
					<ellipse transform="matrix(0.9732 -0.2298 0.2298 0.9732 -140.1173 108.0459)" class="st3" cx="393.8" cy="655.6" rx="31.1" ry="31.1"/>
				<circle class="st3" cx="236.8" cy="764.4" r="36.2"/>
				<circle class="st3" cx="343.8" cy="838.6" r="36.2"/>
				
					<ellipse transform="matrix(0.9864 -0.1646 0.1646 0.9864 -148.6177 34.9664)" class="st3" cx="136.7" cy="914.4" rx="31.9" ry="31.9"/>
				<path class="st3" d="M408.9,938c-5.6-6.6-10.4-12.9-13.6-18.8c5.3-7.1,11.1-16.5,17.2-29c-5.1-4.2-11.5-6.7-18.6-6.7
					c-16.2,0-29.3,13.1-29.3,29.3s13.1,29.3,29.3,29.3C399.3,942.1,404.5,940.6,408.9,938z"/>
				<path class="st3" d="M124.6,840.3c0-14.9-9-27.7-21.8-33.3c-4.7,21.1-7.5,44.4-9.2,69.1C111.1,873.6,124.6,858.5,124.6,840.3z"
					/>
				<path class="st3" d="M200.5,1019.8c0,17.9,13,32.7,30,35.7l-6.6-11.8c-2-3.6-3-7.6-3-11.7v-44.7
					C208.9,993.1,200.5,1005.5,200.5,1019.8z"/>
				<path class="st3" d="M343.8,1059.5c-20,0-36.2,16.2-36.2,36.2s16.2,36.2,36.2,36.2c9.2,0,17.7-3.5,24.1-9.2
					c0.7-16.4,0.4-35.3-0.4-54.5C361.1,1062.8,352.8,1059.5,343.8,1059.5z"/>
				<path class="st3" d="M124.6,1095.7c0-19.1-14.8-34.7-33.6-36.1c-0.4,25.5-1.3,50-3.7,72.3c0.3,0,0.6,0,1,0
					C108.4,1132,124.6,1115.7,124.6,1095.7z"/>
				<circle class="st3" cx="409.4" cy="740.2" r="25.9"/>
				<circle class="st3" cx="326.5" cy="762.6" r="21.6"/>
				
					<ellipse transform="matrix(0.9732 -0.2298 0.2298 0.9732 -188.7894 74.9289)" class="st3" cx="227.3" cy="848" rx="25.9" ry="25.9"/>
				<circle class="st3" cx="300.6" cy="912.8" r="25.9"/>
				
					<ellipse transform="matrix(0.3827 -0.9239 0.9239 0.3827 -670.2633 995.0757)" class="st3" cx="409.5" cy="999.1" rx="25.9" ry="25.9"/>
				<path class="st3" d="M165,717.7c-9.4,1.9-17.7,5.4-24,11.3c-5.2,4.9-9.9,10.5-14.1,16.7c2.5,11.7,12.9,20.4,25.3,20.4
					c14.3,0,25.9-11.6,25.9-25.9C178.1,730.5,172.8,722.1,165,717.7z"/>
				
					<ellipse transform="matrix(0.9864 -0.1646 0.1646 0.9864 -162.3477 38.4071)" class="st3" cx="150.6" cy="998.9" rx="25.9" ry="25.9"/>
				<path class="st3" d="M135,1138.9c-14.3,0-25.9,11.6-25.9,25.9c0,0.6,0,1.2,0.1,1.8c13.6-2.6,31.2-5,51.4-5.6
					C158.7,1148.5,148,1138.9,135,1138.9z"/>
				<path class="st3" d="M298.9,1144.1c-5.3,0-10.3,1.6-14.4,4.4c0.1,10.4,0,20.2-0.4,29.2c0-0.1,0-0.2,0-0.3
					c3.3-2.5,13.6-7.8,40.6-6.9c0-0.2,0-0.3,0-0.5C324.8,1155.6,313.2,1144.1,298.9,1144.1z"/>
				<path class="st3" d="M403.3,1139v0.7l-6.4,34.5c2.6-0.2,14.4-1,28.3-1.1c0.9-2.6,1.4-5.4,1.4-8.3
					C426.6,1151.3,416.4,1140.3,403.3,1139z"/>
				<path class="st3" d="M454.2,1104.4c0,9.2,4.8,17.3,12.1,21.9c-0.6-5.4-0.9-10.2-0.9-14.1c0.1-8.2,2-19.4,4.2-31.4
					C460.6,1084.7,454.2,1093.8,454.2,1104.4z"/>
				<path class="st3" d="M234.1,1079.2c-1.9-0.4-3.9-0.7-5.9-0.7c-14.3,0-25.9,11.6-25.9,25.9s11.6,25.9,25.9,25.9
					c6.4,0,12.2-2.3,16.7-6.2c-5-12.7-9.9-27.8-10.7-40C234.1,1083,234.1,1081.2,234.1,1079.2z"/>
				<path class="st3" d="M228.2,918c-14.3,0-25.9,11.6-25.9,25.9c0,11.8,7.9,21.7,18.7,24.8v-15.3c11,0.5,22.1,0.5,31.1,0.5
					c1.3-3.1,2-6.5,2-10C254,929.6,242.5,918,228.2,918z"/>
				<path class="st3" d="M349.8,707.4c0-9.1-7.3-16.4-16.4-16.4c-1.2,0-2.4,0.1-3.6,0.4c-3.3,2.7-6.9,5.3-10.6,7.8
					c-1.4,2.4-2.2,5.2-2.2,8.2c0,9.1,7.3,16.4,16.4,16.4S349.8,716.5,349.8,707.4z"/>
				<path class="st3" d="M385.2,471.9c-0.3,7.9-0.8,15.7-1.3,23.2c4,9.2,13.1,15.6,23.8,15.6c14.3,0,25.9-11.6,25.9-25.9
					s-11.6-25.9-25.9-25.9C398.1,458.9,389.7,464.1,385.2,471.9z"/>
				
					<ellipse transform="matrix(0.9732 -0.2298 0.2298 0.9732 -117.6161 111.4582)" class="st3" cx="419.7" cy="560.7" rx="16.4" ry="16.4"/>
				<path class="st3" d="M468.8,636.2c0.1-10.3,0-21-0.3-32.1c-2.5-1.3-5.3-2-8.3-2c-10,0-18.1,8.1-18.1,18.1s8.1,18.1,18.1,18.1
					C463.4,638.4,466.3,637.6,468.8,636.2z"/>
				<ellipse class="st3" cx="418" cy="305.3" rx="16.4" ry="16.4"/>
				<circle class="st3" cx="161.7" cy="820.5" r="16.4"/>
				
					<ellipse transform="matrix(0.9732 -0.2298 0.2298 0.9732 -177.2735 118.6112)" class="st3" cx="420.6" cy="820.4" rx="16.4" ry="16.4"/>
				
					<ellipse transform="matrix(0.9732 -0.2298 0.2298 0.9732 -212.8809 102.657)" class="st3" cx="334.3" cy="965.3" rx="16.4" ry="16.4"/>
				<circle class="st3" cx="161.7" cy="1079.3" r="16.4"/>
				<path class="st3" d="M420.6,1062.9c-9.1,0-16.4,7.3-16.4,16.4c0,0.2,0,0.3,0,0.5l0.8,1.2l-0.1,3.2c2.1,6.6,8.3,11.4,15.6,11.4
					c9.1,0,16.4-7.3,16.4-16.4S429.6,1062.9,420.6,1062.9z"/>
				<circle class="st3" cx="326.5" cy="1021.5" r="25.9"/>
				<path class="st3" d="M466.8,1003.9c-6.6,4.7-10.9,12.4-10.9,21.1c0,11.8,7.9,21.7,18.7,24.8c1.4-12,1.8-23-0.5-30.9
					C472.7,1014.1,470.1,1009.1,466.8,1003.9z"/>
				<path class="st3" d="M500.8,65.4c10.5,0,19-8.5,19-19c0-4.8-1.8-9.2-4.7-12.5c-11.5,4.6-23.3,8.8-33.2,11.1c0,0.5-0.1,1-0.1,1.4
					C481.9,56.9,490.4,65.4,500.8,65.4z"/>
			</g>
		</g>
		<path class="st5" d="M443.4,274.3l55.3,41.1c67.7,38.2,120.8-28,141.1-57.6c30.2-44-3.4-112.3-36.4-138.7
			C579,126.6,481.3,163,443.4,274.3z"/>
		<g>
			<path class="st6" d="M575.9,178.5c2.1,1.8,3.3,3.6,4.1,5.4c0.8,1.8,1.1,3.6,1.1,5.4c0,1.8-0.3,3.6-1.1,5.4
				c-0.8,1.8-1.9,3.6-4.1,5.4c-2.2-1.8-3.3-3.6-4.1-5.4c-0.8-1.8-1.1-3.6-1.1-5.4c0-1.8,0.4-3.6,1.1-5.4
				C572.7,182,573.8,180.3,575.9,178.5z"/>
			<path class="st6" d="M553.5,214.7c-2,2-3.9,3-5.7,3.6c-1.9,0.6-3.7,0.8-5.5,0.7s-3.6-0.6-5.3-1.5s-3.4-2.2-5.1-4.5
				c2-2,3.9-3,5.7-3.6c1.9-0.6,3.7-0.8,5.5-0.7s3.6,0.6,5.3,1.5C550.1,211.2,551.8,212.4,553.5,214.7z"/>
		</g>
		<g>
			
				<ellipse transform="matrix(0.7548 -0.6559 0.6559 0.7548 -4.0171 335.8821)" class="st6" cx="447.3" cy="173.3" rx="8.6" ry="11.2"/>
			<path class="st6" d="M533.2,114.1c4.1,4.7,4.4,11,0.8,14.1c-3.6,3.1-9.8,1.9-13.9-2.8c-4.1-4.7-4.4-11-0.8-14.1
				C523,108.2,529.2,109.4,533.2,114.1z"/>
		</g>
		<g>
			
				<ellipse transform="matrix(0.9928 -0.1196 0.1196 0.9928 -3.9154 51.7543)" class="st7" cx="429.2" cy="58.5" rx="19" ry="22.4"/>
			
				<ellipse transform="matrix(0.9928 -0.1196 0.1196 0.9928 -6.1741 49.1171)" class="st7" cx="406.1" cy="76" rx="19.8" ry="16.4"/>
			<path class="st7" d="M436.6,91.5c1.2,9.9-5.1,18.9-14.1,20s-17.2-6.1-18.4-16c-1.2-9.9,5.1-18.9,14.1-20S435.4,81.5,436.6,91.5z"
				/>
			
				<ellipse transform="matrix(0.8417 -0.5399 0.5399 0.8417 24.3844 256.1703)" class="st7" cx="449.1" cy="86.5" rx="14.2" ry="23.6"/>
			
				<ellipse transform="matrix(0.9928 -0.1196 0.1196 0.9928 -4.8965 55.606)" class="st7" cx="460.8" cy="68.6" rx="26.8" ry="17.3"/>
		</g>
		<g>
			<g>
				<path class="st0" d="M115.8,783.6c-2.8-0.4-68.4-9.2-79.8-52.9l13.4-3.5c9,34.7,67.6,42.6,68.2,42.7L115.8,783.6z"/>
			</g>
			<g>
				<path class="st7" d="M44,730.5c3.3,1.8,7.8-5.5,8.7-7.5c6.3-13.8,1.2-34.5-8.7-45.9c-3.6-4.2-17.9-17.9-24.2-11.1
					c-4.6,4.9,3.1,18.4,4.6,23.6c-1.7-3.3-5.8-10.5-10.5-10.6c-5-0.1-4.4,21.7-2.6,27.5c3,9.5,9.5,17.7,18.4,22.4
					c2.9,1.6,9,3.9,12.4,2.1"/>
			</g>
		</g>
		<g>
			<path class="st6" d="M474.7,277.9c-1.7-0.5-3.3-1.1-4.9-1.8c-0.3,1.4-1.8,9.7-0.9,17.1l7.1,5.3
				C473,294.9,473.6,284.4,474.7,277.9z"/>
			<path class="st6" d="M484.2,279.2c1.4,0,2.6-1.2,2.6-2.6s-1.2-2.6-2.6-2.6c-7,0-13.9-2.5-19.2-7l-1.5-1.3
				c-1.1-0.9-2.7-0.8-3.6,0.3s-0.8,2.7,0.3,3.6l1.5,1.3c2.5,2.1,5.3,3.8,8.2,5.1c1.6,0.7,3.2,1.3,4.9,1.8
				C477.8,278.8,481,279.2,484.2,279.2z"/>
		</g>
	</g>
	<g>
		<g>
			<g>
				<path class="st6" d="M355,690.1c13.7,3.3,10.2,24.2-3.1,24.8c-17.5,0.6-11.6-25.6,0.5-24.1"/>
				<path class="st8" d="M355.6,621.3c-1.3,29.2,18.5,69.6-12.3,91.9c-29.8,21.7-79.1,5.8-104.2-14.6c-34.5-26.7-21.6-68.5,6.3-93.5
					c16.9-14.9,45.4-7.4,66.6-3.6c11.5,2.1,41.6,13.8,45.8,26c0,0-0.2,0.9-0.5,1.7"/>
				<g>
					<path class="st6" d="M355.6,621.3l0.7,3.3c-0.2-0.4-0.5-0.7-0.7-1.1C355.6,622.9,355.6,622.1,355.6,621.3z"/>
					<path class="st6" d="M357.7,627.4c0,0-0.2,0.9-0.5,1.7l-0.9-4.5C356.9,625.6,357.4,626.5,357.7,627.4z"/>
					<path class="st6" d="M301.4,631c-15.8-3.2-31.8-5.6-47-4.1c-15.2,1-23.8,6-32.5,12.1c4.5-12.5,12.9-24.4,23.4-33.9
						c16.9-14.9,45.4-7.4,66.6-3.6c10.2,1.9,35.5,11.4,43.6,22.2c-0.1,11.8,2.8,25.2,4.3,38.4C346.2,644.8,322.9,635.4,301.4,631z"
						/>
				</g>
				<path class="st6" d="M284.5,715.5c0,0,20.2-18.6,46.1-5.5c0,0,4.4,2.9,0.1,15.3c0,0-3.8,17.9-19,17.2c-0.5,0-0.9-0.1-1.4-0.1
					c-16.5-1.9-23.7-4.6-26.7-9.1C283.6,733.2,280.1,728.5,284.5,715.5z"/>
				<path class="st6" d="M274.6,714.9c0,0-8.3-26.1-37.4-27.6c0,0-5.3,0.3-7.7,13.2c0,0-5.6,17.4,8,24.4c0.4,0.2,0.9,0.4,1.3,0.6
					c15.3,6.5,22.9,7.8,27.7,5.3C266.6,730.8,272.1,728.5,274.6,714.9z"/>
				<path class="st6" d="M347.9,643.6c-4.4,16.5-13.5,28.7-27.2,38.5c-12.8,9.1-34.9,14-43.8-3.3c-3.9-7.6,0.5-16.2,6.8-20.4
					c8-5.2,15.6-9.4,22.9-15.8c6.8-6.2,10.2-13.6,20.7-15.3c9-1.4,16.1,3.2,18.8,11.5c0.8,2.3,1.6,4.2,1,6.8"/>
				<path class="st6" d="M250.2,602.2c-1.3-3.9-5.7-3.9-9-5.4c-4.1-2.1-8.2-4.8-12.3-7.2c-8.2-4.8-19-15-29.3-12
					c-11,3.1-13.9,15.1-10.7,24.7c4.4,12.9,14.9,17.3,26.7,21.2c9.6,2.9,19.9,6,28.2-2c3.6-3.3,11.9-17.1,5-20.1"/>
			</g>
			<path class="st6" d="M386,513.4c-9.6-15.8,7-41.2,25.5-44.1c15.5-2.9,33,12.7,24.2,31.4C425.2,524.1,394.4,527.4,386,513.4z"/>
			<path class="st6" d="M249.5,495.1c-17.4,6.4-39-14.8-38.3-33.5c0.1-15.8,18.8-30,35.5-17.7C267.5,458.8,264.8,489.6,249.5,495.1z
				"/>
			<path class="st8" d="M356.7,465.7c79.3,36.6,79.9,128.9,14.7,157c-53.5,24.8-163.3-2.7-177.5-67.3
				C174.5,475.2,287.2,433.2,356.7,465.7z"/>
			<path class="st6" d="M377.6,539.6c-4.9,23.3-34.7,30.1-49.6,15.1c-12.8-12.1-13.5-42.8,6.2-51.1
				C358.5,492.8,382,519.2,377.6,539.6z"/>
			<path class="st6" d="M220.5,508c-6,23,17.7,42.4,37.7,35.5c16.8-5.2,31.1-32.3,17.2-48.5C258.4,474.6,225.6,487.7,220.5,508z"/>
			<path class="st6" d="M274.3,542.8c-0.9,5.6,14.5,12.8,14.5,12.8s16.9-1.8,17.9-7.4c0.9-5.6-5.6-11.3-14.5-12.8
				C283.3,533.9,275.3,537.2,274.3,542.8z"/>
			<path class="st6" d="M318.5,569c-7.1,5.6-17.3,6.8-26,6.4c-12.8-0.6-24.6-6.4-32.9-16.1c-1.6-1.8,1.1-4.5,2.7-2.7
				c7.8,9.1,18.4,14.1,30.2,15c7.5,0.5,17.2-0.4,23.4-5.3C317.8,564.9,320.5,567.5,318.5,569L318.5,569z"/>
			<path class="st8" d="M357.5,540.3c0.3-5-0.3-12.7-6-14.6c-6.2-2-9.9,6.8-11.1,11.1c-0.7,2.3-4.3,1.4-3.6-1
				c1.8-6.4,6.5-15.4,14.7-14c8.3,1.4,10.3,11.4,9.9,18.4C361.1,542.7,357.3,542.7,357.5,540.3L357.5,540.3z"/>
			<path class="st8" d="M259.2,522.1c0.3-5-0.3-12.7-6-14.6c-6.2-2-9.9,6.8-11.1,11.1c-0.7,2.3-4.3,1.4-3.6-1
				c1.8-6.4,6.5-15.4,14.7-14c8.3,1.4,10.3,11.4,9.9,18.4C262.8,524.5,259,524.5,259.2,522.1L259.2,522.1z"/>
		</g>
		<g>
			<g>
				<g>
					<g>
						<path class="st9" d="M197.3,604.6c2,3.8,4.9,6.2,6.5,5.4l5.3-2.8c1.6-0.8,1.3-4.6-0.7-8.4L173.9,533c-2-3.8-4.9-6.2-6.5-5.4
							l-5.3,2.8c-1.6,0.8-1.3,4.6,0.7,8.4L197.3,604.6z"/>
					</g>
				</g>
			</g>
			<g>
				<path class="st9" d="M134.8,534.3c-12.8-1.6-22.5-9.3-22.5-9.3s11.2-5.2,24-3.6c12.8,1.6,22.5,9.3,22.5,9.3
					S147.6,535.9,134.8,534.3z"/>
				<path class="st9" d="M143.9,516.7c-6.4-7.7-7.7-17.1-7.7-17.1s9,3,15.4,10.7s7.7,17.1,7.7,17.1S150.3,524.4,143.9,516.7z"/>
				<path class="st9" d="M161.1,559.6c-3.5,12.5-12.6,20.8-12.6,20.8s-3.4-11.9,0.1-24.3c3.5-12.5,12.6-20.8,12.6-20.8
					S164.6,547.2,161.1,559.6z"/>
				<path class="st9" d="M144.5,548.5c-9.4,5.4-19.7,5-19.7,5s4.9-9.1,14.3-14.4c9.4-5.4,19.7-5,19.7-5S153.9,543.1,144.5,548.5z"/>
			</g>
		</g>
	</g>
</g>
</svg>
