<?xml version="1.0" encoding="utf-8"?>
<!-- Generator: Adobe Illustrator 24.1.2, SVG Export Plug-In . SVG Version: 6.00 Build 0)  -->
<svg version="1.1" xmlns="http://www.w3.org/2000/svg" xmlns:xlink="http://www.w3.org/1999/xlink" x="0px" y="0px"
	 viewBox="0 0 647 958" style="enable-background:new 0 0 647 958;" xml:space="preserve">
<style type="text/css">
	.st0{fill:#FFFFFF;}
	.st1{fill:#F7F7F7;}
	.st2{fill:#3B3B3B;}
	.st3{fill:#E6E6E6;}
	.st4{fill:#262626;}
	.st5{fill:#595959;}
	.st6{fill:#696969;}
</style>
<g id="Слой_1">
</g>
<g id="Слой_2">
	<g>
		<g>
			<g>
				<path class="st0" d="M643.2,803.9l-0.3-0.2c0-0.2-0.1-0.5-0.1-0.7l-19.9-92.2c-1-4.4-2.3-8.7-4.1-12.8l0.5-0.3l-3.9-6.7
					c-4.4-8-10.2-15.1-17.2-21l-4-3.6l-0.4,0.2c-1.5-1.1-3-2.1-4.6-3.1l-48.8-29.8c4.4-7.2,8.8-14.7,12.4-21.8l8.3-15.8l-0.9,0.1
					c2.1-4.9,3.7-9.3,4.6-13.1c1.2-4.7,2.2-10,3-15.7l0.4,0.1l1.3-11.8c1.3-11.8,2-25.2,2.4-41.2l0.2-9.4l-0.2,0
					c0.3-32.6-1.1-67.5-2.8-95.3c1.5-3.7,1.6-7.1,1.3-9.6c-3.1-23.9-3.3-29.3-1.7-48.2c0.4-5.2,4.7-18.2,9.7-33.1
					c8-23.8,19.1-57.3,25.8-93.1c21.9-10.1,32.1-22.9,36.7-31.2c6.3-11.4,7.5-23.4,3.3-33.8c-4.2-10.6-16.4-16.2-36.2-16.8
					c-3.8-28.6-14-52.7-30.6-71.6c-17.6-20.1-42.4-34.5-74-43l-4.8-10.2C493.1,7.5,481.3,0,468.4,0c-5,0-9.8,1.1-14.4,3.3
					c-10.7,5-17.8,14.3-20.2,26.1c-1.8,8.8-0.8,18.4,2.8,27.7c-12.4-2.6-25.4-4-38.8-4c-33.6,0-68.1,9.7-97.9,27.3l-0.1,0l-4,2.5
					c-14.8,9.2-27.7,19.9-38.4,31.5c-0.3,0.3-0.6,0.6-0.9,0.9c-0.2,0.3-0.5,0.5-0.7,0.8c-20.7,23.1-32.2,49.2-32.2,74.3
					c0,16.5,3.8,32.9,11,48.2c0.2,0.5,0.5,1,0.7,1.4c0.1,0.2,0.2,0.5,0.3,0.7c22.3,46.1,74.9,84,149.9,85.3l0.6,0l17.4-1.8
					c-5.5,48.8-19.4,82.6-42.1,102.1l-4.3,3.2c-9.2,6.9-20,11.8-32.2,14.4l-0.2,0c-0.3,0-0.7,0.1-1.1,0.2l-2.1,0.5
					c-2.8,0.4-5.9,0.6-9.2,0.6c-1.1,0-2.2,0-3.3-0.1c-0.5,0-1,0-1.5-0.1c-0.6,0-1.2-0.1-1.8-0.1c-0.7,0-1.3-0.1-2-0.2
					c-0.5,0-1.1-0.1-1.6-0.1c-0.7-0.1-1.4-0.1-2-0.2c-0.6-0.1-1.2-0.1-1.9-0.2c-0.6-0.1-1.2-0.2-1.7-0.2c-0.8-0.1-1.7-0.2-2.5-0.4
					c-0.4-0.1-0.7-0.1-1.1-0.2c-1.2-0.2-2.4-0.4-3.6-0.6c0,0,0,0-0.1,0c-13.7-2.4-28.5-6.4-43-10.3c-24.1-6.5-46.9-12.6-66.1-12.6
					c-5.3,0-10,0.5-14.3,1.4c-17.7,3.8-33.1,12.3-45.7,24.9c-0.4-1.6-0.7-2.6-0.7-2.6L109.3,459c-2.8,3.9-5.3,8-7.7,12.4
					c-26.2-7.2-32.3-31.3-33.7-42.2c5.3-17,2.4-41-12.2-54.4c-4-3.7-9.1-7.2-14.2-9.5c-5.2-2.3-10.6-3.9-15.7-4.6l-0.2,0
					c-0.4,0-0.8-0.1-1.4-0.2c-2.1-0.3-5-0.8-8-0.8c-3.3,0-6,0.5-8.4,1.6c-4.2,2-7.1,5.7-7.8,10.3l0,0.1c-0.9,6.1,2.7,10.2,5.1,12.4
					c-0.8,3.7-0.2,7.4,0.3,9.9c0.1,0.4,0.2,0.9,0.2,1.2c0.1,1.1,0.3,2.3,0.4,3.4c0.9,8.7,2,18.6,9.1,27.7c4.6,6,11.5,10.7,19.8,13.7
					l0.4,0.1c0.3,0.1,0.6,0.2,0.9,0.3c1.3,5.9,3.3,12.9,6.5,20.1c9.5,21,25.4,35.4,46.5,42.2c-1.3,4.6-2.3,9-3.1,13l-1-0.7
					l-1.5,17.5c-0.1,0.8-0.1,1.4-0.2,2.1c-0.1,1.5-0.2,2.7-0.2,3.3c0,0.3,0,0.4,0,0.4l0,0.8l0,0.1l0,0.1l3.6,31.9l0.8,7.3l0,0
					l11.9,106.5c0,0.1,0,0.3-0.1,0.4l-0.1,0.2c-2,6.3-3.5,11.8-4.6,16.2l-1.4-0.3l-0.2,9.1c-0.1,0.7-0.1,1.3-0.2,1.9
					c-0.4,8,2.6,22.2,9.5,44.4l0.2,0.7l0,0c0.4,1.2,0.8,2.5,1.2,3.8l0.2,0.6c0,0.1,0.1,0.5,0.1,1.1L102,873.7c0,3.1,0.7,6.1,2.2,8.8
					c3.5,6.7,17.9,28.2,56.8,28.2c0,0,0.1,0,0.1,0c0,0,0.1,0,0.1,0c19.5,0,33.5-3.9,41.2-6.8c4.1,3,9,4.7,14.1,4.7
					c0.6,0,1.3,0,1.9-0.1l36.8-2.9c6-0.5,11.3-4.1,13.9-9.5c2.6-5.5,2.1-11.7-1.4-16.7l-23-32.8c-0.8-1.2-1.4-2.5-1.6-4.1
					l-14.5-88.3c-0.7-4.4-0.3-8.9,1.3-13l14.4-37.9l0.4-1c11.8,5.3,25.7,10.5,41.6,14.9l14.8,4.3l-0.2-0.6
					c5.9,1.3,12.1,2.6,18.5,3.6c3.7,0.6,8.5,0.9,14.5,0.9c3.1,0,6.5-0.1,9.9-0.2l-0.2,0.5l16.5-1.4c12.6-1,24.3-2.4,30.9-3.1
					l-1,32.4l-0.9,0.2l0.8,3.7l-0.1,4.1l0.9-0.6l0,0.1c0.5,3.1,1.4,6.1,2.6,9c0.3,0.7,0.6,1.5,1,2.2l9.5,20.2
					c0.6,1.5,0.9,3.1,0.8,4.8l-1.1,13.3l-0.1,0l-3.5,42.7l0.1,0l-1.4,17l0,0l-3.3,40.5c-0.1,0.7-0.1,1.3-0.1,1.9c0,0.2,0,0.4,0,0.6
					c0,0.4,0,0.8,0.1,1.3c0,0.3,0.1,0.5,0.1,0.7c0,0.4,0.1,0.8,0.2,1.1c0,0.3,0.1,0.5,0.2,0.8c0.1,0.4,0.1,0.7,0.2,1.1
					c0.1,0.3,0.2,0.5,0.2,0.7c0.1,0.3,0.2,0.7,0.3,1c0.1,0.2,0.2,0.5,0.3,0.7c0.1,0.3,0.3,0.7,0.4,1c0.1,0.2,0.2,0.5,0.3,0.7
					c0.2,0.3,0.3,0.6,0.5,1c0.1,0.2,0.3,0.4,0.4,0.6c0.2,0.3,0.4,0.6,0.6,0.9c0.1,0.2,0.3,0.4,0.4,0.6c0.2,0.3,0.5,0.6,0.7,0.9
					c0.1,0.2,0.3,0.4,0.5,0.5c0.3,0.3,0.5,0.6,0.8,0.8c0.2,0.2,0.3,0.3,0.5,0.5c0.3,0.3,0.6,0.5,0.9,0.8c0.2,0.1,0.3,0.3,0.5,0.4
					c0.3,0.2,0.6,0.5,1,0.7c0.2,0.1,0.4,0.3,0.6,0.4c0.3,0.2,0.7,0.4,1,0.6c0.2,0.1,0.4,0.2,0.6,0.3c0.3,0.2,0.7,0.4,1.1,0.5
					c0.2,0.1,0.4,0.2,0.7,0.3c0.4,0.2,0.7,0.3,1.1,0.4c0.2,0.1,0.5,0.2,0.7,0.3c0.1,0,0.3,0.1,0.4,0.1l29.3,14.6
					c1.8,1,19.6,9.9,38.2,9.9c0,0,0,0,0,0c17.2,0,30.3-7.5,37.9-21.6l0.5-0.9l1.2-1.9l0-0.2l0.1-0.1l-14-71.4l-0.1,0l-2.3-11.8
					l0.1,0l-7.5-38.4l-1-0.1l-8.2-18.5c-0.5-1.1-0.8-2.2-0.9-3.5v-1.7l0.5-35.4l-0.1,0l0.3-20.5l0.2,0l0.4-24.8l61.2,19.8
					c0.8,0.3,1.5,0.7,1.9,1.4c0.1,0.2,0.2,0.4,0.3,0.6l0.3,1.1l1.4,11.2l1.3,11.7c0.5,3.7,0.1,7.5-1.2,11l-5,14l0.1,0
					c-0.2,0.5-0.3,0.9-0.5,1.3l-0.1,0l-1.5,4.9c-4.2,13.9-5.4,23.5-3.7,30.2l0,0.1c4.3,16.1,18.6,30.3,42.7,42.3
					c16.8,8.3,32.4,12.6,33.1,12.7c1.9,0.5,3.9,0.8,5.9,0.8c0,0,0,0,0,0c0,0,0,0,0,0c0,0,0,0,0,0c12.9,0,23.3-10.5,23.3-23.4v-31.4
					c0-2.7-0.2-5.5-0.6-8.3L643.2,803.9z"/>
			</g>
		</g>
		<g>
			<g>
				<g>
					<g>
						<path class="st1" d="M103.2,495.7C45,486,44.1,424.4,44.1,423.8l13.4-0.1c0,2.1,1,50.9,47.9,58.7L103.2,495.7z"/>
					</g>
					<path class="st2" d="M12.1,370.4c-1.1,0.5-1.9,1.4-2.1,2.7c-0.3,2.1,2.3,3.8,3.6,5c0.7,0.7,4.6,5.4,4.9,5.4
						c-5.5-0.2-3.3,7.2-2.9,10.5c1.1,9.3,1.3,18.3,7.4,26.1c3.8,4.9,9.4,8.3,15.3,10.4c5.8,2.1,16,6,19.2-1.9
						c5.7-14.4,3-35.9-8.6-46.6c-3.2-3-7.4-5.8-11.4-7.6c-4.1-1.8-8.6-3.2-13-3.8C21.9,370.3,15.5,368.8,12.1,370.4z"/>
				</g>
				<path class="st3" d="M238.9,688.6l-18.6,49.1c-2.2,5.8-2.8,12.1-1.8,18.2l14.5,88.3c0.5,3,1.6,5.8,3.4,8.3l22.9,32.7
					c3,4.3,0.2,10.1-5,10.5l-36.8,2.9c-3.5,0.3-7.1-0.9-9.8-3.2l-23.1-19.8l-10-238.6L238.9,688.6z"/>
				<path class="st4" d="M194.3,851.3V884l8.3,8.1c2.7,2.3,11.2,6.8,14.8,6.5l36.8-2.9c5.2-0.4,7.9-6.3,5-10.5l-22.9-32.7
					c-0.9-1.3-1.6-2.6-2.2-4C216.7,843.8,194.3,851.3,194.3,851.3z"/>
				<g>
					<polygon class="st5" points="235.5,697.6 183.8,676.9 176.9,694 177,695.8 228.3,716.4 					"/>
					<path class="st5" d="M218.4,755.9c-0.6-3.4-0.6-6.9-0.1-10.3l-39.3-1.1l0.8,20.1l40.2,1.1L218.4,755.9z"/>
					<polygon class="st5" points="225,796.3 181.3,799.2 182.2,819.3 228.3,816.3 					"/>
				</g>
				<path class="st3" d="M526.5,636.9L584,672c14.9,9.1,25.4,23.9,29.1,40.9l19.9,92.2c0.7,3.4,1.1,6.8,1.1,10.3v31.4
					c0,8.8-8.3,15.2-16.7,13c0,0-60.3-16.1-68.7-47.9c-2.5-9.5,5.3-31.2,10-43c2.2-5.5,3-11.4,2.2-17.3l-2.8-23.1
					c-0.6-5.3-4.3-9.6-9.4-11.2L458.2,688l53.6-55.3L526.5,636.9z"/>
				<path class="st4" d="M552.2,787c-2.9,9.5-5,19.3-3.6,24.9c8.4,31.8,68.7,47.9,68.7,47.9c8.5,2.2,16.7-4.2,16.7-13v-31.4
					c0-2.2-0.2-4.3-0.4-6.5C614.6,792.8,572.6,780.1,552.2,787z"/>
				<g>
					<polygon class="st5" points="546.5,649.2 496.6,700.4 517.9,707.3 564.1,659.9 					"/>
					<path class="st5" d="M593.2,678.9l-53.9,35.2l9.3,3c4.4,1.3,7.7,4.8,8.9,9l48.4-31.6C602.6,688.8,598.3,683.5,593.2,678.9z"/>
					<path class="st5" d="M619.9,744.8l-59.6,2.3l0.5,4.4c0.7,5.3,0.1,10.7-1.7,15.7l65-2.6L619.9,744.8z"/>
				</g>
				<path class="st1" d="M414.6,314.3c-8.4,100.5-49.3,131.2-87.5,139.5c-43.4,9.5-120.1-31.2-159.3-22.7
					c-71.6,15.5-74.7,107.7-74.7,107.7l16.2,144.9c0.2,1.6,0,3.3-0.5,4.8c-1.7,5.4-5.7,18.6-6,24.5c-0.6,10.8,8.1,37.8,10.6,45.6
					c0.5,1.4,0.7,3,0.7,4.5L112,873.7c0,1.4,0.3,2.8,1,4.1c3.2,6.1,15.1,22.9,48,22.9c19.4,0,32.8-4.1,39.6-6.9
					c2.9-1.2,4.7-4.3,4.1-7.4c-4.2-23.2-21.1-120.3-19.1-155.8c0.8-15.6,14.4-60.8,14.4-60.8c0.6-2.4,3.4-3.4,5.3-1.9
					c12.1,9.4,50.8,36,115.4,46.8c17,2.8,62.9-2.7,76.5-4.5c2-0.3,3.8,1.4,3.8,3.4l-1.2,39.1c-0.2,5.3,0.9,10.5,3.2,15.3l9.3,19.7
					c1.5,3.2,2.1,6.7,1.9,10.2l-9.3,113.8c-0.5,5.7,3.3,10.9,8.8,12.3l30.2,7.6l31.8,10.9c11.6,3.9,24.3-0.5,30.8-10.9l0,0
					l-22.3-113.9L475,797c-1.3-2.9-1.9-6-1.9-9.2l1.5-92.7c0.1-5.6,2.7-10.8,7.1-14.3c9.7-7.5,26.8-21.2,33.6-29
					c12.2-14.1,35.3-53.2,39.8-71.2c15.1-60.3,0-223.8,0-223.8V237.9V131C555.3,131,419.4,256.7,414.6,314.3z"/>
				<path class="st2" d="M407.7,877.1l-2.8,34.6c-0.5,5.7,3.3,10.9,8.8,12.3l30.2,15.1c0,0,45.6,24.2,62.7-7.5l-11.8-60.4
					C475,869.8,430.1,867.5,407.7,877.1z"/>
				<path class="st2" d="M113,830.2l-0.8,43.5c0,1.4,0.3,2.8,1,4.1c3.2,6.1,15.1,22.9,48,22.9c19.4,0,32.8-4.1,39.6-6.9
					c2.9-1.2,4.7-4.3,4.1-7.4c-1.6-9.1-5.2-29.5-8.9-53.1C175,825.5,131.9,828.4,113,830.2z"/>
				<path class="st1" d="M516.8,80.9l-48.1,24.4l-21.3-48.4c-7.9-16.7-5.8-36.7,10.9-44.6l0,0c11.7-5.6,25.7-0.6,31.2,11.1
					L516.8,80.9z"/>
				<path class="st2" d="M599.1,154.1c6.5,80.7-38.6,174.8-40.4,197c-1.7,20.1-1.4,26.2,1.7,50.3c2.7,21.5-73.7,27.2-86.7,11.3
					C447.3,380.5,506,234.8,516,151"/>
				<path class="st1" d="M634.9,164.4c7.8,19.4-10.2,52.1-70.2,62.8c-8.1,1.4-17.5-3.4-21-10.9L526,177.4l40.6-16.2
					c11.3-4.5,23.3-7,35.4-7.3C615.7,153.6,631.3,155.4,634.9,164.4z"/>
				<path class="st6" d="M615.2,172.3c-3.3,4-7.6,7.2-11.8,10.2c-4.3,3-8.7,5.8-13.2,8.5s-9,5.2-13.6,7.7s-9.2,4.9-14,7.2l-0.1,0.1
					c-6,2.9-13.1,0.4-16-5.6s-0.4-13.1,5.6-16c1.4-0.7,3-1.1,4.4-1.2c4.8-0.3,9.9-0.8,14.9-1.3c5-0.6,10-1.2,14.9-1.9
					c5-0.8,9.9-1.7,14.8-2.8C605.9,176,610.7,174.7,615.2,172.3z"/>
				<path class="st1" d="M562,200.4c0,62.9-77.3,113.9-172.6,113.9s-155.8-61.1-155.8-124C233.6,130,310.7,63,397.8,63
					C493.1,63,562,137.5,562,200.4z"/>
				<path class="st2" d="M549.4,167.7c-10.1-35.2-81.1-55.4-81-56.9l8-71.9c0.2-2.2,1.9-4.8,4-4.4C565.3,49.2,594.5,98.4,599,154.1"
					/>
				<g>
					<path class="st2" d="M385.8,93.3c-6.3,2.8-12.9,2-14.5-1.8c-1.7-3.8,2.1-9.2,8.4-12s12.9-2,14.5,1.8
						C395.9,85.2,392.1,90.5,385.8,93.3z"/>
					<path class="st2" d="M446.1,160.4c-6.3,2.8-12.9,2-14.5-1.8c-1.7-3.8,2.1-9.2,8.4-12s12.9-2,14.5,1.8S452.5,157.5,446.1,160.4z
						"/>
				</g>
				<g>
					<path class="st6" d="M303.7,92c-0.8-0.3-1.7-0.5-2.6-0.8c-40.3,25.1-67.4,63.3-67.4,99.1c0,62.1,58.9,124,152,125.6l43.4-4.6
						C429.1,311.3,419.6,133.4,303.7,92z"/>
					<g>
						<path class="st2" d="M289.3,193.6c-5.5,0-10.2-1.4-14-4.2c-8.9-6.7-9-18.6-9-19.2c0-1.4,1.1-2.5,2.5-2.5s2.5,1.1,2.5,2.5l0,0
							c0,0.1,0.1,10,7,15.2c5.1,3.8,12.6,4.2,22.5,1.3c1.3-0.4,2.7,0.4,3.1,1.7s-0.4,2.7-1.7,3.1
							C297.5,192.9,293.2,193.6,289.3,193.6z M271.3,170.2L271.3,170.2L271.3,170.2z"/>
					</g>
					<g>
						<path class="st2" d="M394.7,280.5c3.7,1,7,1.3,9.2,1.3c1.5,0,2.5-0.1,2.6-0.1c1.4-0.2,2.3-1.4,2.2-2.8
							c-0.2-1.4-1.4-2.4-2.8-2.2c-0.1,0-12.4,1.4-21.4-7.7c-2.8-2.8-2.8-9.2-2.6-11.4c0.1-1.4-0.9-2.6-2.2-2.7
							c-1.4-0.1-2.6,0.9-2.8,2.2c-0.1,1.1-0.9,10.5,4.1,15.4c2.9,2.9,6,4.9,9.1,6.3c-2,8.1-17.7,23.6-27.8,32.1
							c-0.5,0.4-0.8,1-0.9,1.5c2,0.3,4,0.5,6,0.7C373.6,307.7,391.4,291.6,394.7,280.5z"/>
					</g>
				</g>
			</g>
			<g>
				<path class="st6" d="M371.5,432.1c3.4,1.2,6.4,2.1,9.7,3.1l9.5,2.8c6.3,1.8,12.7,3.6,19,5.2c12.7,3.3,25.5,6.3,38.4,8.8
					s25.9,4.5,39,5.5c6.5,0.5,13.1,0.8,19.7,0.6c6.5-0.2,13.1-0.8,19.3-2.2c-6.4-0.2-12.7-1.3-18.8-2.8c-6.1-1.5-12.2-3.3-18.1-5.4
					c-11.9-4.2-23.4-9.3-34.7-14.8c-11.3-5.5-22.5-11.4-33.4-17.6c-5.5-3.1-10.9-6.3-16.3-9.5l-8-4.9c-0.9-0.6-1.8-1.1-2.7-1.7
					c-6.8,13.8-14.9,24.4-23.6,32.5c0.2,0.1,0.5,0.2,0.7,0.3L371.5,432.1z"/>
				<path class="st6" d="M390.4,532.7c5.9,5.7,12,11.1,18.4,16.2c6.3,5.1,12.9,10,19.7,14.4c13.6,8.9,28.4,16,43.9,19.8
					c-14.3-6.9-26.7-16.6-37.6-27.6c-5.5-5.4-10.6-11.3-15.4-17.3c-4.9-6-9.4-12.2-13.7-18.6c-8.7-12.7-16.4-26.1-23.5-39.7
					c-3.5-6.8-6.9-13.7-10-20.7c-1.6-3.5-3.1-7-4.6-10.5l-2.1-5.2l-1-2.6c-0.3-0.8-0.7-1.8-0.9-2.4c-0.1-0.3-0.3-0.7-0.4-1.1
					c-11.5,8.7-24,13.6-36.1,16.2c-0.3,0.1-0.6,0.1-1,0.2c0.2,0.4,0.4,0.8,0.7,1.2l0.8,1.3c0.7,1.1,1.2,1.9,1.8,2.9l1.8,2.6l3.5,5.2
					c2.4,3.4,4.8,6.8,7.2,10.1c4.9,6.6,9.9,13.1,15.2,19.4C367.5,509.3,378.5,521.5,390.4,532.7z"/>
				<path class="st6" d="M281,451.5c0,1.5,0.2,3,0.5,4.6l37.8,158.7l2.1-160C309.6,456.1,295.7,454.5,281,451.5z"/>
				<path class="st6" d="M270.4,450.7c0.3-0.4,0.6-0.9,1-1.3c-11.8-2.8-24-6.2-35.9-9.3c-2.3,5.9-4.2,11.7-6,17.5
					c-4.9,16.2-8.7,32.4-11.7,48.8c-2.9,16.3-5,32.8-5.6,49.4c-0.3,8.3-0.2,16.6,0.5,24.8s2.1,16.4,4.8,24.1c-1-8.1-0.5-16.1,0.5-24
					s2.7-15.7,4.6-23.4c4-15.4,9.3-30.4,15.4-45c6.1-14.6,12.9-28.9,20.5-42.4C262.2,463.1,266.2,456.5,270.4,450.7z"/>
				<path class="st6" d="M108.9,511.6c7.9,4.5,16,8.6,24.3,12.1c8.2,3.6,16.7,6.5,25.2,8.9l6.4,1.7l6.4,1.3l3.2,0.6l3.2,0.4l6.4,0.9
					l-5.6-3.2l-2.7-1.6L173,531l-5.2-3.5l-5-3.8c-6.6-5.2-12.7-10.7-18.4-16.6s-11.1-12-16-18.4l-3.6-4.8c-1.1-1.6-2.3-3.2-3.4-4.9
					c-1.1-1.6-2.2-3.3-3.2-4.9c-0.5-0.8-1-1.6-1.5-2.4c-0.3-0.4-0.5-0.8-0.7-1.2c-0.2-0.4-0.5-0.8-0.5-1c-0.1-0.4-0.2-0.9-0.3-1.3
					c-8,12.2-13.2,25.6-16.4,37.4c1.4,0.9,2.8,1.8,4.2,2.6L108.9,511.6z"/>
				<path class="st6" d="M156.7,594.3c5.1,2.3,10.2,4.7,15.1,7.4c4.9,2.7,9.8,5.6,13.8,9.6c-2.7-5-6.8-9.4-10.8-13.6
					c-4.1-4.1-8.4-8-12.7-11.9c-8.7-7.6-17.8-14.9-26.9-21.9c-9.1-7.1-18.4-13.9-27.8-20.7c-4.6-3.4-9.3-6.7-13.9-10
					c-0.3,3.5-0.4,5.5-0.4,5.5l3.6,32.3c9.6,3.3,19.2,6.8,28.7,10.4C136,585.5,146.4,589.7,156.7,594.3z"/>
				<path class="st6" d="M106.9,630.2c9.7,2.5,19.4,5.1,29,8s19.2,5.9,28.5,9.4c4.7,1.8,9.3,3.7,13.7,5.9c2.2,1.1,4.4,2.3,6.4,3.7
					c1,0.7,2,1.5,2.8,2.3c0.8,0.9,1.6,1.9,1.8,3.1c0.2-1.3-0.2-2.6-0.8-3.8c-0.5-1.2-1.3-2.3-2-3.4c-1.6-2.1-3.3-4.1-5.1-6
					c-3.7-3.8-7.6-7.2-11.6-10.5c-8-6.6-16.3-12.8-24.8-18.8c-8.4-6-17-11.8-25.6-17.5c-6.7-4.4-13.4-8.7-20.3-13l4.4,39.7
					C104.5,629.6,105.7,629.9,106.9,630.2z"/>
				<path class="st6" d="M108,691.7c2,0.2,4.1,0.4,6.1,0.7c6.7,0.8,13.3,1.9,19.9,3.2c6.6,1.3,13.1,2.9,19.4,5.1
					c3.2,1.1,6.2,2.3,9.2,3.9c2.9,1.6,5.8,3.4,8.1,6.1c-0.8-3.4-2.6-6.7-4.7-9.8c-2.1-3-4.5-5.9-7-8.6c-5-5.4-10.6-10.2-16.3-14.8
					s-11.6-8.9-17.6-13.1c-3-2.1-6-4.1-9.1-6.1l-4.7-3c-1.6-1-3.1-1.9-4.9-3l-0.6-0.3l3.6,31.9c0.2,1.6,0,3.3-0.5,4.8
					C108.7,689.4,108.3,690.5,108,691.7z"/>
				<path class="st6" d="M185.6,731.1l-82.7-17.4c-0.1,3.9,0.9,9.5,2.3,15.6l0,0c0.5,2.2,1.1,4.5,1.7,6.8v0.1c0.4,1.5,0.8,3,1.2,4.5
					l0,0c0.2,0.7,0.4,1.4,0.6,2.1c0,0.1,0,0.1,0.1,0.2c0.4,1.4,0.8,2.8,1.2,4.2l0,0l75.6-4.1C185.5,738.6,185.5,734.6,185.6,731.1z"
					/>
				<path class="st6" d="M114.3,763.1L114.3,763.1l-0.6,28.7l75.8-4.1c-0.4-3-0.7-6-1.1-9L114.3,763.1z"/>
				<path class="st6" d="M547.4,512.6c-6.3-0.8-12.6-1.6-18.9-2.5c-12.6-1.8-25.2-3.8-37.7-6.2c-12.5-2.4-24.9-5.1-37.1-8.6
					c-6.1-1.8-12.1-3.8-17.9-6.2c-5.8-2.5-11.5-5.3-16.1-9.9c3.3,5.6,8.4,10.1,13.6,14.2c5.2,4,10.8,7.6,16.4,11.1
					c11.3,6.8,23,12.8,34.8,18.5s23.8,11,35.9,16.1c6,2.6,12.1,5.1,18.2,7.5c6.1,2.4,12.2,4.8,18.6,7.2l0.2,0.1
					c0.7,0.2,1.4,0.4,2.1,0.6c1.3-12.2,2-25.9,2.3-40.3C557.1,513.8,552.2,513.2,547.4,512.6z"/>
				<path class="st6" d="M283.3,698.9l-2.7-9.8l-2.3-9.9l-1.1-5l-0.9-5l-1.9-10.1c-1-6.8-2.1-13.6-2.8-20.5
					c-1.6-13.7-2.6-27.7-3-41.7c-0.3-14-0.1-28.1,1-42.2c-4.5,13.4-8,27.3-11.1,41.2c-3,14-5.4,28.2-7.1,42.5
					c-1,7.2-1.5,14.4-2.2,21.7l-0.6,10.9l-0.3,5.5l-0.1,5.5c0,3.7-0.1,7.4-0.1,11l0,0c10.7,4.8,23.2,9.6,37.4,13.7l-1-3.1
					C284.2,702.1,283.8,700.5,283.3,698.9z"/>
				<path class="st6" d="M392.4,660.5c-2.2-14.6-5.7-28.7-10.5-42.2c-2.4-6.8-5.1-13.4-8.1-19.8c-3-6.4-6.3-12.7-10.1-18.6
					c2.3,6.6,3.9,13.4,5.3,20.2s2.4,13.6,3.1,20.5c1.4,13.7,1.5,27.3,0.3,40.6c-0.7,6.7-1.7,13.2-2.9,19.7c-1.4,6.4-3,12.8-5,18.9
					c-1.6,5-3.5,9.9-5.5,14.6c13.4-1.1,26.7-2.6,34.7-3.6c0.2-1.8,0.3-3.6,0.5-5.5c0.6-7.6,0.6-15.1,0.4-22.6
					C394.1,675.2,393.5,667.8,392.4,660.5z"/>
				<path class="st6" d="M527.8,634.9c5.5-8.4,11.3-18.2,16.2-27.6l-59.1,4.1L527.8,634.9z"/>
				<path class="st6" d="M474.3,722.9l0.3-20.3c-8.5,0.9-25.8,2.9-43.4,6.8c-9.7,2.1-20.7,5-30.4,9.2l-0.7,23.2
					c4.9-3.5,15.3-8.3,35.3-12.7C450.4,725.8,465.6,723.9,474.3,722.9z"/>
				<path class="st6" d="M440.5,785.6c13.3,0.5,25.8,1.9,32.7,2.7c0-0.2,0-0.4,0-0.6l0.4-26.5c-18.3-2.3-50.2-5-72.9,0.2
					c0.5,2.3,1.3,4.5,2.3,6.6l8.7,18.5C418,785.7,427.2,785.1,440.5,785.6z"/>
				<path class="st6" d="M449.2,817.5c-14.9-0.6-27.1-0.1-36.8,1.6l-1.7,20.9c6-1.6,16.2-3,33.6-2.5c21.2,0.5,41.5,3.6,41.7,3.6
					c1,0.1,1.9,0.1,2.9,0l-4-20.5C478.2,819.8,464.4,818.1,449.2,817.5z"/>
				<g>
					<path class="st6" d="M537.8,258.6c7-7.8,12.7-16.2,16.8-25.1l-53-65L537.8,258.6z"/>
					<path class="st6" d="M464.7,187l37.4,93.1c0.6,1.4,1.3,2.7,2.3,3.9c0.2,0.3,0.5,0.6,0.8,0.8c9-5.4,17.2-11.4,24.3-18
						c-0.4-0.7-0.9-1.5-1.4-2.1L464.7,187z"/>
					<path class="st6" d="M472.9,300.1c8-2.9,15.6-6.2,22.7-9.9l-52.7-64.7L472.9,300.1z"/>
				</g>
			</g>
		</g>
	</g>
</g>
</svg>
