<?xml version="1.0" encoding="utf-8"?>
<!-- Generator: Adobe Illustrator 24.1.2, SVG Export Plug-In . SVG Version: 6.00 Build 0)  -->
<svg version="1.1" id="Слой_2" xmlns="http://www.w3.org/2000/svg" xmlns:xlink="http://www.w3.org/1999/xlink" x="0px" y="0px"
	 viewBox="0 0 647 958" style="enable-background:new 0 0 647 958;" xml:space="preserve">
<style type="text/css">
	.st0{fill:#3B3B3B;}
</style>
<path class="st0" d="M613.1,712.9c-3.7-17-14.2-31.8-29.1-40.9l-57.5-35.1l-0.2-0.1c11.8-17.8,25.4-42.8,28.8-56.2
	c15.1-60.3,0-223.8,0-223.8V237.9v-5.5c0.8-1.8,1.5-3.6,2.2-5.5c2.5,0.6,5,0.7,7.4,0.3c60-10.7,78-43.4,70.2-62.8
	c-3.6-9-19.2-10.8-32.9-10.5c-1,0-2,0.1-3,0.1c-4.2-52-30-98.4-102.6-116.2l-6.8-14.4C484,11.7,470,6.7,458.3,12.3
	c-16.7,7.9-18.8,27.9-10.9,44.6l6.7,15.2c-17.3-5.8-36.2-9.1-56.3-9.1c-35.4,0-69.1,11-96.7,28.2c0,0,0,0,0,0
	c-8.3,5.2-16.1,11-23.2,17.1c-0.2,0.2-0.4,0.3-0.5,0.5c-0.6,0.5-1.2,1.1-1.8,1.6c-0.4,0.4-0.9,0.8-1.3,1.2c-0.4,0.4-0.9,0.8-1.3,1.2
	c-0.6,0.6-1.3,1.2-1.9,1.8c-0.3,0.3-0.5,0.5-0.8,0.8c-22.7,22.4-36.7,49.3-36.7,74.9c0,14.2,3.1,28.2,8.9,41.5
	c19.7,45.6,71.2,82.8,143.2,84.1l19.8-2.1c3.1-0.2,6.2-0.4,9.3-0.7c0,0.4-0.1,0.8-0.1,1.2c-8.4,100.5-49.3,131.2-87.5,139.5
	c-43.4,9.5-120.1-31.2-159.3-22.7c-35,7.6-53.6,33.4-63.5,57.9l1.1-6.6C66,475.8,59,440.3,57.8,427.9c5.3-14.4,2.6-35.4-8.9-45.9
	c-3.2-3-7.4-5.8-11.4-7.6c-4.1-1.8-8.6-3.2-13-3.8c-2.6-0.3-9-1.8-12.4-0.2c-1.1,0.5-1.9,1.4-2.1,2.7c-0.3,2.1,2.3,3.8,3.6,5
	c0.7,0.7,4.6,5.4,4.9,5.4c-5.5-0.2-3.3,7.2-2.9,10.5c1.1,9.3,1.3,18.3,7.4,26.1c3.8,4.9,9.4,8.3,15.3,10.4c1.9,0.7,4.2,1.6,6.6,2.1
	c2.6,17.3,13.3,54.8,56.9,62.8c-8.1,23.1-8.8,43.3-8.8,43.3l16.2,144.9c0.2,1.6,0,3.3-0.5,4.8c-1.7,5.4-5.7,18.6-6,24.5
	c-0.6,10.8,8.1,37.8,10.6,45.6c0.5,1.4,0.7,3,0.7,4.5L112,873.7c0,1.4,0.3,2.8,1,4.1c3.2,6.1,15.1,22.9,48,22.9c0,0,0.1,0,0.1,0
	c0,0,0.1,0,0.1,0c19.4,0,32.8-4.1,39.6-6.9c0.8-0.3,1.5-0.8,2.1-1.4c1.1,0.8,2.7,1.9,4.6,2.9l0.2,0.2c2.7,2.3,6.3,3.5,9.8,3.2
	l36.8-2.9c5.2-0.4,8-6.2,5-10.5l-22.9-32.7c-1.8-2.5-2.9-5.3-3.4-8.3l-14.5-88.3c-1-6.1-0.4-12.4,1.8-18.2l18.6-49.1
	c19.7,9.8,47,20.3,81.8,26.1c17,2.8,62.9-2.7,76.5-4.5c2-0.3,3.8,1.4,3.8,3.4l-1.2,39.1c-0.2,5.3,0.9,10.5,3.2,15.3l9.3,19.7
	c1.5,3.2,2.1,6.7,1.9,10.2l-6.5,79.2c0,0,0,0,0,0l-2.8,34.6l0,0c0,0.4,0,0.7,0,1.1c0,5.3,3.7,9.9,8.8,11.2l30.2,15.1
	c0,0,45.6,24.2,62.7-7.5l-11.8-60.4c0,0-0.1,0-0.1,0l-10.5-53.5L475,797c-1.3-2.9-1.9-6-1.9-9.2l1.5-92.7c0-0.6,0.1-1.2,0.1-1.8
	l74,24c5.1,1.6,8.8,5.9,9.4,11.2l2.8,23.1c0.8,5.9,0,11.8-2.2,17.3c-4.7,11.8-12.5,33.5-10,43c8.4,31.8,68.7,47.9,68.7,47.9
	c8.4,2.2,16.7-4.2,16.7-13v-31.4c0-3.5-0.4-6.9-1.1-10.3L613.1,712.9z"/>
</svg>
